<svg width="50" height="50" viewBox="0 0 50 50" fill="none" xmlns="http://www.w3.org/2000/svg">
<g id="arroba">
<path id="Shape" fill-rule="evenodd" clip-rule="evenodd" d="M0 24.9023C0 11.1377 11.1387 0 24.9023 0C38.5491 0 50 11.0225 50 24.9023C50 38.6803 38.6371 50 24.9023 50C11.0376 50 0 38.564 0 24.9023ZM2.91016 24.9023C2.91016 37.1258 12.7866 47.0898 24.9023 47.0898C37.1258 47.0898 47.0898 37.1258 47.0898 24.9023C47.0898 12.7866 37.1258 2.91016 24.9023 2.91016C12.7866 2.91016 2.91016 12.7866 2.91016 24.9023Z" fill="#D0021B"/>
<path id="Shape_2" fill-rule="evenodd" clip-rule="evenodd" d="M9 24.9036C9 16.1344 16.1344 9 24.9036 9C33.6949 9 41 16.108 41 24.9036V26.3494C41 29.5382 38.4057 32.1325 35.2169 32.1325C33.252 32.1325 31.514 31.1467 30.4684 29.6446C29.0539 31.2051 27.0649 32.1325 24.9036 32.1325C20.9176 32.1325 17.6747 28.8896 17.6747 24.9036C17.6747 20.9176 20.9176 17.6747 24.9036 17.6747C26.5487 17.6747 28.1281 18.2166 29.4337 19.2121V19.1205C29.4337 18.322 30.0811 17.6747 30.8795 17.6747C31.678 17.6747 32.3253 18.322 32.3253 19.1205V26.3494C32.3253 27.9438 33.6225 29.241 35.2169 29.241C36.8113 29.241 38.1084 27.9438 38.1084 26.3494V24.9036C38.1084 17.7288 32.1848 11.8723 24.9036 11.8723C17.7288 11.8723 11.8916 17.7288 11.8916 24.9036C11.8916 32.1848 17.7288 38.1277 24.9036 38.1277C27.834 38.1277 30.7878 37.1317 33.0074 35.4286C33.6409 34.9426 34.5485 35.0621 35.0346 35.6956C35.5207 36.3292 35.4012 37.2367 34.7676 37.7228C32.053 39.8055 28.4577 41 24.9036 41C16.1197 41 9 33.7058 9 24.9036ZM20.5663 24.9035C20.5663 27.2951 22.512 29.2601 24.9036 29.2601C27.3592 29.2601 29.4338 27.2546 29.4338 24.9035C29.4338 22.5524 27.3592 20.5469 24.9036 20.5469C22.512 20.5469 20.5663 22.5119 20.5663 24.9035Z" fill="#D0021B"/>
</g>
</svg>
