<svg width="15" height="15" viewBox="0 0 15 15" fill="none" xmlns="http://www.w3.org/2000/svg">
<path fill-rule="evenodd" clip-rule="evenodd" d="M0 7.5C0 3.35815 3.35815 0 7.5 0C11.6428 0 15 3.35815 15 7.5C15 11.6418 11.6428 15 7.5 15C3.35815 15 0 11.6418 0 7.5ZM7.94678 11.1264C8.64352 11.0532 9.17631 10.8096 9.54527 10.3958C9.91424 9.98291 10.0992 9.46655 10.0992 8.84681C10.0992 8.44307 10.0095 8.09057 9.83098 7.78843C9.65153 7.48723 9.41259 7.2501 9.1123 7.07889C8.81291 6.90768 8.39909 6.72551 7.87175 6.53323C7.39201 6.35654 7.07798 6.20915 6.9324 6.09012C6.78592 5.97018 6.71268 5.79896 6.71268 5.57558C6.71268 5.35676 6.78864 5.16999 6.94063 5.01618C7.09169 4.86237 7.29311 4.78547 7.54397 4.78547C8.04381 4.78547 8.41189 5.12971 8.65084 5.81818L9.87398 5.31647C9.58195 4.31215 8.93924 3.75094 7.94681 3.6319V2.8125H7.05873V3.63188C6.40137 3.72434 5.91981 3.97796 5.61401 4.39269C5.30821 4.80832 5.1544 5.27616 5.1544 5.79527C5.1544 6.19078 5.24045 6.53868 5.41166 6.83716C5.58287 7.13473 5.80626 7.36635 6.08092 7.53114C6.35558 7.69772 6.73737 7.86439 7.22534 8.03373C7.76824 8.22598 8.1189 8.38441 8.27637 8.5098C8.43381 8.63432 8.51256 8.81836 8.51256 9.06097C8.51256 9.29534 8.43384 9.49491 8.27637 9.66064C8.1189 9.82638 7.87169 9.90876 7.53753 9.90876C6.82251 9.90876 6.40137 9.52239 6.2741 8.74878L4.90081 9.10676C5.17819 10.3372 5.8969 11.0129 7.0587 11.1319V12.1875H7.94678V11.1264Z" fill="#FF7D01"/>
</svg>
