<svg width="35" height="28" viewBox="0 0 35 28" fill="none" xmlns="http://www.w3.org/2000/svg">
<path fill-rule="evenodd" clip-rule="evenodd" d="M30.2784 18.2353L34.3508 6.04624C34.5552 5.46028 34.4005 5.10802 34.2356 4.87544C33.8134 4.28044 32.9452 4.27479 32.7769 4.27479L9.76161 4.27028L9.14742 1.35624C8.98145 0.668663 8.49145 0.0126953 7.50355 0.0126953H1.03532C0.364677 0.0126953 0 0.326566 0 0.953179V2.63544C0 3.24173 0.363548 3.39979 1.05903 3.39979H6.52016L10.6998 21.1448C10.036 21.8482 9.67468 22.8733 9.67468 23.8296C9.67468 25.9341 11.3502 27.8738 13.4908 27.8738C15.5118 27.8738 17.0269 25.9804 17.2731 24.8514H25.4134C25.6595 25.9804 26.8868 27.919 29.1945 27.919C31.2979 27.919 33.0084 26.0967 33.0084 23.9956C33.0084 21.9058 31.7382 20.053 29.216 20.053C28.1671 20.053 26.9229 20.6175 26.3448 21.4643H16.3427C15.6168 20.3353 14.6255 19.9853 13.6229 19.9458L13.484 19.2062H28.7023C29.8494 19.2062 30.0752 18.7885 30.2784 18.2353ZM29.2227 22.5154C30.0142 22.5154 30.6566 23.1579 30.6566 23.9493C30.6566 24.7408 30.0142 25.3832 29.2227 25.3832C28.4313 25.3832 27.7877 24.7419 27.7877 23.9493C27.7889 23.1579 28.4313 22.5154 29.2227 22.5154ZM13.4603 25.4012C14.2585 25.4012 14.9089 24.7498 14.9089 23.9493C14.9089 23.1488 14.2585 22.4974 13.4603 22.4974C12.6598 22.4974 12.0084 23.1488 12.0084 23.9493C12.0084 24.7498 12.6598 25.399 13.4603 25.4012Z" fill="#A8A8A8"/>
</svg>
