<svg width="83" height="23" viewBox="0 0 83 23" fill="none" xmlns="http://www.w3.org/2000/svg">
<g id="logo-hced43d3faf9a09dac8d0264c4d01013ee">
<g id="Layer 1">
<g id="logo">
<g id="logo-classic">
<g id="prom">
<g id="Group-10">
<path id="Fill-1" fill-rule="evenodd" clip-rule="evenodd" d="M23.4558 5.61477V22.8412H27.1298V16.44C27.4996 17.5278 28.9544 18.2936 30.8287 18.2936C32.5794 18.2936 34.0588 17.6757 35.2177 16.44C36.4013 15.1795 36.993 13.6476 36.993 11.8426C36.993 10.0384 36.4013 8.50606 35.2177 7.27031C34.0588 6.01022 32.5794 5.39233 30.8287 5.39233C28.9544 5.39233 27.4996 6.15812 27.1298 7.24597V5.61477H23.4558ZM33.3191 11.8426C33.3191 12.708 33.0232 13.4495 32.4068 14.0674C31.7904 14.6609 31.0506 14.9571 30.1626 14.9571C29.251 14.9571 28.4863 14.6609 27.8456 14.0674C27.2291 13.4495 26.9078 12.708 26.9078 11.8426C26.9078 10.9776 27.2291 10.2361 27.8456 9.64297C28.4863 9.0251 29.251 8.72852 30.1626 8.72852C31.0506 8.72852 31.7904 9.0251 32.4068 9.64297C33.0232 10.2361 33.3191 10.9776 33.3191 11.8426Z" fill="#70278B"/>
<path id="Fill-3" fill-rule="evenodd" clip-rule="evenodd" d="M38.8911 18.0713V5.61415H42.5654V7.32026C43.1325 6.05902 44.4637 5.34229 46.1654 5.34229C46.412 5.34229 46.7325 5.36738 47.127 5.41682V8.87693C46.7568 8.80279 46.338 8.75335 45.8942 8.75335C43.7983 8.75335 42.5654 9.93968 42.5654 11.991V18.0713H38.8911Z" fill="#70278B"/>
<path id="Fill-5" fill-rule="evenodd" clip-rule="evenodd" d="M61.6258 11.843C61.6258 9.98934 60.96 8.4319 59.6039 7.17143C58.2474 5.88663 56.62 5.24365 54.7214 5.24365C52.7985 5.24365 51.1711 5.88663 49.8142 7.17143C48.4835 8.4319 47.817 9.98934 47.817 11.843C47.817 13.6966 48.4835 15.2537 49.8142 16.5388C51.1711 17.7997 52.7985 18.4419 54.7214 18.4419C56.62 18.4419 58.2474 17.7997 59.6039 16.5388C60.96 15.2537 61.6258 13.6966 61.6258 11.843ZM54.7214 15.1052C53.8094 15.1052 53.0447 14.7839 52.4283 14.166C51.8118 13.5482 51.4913 12.7573 51.4913 11.8428C51.4913 10.928 51.8118 10.1622 52.4283 9.54432C53.0447 8.90135 53.8094 8.58081 54.7214 8.58081C55.6337 8.58081 56.3981 8.90135 57.0145 9.54432C57.6309 10.1622 57.9522 10.928 57.9522 11.8428C57.9522 12.7573 57.6309 13.5238 57.0145 14.166C56.3981 14.7839 55.6337 15.1052 54.7214 15.1052Z" fill="#70278B"/>
<path id="Fill-7" fill-rule="evenodd" clip-rule="evenodd" d="M63.5485 18.0713V5.61415H67.2228V7.17159C67.6909 6.0845 68.9484 5.34229 70.4529 5.34229C72.1296 5.34229 73.2634 6.0096 73.8306 7.32026C74.5213 6.0096 75.9018 5.34229 77.9734 5.34229C80.8093 5.34229 82.3874 7.27045 82.3874 10.5081V18.0713H78.7135V10.953C78.7135 9.49481 78.0477 8.60506 76.8642 8.60506C75.656 8.60506 74.7926 9.61876 74.7926 11.0766V18.0713H71.1186V10.953C71.1186 9.49481 70.4529 8.60506 69.2693 8.60506C68.0854 8.60506 67.2228 9.61876 67.2228 11.0766V18.0713H63.5485H63.5485Z" fill="#70278B"/>
</g>
<path id="Combined Shape" fill-rule="evenodd" clip-rule="evenodd" d="M18.2085 18.2512H0V0H18.2085V18.2512ZM14.0357 14.0687H4.17279V4.18262H14.0357V14.0687Z" fill="url(#paint0_linear)"/>
</g>
</g>
</g>
</g>
</g>
<defs>
<linearGradient id="paint0_linear" x1="-9.10423" y1="9.12558" x2="9.14688" y2="27.334" gradientUnits="userSpaceOnUse">
<stop stop-color="#4854A2"/>
<stop offset="1" stop-color="#772088"/>
</linearGradient>
</defs>
</svg>
