<svg width="49" height="46" viewBox="0 0 49 46" fill="none" xmlns="http://www.w3.org/2000/svg">
<g id="logo_n">
<path id="Path" fill-rule="evenodd" clip-rule="evenodd" d="M48.379 23.0984C48.3102 35.7958 37.4214 46.0653 24.0863 45.9997C10.7167 45.9669 -0.0685871 35.5989 0.000328434 22.9016C0.0692441 10.2042 10.9579 -0.0653069 24.2931 0.000312728C37.6627 0.0659324 48.4479 10.401 48.379 23.0984Z" fill="#221F1F"/>
<path id="Shape" fill-rule="evenodd" clip-rule="evenodd" d="M47.759 23.0984C47.6901 35.4677 37.1115 45.4419 24.0865 45.3763C11.0959 45.3107 0.655212 35.238 0.655212 22.8688C0.655212 14.8631 4.85906 9.08861 8.85616 6.0045C13.7491 2.23137 17.0916 5.11863 18.2632 7.31689C18.1253 6.39821 17.7118 3.70781 16.6437 1.77203C19.0556 0.984591 21.64 0.558064 24.3277 0.590873C37.3183 0.689303 47.7935 10.7291 47.759 23.0984ZM22.9493 10.237C26.3607 8.0387 32.2529 6.82473 35.3887 11.4181C33.459 0.853339 25.2925 6.92316 22.9493 10.237ZM16.0234 16.1755C15.2997 19.8174 12.9566 22.4422 10.7858 22.0484C8.61491 21.6876 7.44335 18.4066 8.20143 14.7319C8.92503 11.09 11.2682 8.4652 13.439 8.85891C15.5754 9.25264 16.747 12.5337 16.0234 16.1755ZM13.2667 9.41666C11.4405 9.08856 9.40746 11.5165 8.75277 14.8631C8.09807 18.2097 9.06289 21.1954 10.9236 21.5235C12.7499 21.8516 14.7829 19.4236 15.4031 16.077C16.0578 12.7304 15.1275 9.74475 13.2667 9.41666ZM14.7484 15.5521C14.4383 16.8974 13.5423 17.8489 12.7154 17.6848C11.9573 17.5208 11.5438 16.4381 11.7161 15.2569C12.0607 15.3224 12.4397 15.1256 12.612 14.7975C12.7843 14.4038 12.612 13.9773 12.233 13.7804C12.681 13.0914 13.2667 12.6649 13.8181 12.7961C14.645 12.9601 15.0585 14.2069 14.7484 15.5521ZM40.764 17.6848C20.1238 30.8087 5.89274 24.1484 5.89274 24.1484C5.686 28.7089 13.8869 42.7515 23.7419 42.9484C33.5279 43.1125 40.764 17.6848 40.764 17.6848ZM18.1943 20.1783C18.9179 19.4237 19.7449 18.6691 20.6752 17.9801C24.9479 14.8631 29.5997 14.0757 31.1159 16.2412C31.7017 17.0943 31.7361 18.2425 31.2882 19.5221C32.8043 17.127 33.2867 14.9288 32.3564 13.7148C30.7714 11.6806 25.9128 13.0915 21.4332 16.8317C20.1583 17.8817 19.0902 19.0628 18.1943 20.1783ZM23.6385 42.2921C27.1876 42.3578 30.3578 38.7815 32.9076 34.4178C21.8811 33.7944 18.0219 39.1424 17.4017 40.1923C19.3313 41.439 21.4332 42.2593 23.6385 42.2921Z" fill="#00A046"/>
</g>
</svg>
