<svg width="54" height="47" viewBox="0 0 54 47" fill="none" xmlns="http://www.w3.org/2000/svg">
<g id="speech-bubble">
<path id="Shape" fill-rule="evenodd" clip-rule="evenodd" d="M3.55579 46.5143C4.49417 46.8365 5.48883 47 6.51438 47C9.86286 47 12.829 45.2671 14.2973 44.2352C18.1943 46.0457 22.5669 46.9986 26.9993 46.9986C41.887 46.9986 54 36.457 54 23.5C54 10.5423 41.887 0 26.9993 0C12.1117 0 -0.000686388 10.5423 2.91735e-08 23.5C2.91735e-08 28.7878 2.06209 33.9435 5.81832 38.0761C5.78263 39.8403 5.23415 42.1958 3.06086 44.2379L1.41888 45.7807L3.55579 46.5143ZM14.7634 41.4322L13.9753 41.0365L13.2855 41.5841C12.7267 42.0276 9.8038 44.2236 6.62418 44.274C8.28332 41.8593 8.61831 39.3479 8.5579 37.4958L8.54143 36.9802L8.18447 36.6049C4.67604 32.915 2.74438 28.2606 2.74438 23.5C2.74438 12.045 13.6246 2.72534 26.9986 2.72534C40.3726 2.72534 51.2535 12.045 51.2535 23.5007C51.2535 34.9551 40.3726 44.2747 26.9986 44.2747C22.6994 44.2747 18.4681 43.2911 14.7634 41.4322Z" fill="#4A90E2"/>
<path id="Path" fill-rule="evenodd" clip-rule="evenodd" d="M13.9973 30C12.9476 30 12.0953 29.9195 11.437 29.7578C10.7801 29.5976 10.3257 29.4324 10.0759 29.2644C10.013 29.2029 9.98935 29.0622 10.0044 28.8396C10.0194 28.6192 10.0552 28.3882 10.1103 28.1517C10.1647 27.9151 10.2355 27.7023 10.3214 27.5211C10.4073 27.3377 10.4888 27.2523 10.5683 27.2684C10.9754 27.4063 11.4177 27.5407 11.895 27.6701C12.3722 27.7996 12.9791 27.8647 13.7147 27.8647C14.4668 27.8647 15.1036 27.759 15.6296 27.5435C16.1534 27.3286 16.4167 26.9458 16.4167 26.395C16.4167 25.9184 16.2436 25.5328 15.8994 25.2346C15.5552 24.9365 14.9362 24.618 14.0439 24.2828C13.558 24.0973 13.1007 23.8951 12.6699 23.6725C12.2384 23.4514 11.8599 23.1903 11.5307 22.8915C11.2016 22.5933 10.9439 22.2371 10.7557 21.8242C10.5675 21.4113 10.4731 20.9206 10.4731 20.3538C10.4731 19.8946 10.564 19.4579 10.7436 19.0443C10.9232 18.6307 11.2016 18.2745 11.5772 17.9763C11.9529 17.6782 12.4345 17.4402 13.022 17.2645C13.6095 17.0882 14.3101 17 15.1244 17C15.6561 17 16.099 17.0119 16.4511 17.0343C16.8032 17.0574 17.0922 17.0882 17.3205 17.1267C17.5466 17.1652 17.7313 17.2072 17.8722 17.2534C18.0132 17.2995 18.1463 17.3373 18.2715 17.3681C18.381 17.4136 18.4361 17.548 18.4361 17.7699C18.4361 17.9917 18.4039 18.229 18.3417 18.4823C18.2794 18.7343 18.1928 18.9568 18.0841 19.1479C17.9739 19.3397 17.8644 19.4201 17.7549 19.3893C17.4887 19.3131 17.1245 19.2291 16.6629 19.1374C16.2006 19.045 15.7512 18.9995 15.3126 18.9995C14.4195 18.9995 13.8056 19.1227 13.4692 19.3669C13.1322 19.6119 12.964 19.9408 12.964 20.3545C12.964 20.7989 13.1522 21.1551 13.5279 21.4224C13.9036 21.6898 14.4911 21.962 15.289 22.2378C16.557 22.7277 17.493 23.2904 18.0955 23.9259C18.698 24.5613 19 25.3613 19 26.3264C19 27.0466 18.859 27.6443 18.5778 28.1195C18.2951 28.594 17.9195 28.9698 17.45 29.2434C16.9806 29.5206 16.4439 29.7152 15.8414 29.8299C15.2382 29.9426 14.6235 30 13.9973 30Z" fill="#4A90E2"/>
<path id="Path_2" fill-rule="evenodd" clip-rule="evenodd" d="M30.4277 28.998C30.1138 28.998 29.9079 28.9472 29.8115 28.8443C29.713 28.7427 29.6658 28.5455 29.6658 28.2515V20.5743C29.0674 21.5246 28.6058 22.2591 28.2836 22.7784C27.9608 23.2984 27.7276 23.6787 27.5772 23.92C27.4274 24.1599 27.3371 24.3036 27.3063 24.347C27.2769 24.3911 27.2632 24.4212 27.2632 24.4359C27.1292 24.6551 27.0348 24.7975 26.9828 24.8637C26.9295 24.9312 26.8208 24.9619 26.6566 24.9619H26.2976C26.1033 24.9619 25.9754 24.9292 25.9159 24.8637C25.8564 24.7975 25.7662 24.6551 25.6465 24.4359L23.3568 20.6197V28.3851C23.3568 28.5756 23.3232 28.726 23.2555 28.8356C23.1885 28.9452 23.0127 29 22.7282 29H21.7865C21.5765 29 21.3939 28.9673 21.2359 28.9011C21.0793 28.8356 21 28.6204 21 28.2535V17.7238C21 17.4311 21.0561 17.2373 21.1682 17.1424C21.2804 17.0475 21.4411 17 21.6511 17H22.7734C22.9375 17 23.0763 17.0214 23.1885 17.0655C23.3007 17.1096 23.4163 17.2192 23.5366 17.3943L26.5212 22.0446L29.5065 17.4384C29.5967 17.2774 29.7041 17.1644 29.8334 17.0982C29.9613 17.0321 30.083 17 30.2034 17H31.4385C31.723 17 31.8865 17.0581 31.933 17.1751C31.9781 17.2927 32 17.4825 32 17.7459V28.3611C32 28.5803 31.9706 28.742 31.9104 28.8449C31.8502 28.9479 31.6779 28.998 31.3947 28.998H30.4277Z" fill="#4A90E2"/>
<path id="Path_3" fill-rule="evenodd" clip-rule="evenodd" d="M36.9977 30C35.9471 30 35.0955 29.9195 34.4371 29.7578C33.7801 29.5976 33.325 29.4324 33.0759 29.2644C33.013 29.2029 32.9893 29.0622 33.0044 28.8396C33.0194 28.6192 33.0538 28.3882 33.1096 28.1517C33.164 27.9151 33.2341 27.7023 33.3207 27.5211C33.4059 27.337 33.4874 27.2523 33.5676 27.2684C33.9748 27.4063 34.4178 27.5407 34.8944 27.6701C35.371 27.8003 35.9779 27.8647 36.7143 27.8647C37.4664 27.8647 38.1026 27.759 38.6293 27.5435C39.1525 27.3286 39.4172 26.9458 39.4172 26.395C39.4172 25.9184 39.2441 25.5328 38.8991 25.2346C38.5542 24.9365 37.9359 24.618 37.0427 24.2828C36.5568 24.0973 36.1002 23.8951 35.6687 23.6725C35.2372 23.4514 34.8586 23.1903 34.5287 22.8915C34.2002 22.5933 33.9426 22.2371 33.7544 21.8242C33.5654 21.4106 33.4717 20.9206 33.4717 20.3538C33.4717 19.8946 33.5626 19.4579 33.7415 19.0443C33.9218 18.6307 34.2002 18.2745 34.5759 17.9763C34.9516 17.6782 35.4326 17.4402 36.0201 17.2645C36.6084 17.0882 37.3097 17 38.1227 17C38.6551 17 39.0981 17.0119 39.4495 17.0343C39.8015 17.0574 40.0907 17.0882 40.3197 17.1267C40.5451 17.1652 40.7297 17.2072 40.8714 17.2534C41.0117 17.2988 41.1455 17.3373 41.2715 17.3681C41.3803 17.4136 41.4354 17.548 41.4354 17.7699C41.4354 17.9917 41.4032 18.229 41.3402 18.4823C41.2786 18.7343 41.192 18.9568 41.084 19.1479C40.9738 19.3397 40.8636 19.4201 40.7541 19.3893C40.4886 19.3131 40.1229 19.2291 39.6627 19.1374C39.2004 19.045 38.7503 18.9995 38.3123 18.9995C37.4192 18.9995 36.8044 19.1227 36.4688 19.3669C36.1317 19.6119 35.9628 19.9408 35.9628 20.3545C35.9628 20.7989 36.1518 21.1551 36.5275 21.4224C36.9025 21.6898 37.4907 21.962 38.2887 22.2378C39.5561 22.7277 40.4929 23.2904 41.0954 23.9259C41.698 24.5613 42 25.3613 42 26.3264C42 27.0466 41.859 27.6443 41.5778 28.1195C41.2951 28.594 40.9194 28.9698 40.4499 29.2434C39.9805 29.5206 39.4437 29.7152 38.8412 29.8299C38.2364 29.9426 37.6238 30 36.9977 30Z" fill="#4A90E2"/>
</g>
</svg>
