<svg width="25" height="25" viewBox="0 0 25 25" fill="none" xmlns="http://www.w3.org/2000/svg">
<g clip-path="url(#clip0)">
<path d="M7.21893 24.2373C7.26757 24.601 7.5779 24.8726 7.94487 24.8726H18.5783C18.9455 24.8726 19.2558 24.601 19.3043 24.2373L21.4907 7.86877C21.5187 7.65934 21.455 7.4482 21.316 7.28931L21.2407 7.35522C21.2407 7.35521 21.2407 7.35519 21.2407 7.35517M7.21893 24.2373L21.2407 7.35517M7.21893 24.2373L5.78918 13.5342C5.78415 13.5342 5.77908 13.5343 5.77397 13.5344C5.76882 13.5346 5.76365 13.5347 5.75848 13.5347C2.58331 13.5347 0 10.9493 0 7.77168C0 4.59404 2.58331 2.00882 5.75848 2.00882C8.68587 2.00882 11.1097 4.20628 11.4704 7.03926H17.2098L7.21893 24.2373ZM21.2407 7.35517C21.1204 7.21795 20.947 7.13926 20.7647 7.13926H18.6888H18.5738L18.5897 7.02542L19.2623 2.2147L19.2638 2.20364L19.2644 2.2038C19.3762 1.7662 19.7648 1.4625 20.2185 1.4625H24.2676C24.6169 1.4625 24.9 1.1794 24.9 0.830078C24.9 0.480758 24.6169 0.197656 24.2676 0.197656H24.1676H20.2187C19.1592 0.197656 18.2571 0.919317 18.0238 1.95343C18.02 1.97078 18.0168 1.98804 18.0143 2.00541L17.3089 7.0531L17.2968 7.13926H17.2098H11.4704H11.3823L11.3712 7.05189C11.0168 4.26809 8.63477 2.10882 5.75848 2.10882C2.63861 2.10882 0.1 4.6492 0.1 7.77168C0.1 10.8942 2.63862 13.4347 5.75848 13.4347L5.77111 13.4345L5.77173 13.4345C5.77653 13.4343 5.78277 13.4342 5.78918 13.4342H5.87671L5.8883 13.5209L7.31805 24.224C7.36005 24.5381 7.628 24.7726 7.94487 24.7726H18.5783C18.8954 24.7726 19.1633 24.538 19.2052 24.224L19.2052 24.224L21.3916 7.85553L21.3916 7.8555C21.4158 7.67465 21.3608 7.49235 21.2407 7.35517ZM18.4646 20.2155H18.3771H8.14629H8.05875L8.04717 20.1287L7.33916 14.8282L7.30389 14.5641L7.50421 14.7398C7.88536 15.074 8.38725 15.5054 9.27906 15.5054C10.1902 15.5054 10.6712 15.0588 11.0374 14.7177C11.1964 14.5697 11.3221 14.4553 11.4562 14.3804C11.5958 14.3025 11.74 14.2694 11.9337 14.2694C12.1274 14.2694 12.2716 14.3025 12.4112 14.3804C12.5454 14.4553 12.671 14.5697 12.83 14.7177C13.1963 15.0588 13.6771 15.5054 14.5884 15.5054C15.4996 15.5054 15.9804 15.0589 16.3468 14.7179L18.4646 20.2155ZM18.4646 20.2155L18.4762 20.1287M18.4646 20.2155L18.4762 20.1287M18.4762 20.1287L19.0973 15.4799L19.1079 15.4007L19.0328 15.3729C18.6004 15.2129 18.3197 14.9373 18.0846 14.7039L18.0846 14.7039M18.4762 20.1287L18.0846 14.7039M18.0846 14.7039L18.0771 14.6965C17.9431 14.5635 17.8332 14.4546 17.7102 14.3817C17.579 14.304 17.4379 14.2694 17.2434 14.2694C17.0496 14.2694 16.9054 14.3025 16.7657 14.3804M18.0846 14.7039L16.7657 14.3804M5.5933 12.0663L5.57986 11.9656C5.5856 11.9659 5.59135 11.9661 5.5971 11.9663L5.5933 12.0663ZM5.5933 12.0663C5.55934 12.065 5.52549 12.0633 5.49174 12.0612L5.49418 12.0795L5.5933 12.0663ZM16.7657 14.3804C16.6315 14.4553 16.5059 14.5698 16.3469 14.7179L16.7657 14.3804ZM9.98878 7.13926H10.1075L10.0873 7.02229C9.73096 4.95313 7.92626 3.37366 5.75848 3.37366C3.33556 3.37366 1.36484 5.34667 1.36484 7.77168C1.36484 10.1401 3.24463 12.077 5.5895 12.1662L5.70814 12.1707L5.69242 12.053L5.13166 7.85553L5.13166 7.8555C5.10745 7.67471 5.1626 7.4924 5.2827 7.35517C5.40276 7.21798 5.57618 7.13926 5.75848 7.13926H9.98878ZM8.48681 23.421L8.49839 23.5077H8.58593H17.9373H18.0248L18.0364 23.421L18.2805 21.5936L18.2957 21.4803H18.1814H8.34198H8.22774L8.24286 21.5935L8.48681 23.421ZM19.1406 13.9662L19.282 14.0962L19.3075 13.9058L20.0273 8.51735L20.0424 8.4041H19.9282H6.59523H6.48098L6.49611 8.51735L7.09521 13.0021L7.10403 13.0681L7.16836 13.0854C7.69424 13.2268 8.04246 13.5297 8.32739 13.7793C8.49824 13.9291 8.63504 14.0462 8.77844 14.1238C8.92682 14.204 9.07875 14.2405 9.27906 14.2405C9.47279 14.2405 9.61689 14.2074 9.75648 14.1295C9.89061 14.0546 10.0163 13.9402 10.1754 13.7922L10.1754 13.7922C10.5416 13.4511 11.0224 13.0045 11.9337 13.0045C12.8448 13.0045 13.3256 13.4511 13.6921 13.7922C13.851 13.9402 13.9767 14.0546 14.1108 14.1295C14.2503 14.2074 14.3944 14.2405 14.5882 14.2405C14.782 14.2405 14.9262 14.2074 15.0658 14.1295C15.2 14.0546 15.3258 13.9402 15.4848 13.7922L15.4849 13.7922C15.8511 13.4511 16.3319 13.0045 17.2432 13.0045C18.1666 13.0045 18.6254 13.4588 18.9752 13.806L18.9753 13.8061C19.035 13.8653 19.0891 13.9187 19.1406 13.9662Z" fill="#969696" stroke="white" stroke-width="0.2"/>
</g>
<defs>
<clipPath id="clip0">
<rect width="25" height="25" fill="white"/>
</clipPath>
</defs>
</svg>
