<svg width="25" height="25" viewBox="0 0 25 25" fill="none" xmlns="http://www.w3.org/2000/svg">
<path d="M22.2057 18.3341C21.8081 17.6451 21.2214 17.1969 20.4619 17.0021C20.2804 16.9556 20.0976 16.9264 19.9161 16.9148C19.9396 16.6539 19.9518 16.3909 19.9518 16.1284C19.9518 15.7952 19.9327 15.4616 19.8948 15.1312C21.2448 14.9465 22.2861 13.8244 22.2861 12.472C22.2861 10.9911 21.0371 9.78623 19.5018 9.78623C19.3512 9.78623 19.2026 9.79834 19.0566 9.82085C19.3722 9.06064 19.546 8.23188 19.546 7.36489C19.546 6.80122 19.473 6.24497 19.3285 5.70508C20.4362 5.23721 21.1733 4.17715 21.1733 2.97813C21.1734 1.33599 19.7873 0 18.0836 0C17.0449 0 16.0837 0.505762 15.516 1.3208C14.6115 0.920996 13.6182 0.711377 12.616 0.711377C11.6137 0.711377 10.6204 0.920996 9.71593 1.3208C9.14816 0.505762 8.18688 0 7.14825 0C5.44449 0 4.05836 1.33604 4.05836 2.97822C4.05836 4.17729 4.79557 5.23735 5.90323 5.70522C5.75875 6.24526 5.68571 6.80156 5.68571 7.36499C5.68571 8.23198 5.85953 9.06069 6.17511 9.82095C6.02916 9.79844 5.88058 9.78633 5.72999 9.78633C4.19464 9.78633 2.94557 10.9912 2.94557 12.4721C2.94557 13.8244 3.98707 14.9464 5.33688 15.1313C5.29904 15.4619 5.27989 15.7956 5.27989 16.1285C5.27989 16.3982 5.29283 16.6683 5.31759 16.9364C5.29874 16.936 5.27994 16.9354 5.261 16.9354C5.02203 16.9354 4.77887 16.9667 4.53815 17.0284C3.77863 17.2232 3.19196 17.6713 2.7943 18.3604C2.10607 19.553 2.14205 21.3157 2.48297 22.5335C2.88966 23.9858 4.2632 25 5.82335 25C5.88873 25 5.95421 24.9979 6.01954 24.9942C6.02238 24.9942 6.02516 24.9942 6.02799 24.994C6.03229 24.9938 6.03658 24.9935 6.04088 24.9932C6.04596 24.9929 6.05099 24.9926 6.05602 24.9922C7.33497 24.9227 8.4609 24.1677 8.99342 23.0783C10.0941 23.7607 11.3342 24.1186 12.6158 24.1186C13.8392 24.1186 15.031 23.7891 16.0965 23.1625C16.1137 23.1946 16.1306 23.2269 16.1489 23.2586C16.6096 24.0568 17.3678 24.6258 18.2838 24.8607C18.5761 24.9356 18.8765 24.9737 19.1765 24.9737C20.7367 24.9737 22.1102 23.9595 22.5168 22.5073C22.858 21.2895 22.8939 19.5268 22.2057 18.3341ZM5.03522 2.97822C5.03522 1.87466 5.98312 0.976807 7.14825 0.976807C7.98175 0.976807 8.73981 1.44307 9.07946 2.1647C9.13619 2.28525 9.23976 2.37734 9.36603 2.41973C9.49235 2.46206 9.63043 2.45098 9.74845 2.38906C10.6214 1.93052 11.613 1.68818 12.6158 1.68818C13.6187 1.68818 14.6102 1.93052 15.4832 2.38906C15.6012 2.45103 15.7394 2.46211 15.8656 2.41973C15.992 2.37734 16.0955 2.2852 16.1522 2.1647C16.4919 1.44307 17.2499 0.976807 18.0835 0.976807C19.2486 0.976807 20.1965 1.87461 20.1965 2.97822C20.1965 3.75903 19.0019 4.78135 19.0019 4.78135C18.5 5 18.3297 5.15289 18.2689 5.25C18.208 5.34711 18.2689 5.58125 18.2689 5.58125C18.2689 5.58125 18.5692 6.75459 18.5692 7.36499C18.5692 10.3383 16.1593 12.7849 13.1042 13.0226V9.39106C13.8112 9.14893 14.3106 8.41445 14.3106 7.76602C14.3106 7.41045 14.1455 6.5834 12.6158 6.5834C11.0861 6.5834 10.921 7.41045 10.921 7.76602C10.921 8.41445 11.4203 9.14893 12.1274 9.39106V13.0226C9.07233 12.7849 6.66241 10.3384 6.66241 7.36499C6.66241 6.74565 6.76637 6.13667 6.97145 5.55493C7.01739 5.42456 7.00597 5.28091 6.93995 5.15942C6.87399 5.03794 6.75963 4.9502 6.62526 4.91777C5.68907 4.69209 5.03522 3.89448 5.03522 2.97822ZM12.6159 16.8007C12.3462 16.8007 12.1276 17.0193 12.1276 17.2891V18.7694C10.473 18.5316 9.19718 17.1053 9.19718 15.386C9.19718 14.6901 9.41056 14.0134 9.8026 13.445C10.6628 13.8134 11.6149 14.0186 12.6159 14.0186C13.617 14.0186 14.5691 13.8134 15.4293 13.445C15.8214 14.0134 16.0348 14.6901 16.0348 15.386C16.0348 17.1053 14.7589 18.5316 13.1044 18.7694V17.2891C13.1043 17.0193 12.8857 16.8007 12.6159 16.8007ZM11.8979 7.76602C11.8979 7.71841 11.8979 7.69868 11.9786 7.65894C12.0535 7.62207 12.2359 7.56025 12.6159 7.56025C12.996 7.56025 13.1784 7.62212 13.2532 7.65894C13.3339 7.69868 13.3339 7.71841 13.3339 7.76602C13.3339 8.04131 12.9983 8.49683 12.6159 8.49683C12.2335 8.49678 11.8979 8.04131 11.8979 7.76602ZM8.00504 22.7967C7.67682 23.3654 7.13292 23.7717 6.47355 23.9408C6.31393 23.9817 6.15118 24.0075 5.9879 24.0179L5.98663 24.018C5.93229 24.0214 5.87789 24.0231 5.82355 24.0231C4.69962 24.0232 3.71285 23.3023 3.42379 22.2701C3.14723 21.2823 3.09708 19.7902 3.64049 18.8485C3.90553 18.3893 4.27853 18.1033 4.78092 17.9745C4.94239 17.9331 5.10397 17.9121 5.2611 17.9121C5.42628 17.9121 5.58658 17.935 5.74152 17.9773C5.74884 17.9795 5.75612 17.9818 5.76359 17.9837C7.02174 18.3433 7.92491 19.982 8.22682 21.0605C8.39113 21.6475 8.31237 22.2641 8.00504 22.7967ZM15.8327 20.7709C15.6984 21.2507 15.6775 21.7439 15.7653 22.2205C14.8086 22.8236 13.7267 23.1417 12.616 23.1417C11.4214 23.1417 10.2669 22.7773 9.26041 22.0857C9.31656 21.6597 9.28678 21.2231 9.16754 20.7972C8.81202 19.5273 7.81105 17.7511 6.32389 17.1466C6.27955 16.8105 6.2569 16.4693 6.2569 16.1284C6.2569 15.6662 6.2983 15.2025 6.38004 14.7503C6.40685 14.602 6.36368 14.4496 6.263 14.3374C6.16232 14.2251 6.01539 14.1656 5.86515 14.1763C5.82037 14.1794 5.77501 14.181 5.73024 14.181C4.73351 14.181 3.92262 13.4143 3.92262 12.472C3.92262 11.5296 4.73351 10.763 5.73024 10.763C6.20704 10.763 6.65533 10.9368 6.99528 11.2522C7.51656 11.9451 8.17316 12.538 8.9276 12.9953C8.46857 13.7037 8.22047 14.534 8.22047 15.386C8.22047 17.8098 10.1923 19.7816 12.616 19.7816C15.0397 19.7816 17.0116 17.8097 17.0116 15.386C17.0116 14.534 16.7635 13.7038 16.3045 12.9953C17.0589 12.5381 17.7155 11.9451 18.2368 11.2522C18.5768 10.9367 19.0251 10.763 19.5019 10.763C20.4985 10.763 21.3094 11.5296 21.3094 12.472C21.3094 13.4143 20.4985 14.181 19.5019 14.181C19.4571 14.181 19.4117 14.1794 19.3668 14.1763C19.2165 14.1656 19.0696 14.2251 18.9689 14.3374C18.8683 14.4496 18.8251 14.602 18.8519 14.7504C18.9336 15.2021 18.975 15.6657 18.975 16.1284C18.975 16.4308 18.9572 16.7337 18.9224 17.0325C17.2996 17.5307 16.2075 19.4323 15.8327 20.7709ZM21.5763 22.2439C21.2874 23.2761 20.3006 23.997 19.1767 23.997C18.9585 23.997 18.7398 23.9693 18.5266 23.9146C17.8672 23.7456 17.3233 23.3392 16.9951 22.7705C16.6878 22.2379 16.609 21.6213 16.7733 21.0344C17.0913 19.8988 18.0757 18.1422 19.4392 17.9116C19.4445 17.9107 19.4499 17.9098 19.4551 17.9088C19.5481 17.8939 19.6427 17.8861 19.7391 17.8861C19.8963 17.8861 20.0578 17.9071 20.2192 17.9485C20.7216 18.0773 21.0946 18.3632 21.3597 18.8225C21.9031 19.764 21.8529 21.2561 21.5763 22.2439Z" fill="#969696"/>
<path d="M15.6867 5.53247C15.236 5.53247 14.8683 5.88437 14.8683 6.31577C14.8683 6.74722 15.2359 7.09912 15.6867 7.09912C16.1375 7.09912 16.5051 6.74722 16.5051 6.31577C16.5051 5.88437 16.1375 5.53247 15.6867 5.53247Z" fill="#969696"/>
<path d="M9.54517 5.53247C9.09439 5.53247 8.72672 5.88437 8.72672 6.31577C8.72672 6.74722 9.09434 7.09912 9.54517 7.09912C9.9959 7.09912 10.3636 6.74722 10.3636 6.31577C10.3636 5.88437 9.9959 5.53247 9.54517 5.53247Z" fill="#969696"/>
<path d="M12.6158 15.386C12.346 15.386 12.1274 15.6046 12.1274 15.8744V15.8859C12.1274 16.1556 12.346 16.3743 12.6158 16.3743C12.8855 16.3743 13.1042 16.1556 13.1042 15.8859V15.8744C13.1042 15.6046 12.8855 15.386 12.6158 15.386Z" fill="#969696"/>
</svg>
