<svg width="25" height="25" viewBox="0 0 25 25" fill="none" xmlns="http://www.w3.org/2000/svg">
<path d="M23.75 13.3301H23.3333V4.58008C23.3333 2.49673 21.6667 0.830078 19.5833 0.830078C17.7391 0.830078 16.4127 2.19756 16.2643 4.20122C15.2961 4.38423 14.5833 5.21812 14.5833 6.24673C14.5833 6.49673 14.75 6.66338 15 6.66338H18.3334C18.5834 6.66338 18.75 6.49673 18.75 6.24673C18.75 5.22949 18.053 4.40254 17.1012 4.20732C17.2257 2.8833 18.0209 1.66338 19.5833 1.66338C21.2083 1.66338 22.5 2.95503 22.5 4.58003V13.33H9.95972C8.00781 13.3301 8.39844 13.5986 8.39844 13.5986C8.39844 13.5986 7.60024 13.5986 6.93359 13.5986C6.14194 13.5986 5.32227 13.3301 5.32227 13.3301C5.32227 13.3301 3.42676 13.3301 3.05176 13.3301C2.02817 13.3301 3.05176 13.3301 1.29033 13.33H1.25C0.54165 13.33 0 13.8717 0 14.58C0 15.2884 0.54165 15.83 1.25 15.83H1.75073L2.875 20.2884C3.20835 21.58 4.375 22.4967 5.70835 22.4967H6.0417L5.50005 23.5801C5.37505 23.7884 5.4584 24.0384 5.6667 24.1217C5.70835 24.1634 5.7917 24.1634 5.83335 24.1634C6 24.1634 6.125 24.08 6.20835 23.955L6.9375 22.4967H18.5L19.2083 23.9134C19.2917 24.08 19.4167 24.1634 19.5833 24.1634C19.6667 24.1634 19.7084 24.1634 19.75 24.08C19.9167 23.9967 20 23.7467 19.9167 23.5384L19.3947 22.4945C20.6847 22.4487 21.8003 21.5477 22.125 20.33L23.2598 15.83H23.75C24.4583 15.83 25 15.2884 25 14.58C25 13.8717 24.4583 13.3301 23.75 13.3301ZM17.875 5.83008H15.5C15.6667 5.33008 16.1667 4.99673 16.7084 4.99673C17.25 4.99673 17.7083 5.33008 17.875 5.83008ZM3.14941 14.1634C3.52441 14.1634 4.32261 13.6699 4.61426 13.9616C4.69761 14.0866 5.93687 13.9544 6.10352 13.9127C6.27017 13.8711 7.08726 14.1283 7.12891 13.9616C7.25391 13.3366 7.7002 13.9616 8.3252 13.9616C8.78354 13.9616 9.10645 13.8916 9.10645 13.8916C9.10645 13.8916 8.13408 13.8112 8.30078 13.7695C8.34243 13.7695 9.95972 13.33 9.95972 13.33C9.95972 13.33 9.82715 13.3301 9.125 13.3301C8.42285 13.3301 2.16665 13.3301 2.16665 13.3301C2.16665 13.3301 2.60771 14.1634 3.14941 14.1634ZM21.375 20.0801C21.125 20.9967 20.2916 21.6634 19.3333 21.6634H5.75C4.79165 21.6634 3.95835 20.9968 3.70835 20.0801L2.625 15.8301H22.375L21.375 20.0801ZM23.75 14.9967H22.9167H2.08335H1.25C1 14.9967 0.83335 14.8301 0.83335 14.5801C0.83335 14.3301 1 14.1634 1.25 14.1634H1.66665H9.5833H23.75C24 14.1634 24.1667 14.3301 24.1667 14.5801C24.1667 14.8301 24 14.9967 23.75 14.9967Z" fill="#969696"/>
</svg>
