<svg width="25" height="25" viewBox="0 0 25 25" fill="none" xmlns="http://www.w3.org/2000/svg">
<g clip-path="url(#clip0)">
<path d="M22.1645 14.9065H21.358V15.713H22.1645V14.9065Z" fill="#969696"/>
<path d="M22.1645 18.1323H21.358V18.9387H22.1645V18.1323Z" fill="#969696"/>
<path d="M22.1645 21.358H21.358V22.1645H22.1645V21.358Z" fill="#969696"/>
<path d="M24.5838 11.6808H22.7761C22.5705 10.7392 22.1282 9.86709 21.4822 9.14129C21.1891 8.81186 20.8467 8.54614 20.4802 8.35501C21.2153 7.84494 21.6983 6.99616 21.6983 6.0357V5.63248H19.6822C18.6548 5.63248 17.7569 6.1861 17.2629 7.00866V6.0357C17.2629 5.14619 17.9863 4.42282 18.8758 4.42282V3.61638C17.5416 3.61638 16.4565 4.70144 16.4565 6.0357V8.27316C15.2634 7.84091 13.9219 8.16429 13.0646 9.1175C12.961 9.23282 12.8638 9.35258 12.7707 9.47516L12.8057 9.30701C12.8618 9.03686 12.8904 8.75985 12.8904 8.45501C12.8904 7.32237 12.4195 6.299 11.665 5.56594L13.0787 3.48533C13.109 3.44058 13.1364 3.3934 13.1618 3.343C13.4694 2.72728 13.219 1.97568 12.6033 1.66802L12.5025 1.61762C12.2045 1.46843 11.8662 1.44424 11.5497 1.54988C11.2332 1.65552 10.9767 1.8777 10.8243 2.18173C10.8026 2.22487 10.7836 2.26963 10.7675 2.31438L9.94531 4.57564C9.88966 4.55991 9.83321 4.5454 9.77676 4.53209L10.0614 1.68173C10.0659 1.64222 10.0679 1.6019 10.0679 1.56198C10.0679 0.91602 9.54209 0.390625 8.89654 0.390625H8.82033C8.17437 0.390625 7.64857 0.91602 7.64857 1.56198C7.64857 1.6023 7.65059 1.64222 7.65462 1.67891L7.9397 4.5329C7.88284 4.5462 7.8268 4.56072 7.77115 4.57644L6.94939 2.31559C6.93286 2.27003 6.91391 2.22527 6.88931 2.17608C6.74012 1.8777 6.48367 1.65552 6.16714 1.54988C5.85102 1.44424 5.51272 1.46843 5.21434 1.61762L5.11353 1.66802C4.49822 1.97608 4.24782 2.72728 4.55588 3.34461C4.58088 3.3934 4.6079 3.44017 4.63894 3.48614L6.05344 5.56796C5.2978 6.30505 4.82604 7.33608 4.82604 8.48404C4.82604 8.75985 4.85467 9.03686 4.91112 9.30661L5.40587 11.6808H4.82604C4.38129 11.6808 4.0196 12.0425 4.0196 12.4872V12.5195C3.88734 12.5005 3.75347 12.4872 3.61638 12.4872H1.60028V12.8904C1.60028 13.8509 2.08334 14.6997 2.81841 15.2097C2.45148 15.4009 2.10915 15.6666 1.81641 15.9964C0.897068 17.0295 0.390625 18.3609 0.390625 19.7452C0.390625 21.2943 1.00553 22.7391 2.12205 23.8136C3.18413 24.8354 4.56556 25.3906 6.03328 25.3906C6.10868 25.3906 6.18368 25.389 6.25948 25.3862C7.69454 25.3309 8.99976 24.7249 9.97031 23.7777H21.7612C22.8729 23.7777 23.7773 22.8733 23.7773 21.7617V14.1001H24.5838C25.0285 14.1001 25.3902 13.7384 25.3902 13.2936V12.4872C25.3902 12.0425 25.0285 11.6808 24.5838 11.6808ZM19.6822 6.43891H20.8512C20.6637 7.35785 19.8496 8.05179 18.8758 8.05179H17.7069C17.894 7.13286 18.7085 6.43891 19.6822 6.43891ZM13.6638 9.6566C14.3206 8.92678 15.4073 8.68606 16.3065 9.07073C16.3549 9.09129 16.4061 9.10742 16.4565 9.12476V9.98563C16.0561 9.83644 15.6759 9.52233 15.5315 9.37879L14.9618 9.94975C15.0561 10.0445 15.9134 10.8743 16.8597 10.8743C17.8061 10.8743 18.6633 10.0445 18.7577 9.94975L18.1879 9.37879C18.0436 9.52193 17.6633 9.83604 17.2629 9.98563V8.85823H18.8758C19.0125 8.85823 19.1456 8.84533 19.277 8.82638C19.8419 8.8667 20.4395 9.18282 20.8798 9.67717C21.3939 10.2546 21.7556 10.9405 21.9463 11.6808H12.5795C12.7723 10.9316 13.1404 10.2385 13.6638 9.6566ZM11.5255 2.58938C11.5312 2.57406 11.5372 2.55914 11.5489 2.53656C11.6017 2.43091 11.6921 2.35229 11.8046 2.31479C11.9175 2.27729 12.0364 2.28616 12.142 2.33898L12.2429 2.38938C12.461 2.49825 12.5497 2.76438 12.4412 2.98091C12.4324 2.99905 12.4215 3.0172 12.411 3.03292L11.0312 5.06353C10.9227 4.99378 10.811 4.92926 10.6961 4.86999L11.5255 2.58938ZM8.45501 1.56198C8.45501 1.36077 8.61872 1.19706 8.81992 1.19706H8.89613C9.09734 1.19706 9.26105 1.36077 9.25903 1.59827L8.97597 4.42887C8.93686 4.42766 8.89815 4.42282 8.85823 4.42282C8.81831 4.42282 8.7796 4.42766 8.74009 4.42887L8.45501 1.56198ZM5.30627 3.03413C5.29498 3.0172 5.28409 2.99945 5.27603 2.98252C5.16676 2.76438 5.25547 2.49825 5.47361 2.38938L5.57441 2.33898C5.67965 2.28656 5.79941 2.27729 5.91191 2.31479C6.024 2.35229 6.11473 2.43091 6.17158 2.54422C6.17924 2.55874 6.18529 2.57365 6.19134 2.58978L7.02076 4.87079C6.90584 4.93007 6.79415 4.99458 6.68609 5.06434L5.30627 3.03413ZM8.85823 5.22926C10.6368 5.22926 12.084 6.67641 12.084 8.48404C12.084 8.7046 12.061 8.92597 12.0162 9.1421L11.4872 11.6808H6.99616C7.27963 11.4328 7.64615 11.2775 8.05179 11.2775V10.4711C7.28971 10.4711 6.60988 10.8259 6.16593 11.3784L5.69981 9.1421C5.65546 8.92597 5.63248 8.7046 5.63248 8.45501C5.63248 6.67641 7.07963 5.22926 8.85823 5.22926ZM4.82604 12.4872H5.66877C5.64659 12.6187 5.63248 12.7529 5.63248 12.8904V13.3384C5.40103 13.1017 5.12805 12.9078 4.82604 12.7638V12.4872ZM3.61638 13.2936C4.59015 13.2936 5.40466 13.9876 5.59175 14.9065H4.42282C3.44904 14.9065 2.63454 14.2126 2.44745 13.2936H3.61638ZM6.22843 24.5802C4.89055 24.6281 3.63815 24.1527 2.68131 23.2322C1.72447 22.3112 1.19706 21.073 1.19706 19.7452C1.19706 18.5585 1.63093 17.4178 2.41841 16.5319C2.85873 16.0371 3.4563 15.721 4.02161 15.6811C4.15306 15.7001 4.28613 15.713 4.42282 15.713H5.63248V16.8404C5.23208 16.6912 4.85184 16.3771 4.70749 16.2335L4.13774 16.8045C4.2321 16.8992 5.08934 17.7291 6.03569 17.7291C6.98205 17.7291 7.8393 16.8992 7.93365 16.8045L7.3639 16.2335C7.21955 16.3767 6.83931 16.6908 6.43891 16.8404V16.0811C6.63206 16.05 6.81915 15.9996 6.99213 15.9255C7.89091 15.54 8.97799 15.7819 9.63443 16.5113C10.4872 17.4593 10.9259 18.6859 10.8695 19.9649C10.7594 22.4568 8.72033 24.4838 6.22843 24.5802ZM11.6743 19.7452C11.6743 18.8976 11.4933 18.0746 11.1372 17.3258H22.9709V19.7452H11.6743ZM21.7612 22.9709H10.6578C11.1546 22.2637 11.4941 21.4399 11.6227 20.5516H22.9709V21.7612C22.9709 22.4282 22.4282 22.9709 21.7612 22.9709ZM24.5838 13.2936H22.9709V16.5194H10.6626C10.5304 16.3303 10.3905 16.146 10.234 15.9722C9.33605 14.9743 7.90502 14.6581 6.6752 15.1843C6.60141 15.2158 6.52036 15.2364 6.43932 15.2565V14.1001H22.1649V13.2936H6.43891V12.8904C6.43891 12.7505 6.4623 12.617 6.49617 12.4872H24.5838V13.2936Z" fill="#969696"/>
<path d="M2.80995 19.7451H2.00351C2.00351 21.9685 3.81235 23.7773 6.0357 23.7773V22.9709C4.2571 22.9709 2.80995 21.5237 2.80995 19.7451Z" fill="#969696"/>
<path d="M10.8743 6.84213H10.0679V7.64857H10.8743V6.84213Z" fill="#969696"/>
<path d="M10.8743 8.45502H10.0679V9.26146H10.8743V8.45502Z" fill="#969696"/>
<path d="M10.8743 10.0679H10.0679V10.8743H10.8743V10.0679Z" fill="#969696"/>
</g>
<defs>
<clipPath id="clip0">
<rect width="25" height="25" fill="white"/>
</clipPath>
</defs>
</svg>
