<svg width="25" height="25" viewBox="0 0 25 25" fill="none" xmlns="http://www.w3.org/2000/svg">
<path d="M17.7479 0H7.25209C6.24042 0 5.41667 0.82375 5.41667 1.83542V23.1642C5.41667 24.1763 6.24042 25 7.25209 25H17.7475C18.7596 25 19.5833 24.1762 19.5833 23.1646V1.83542C19.5833 0.82375 18.7596 0 17.7479 0ZM6.25001 3.33333H18.75V19.1667H6.25001V3.33333ZM7.25209 0.833333H17.7475C18.3004 0.833333 18.75 1.28292 18.75 1.83542V2.5H6.25001V1.83542C6.25001 1.28292 6.69959 0.833333 7.25209 0.833333ZM17.7479 24.1667H7.25209C6.69959 24.1667 6.25001 23.7171 6.25001 23.1646V20H18.75V23.1646C18.75 23.7171 18.3004 24.1667 17.7479 24.1667Z" fill="#969696"/>
<path d="M12.5 20.4167C11.5808 20.4167 10.8333 21.1642 10.8333 22.0833C10.8333 23.0025 11.5808 23.75 12.5 23.75C13.4192 23.75 14.1667 23.0025 14.1667 22.0833C14.1667 21.1642 13.4192 20.4167 12.5 20.4167ZM12.5 22.9167C12.0404 22.9167 11.6667 22.5429 11.6667 22.0833C11.6667 21.6238 12.0404 21.25 12.5 21.25C12.9596 21.25 13.3333 21.6238 13.3333 22.0833C13.3333 22.5429 12.9596 22.9167 12.5 22.9167Z" fill="#969696"/>
<path d="M10.8333 2.08333H12.5C12.7304 2.08333 12.9167 1.89708 12.9167 1.66667C12.9167 1.43625 12.7304 1.25 12.5 1.25H10.8333C10.6029 1.25 10.4167 1.43625 10.4167 1.66667C10.4167 1.89708 10.6029 2.08333 10.8333 2.08333Z" fill="#969696"/>
<path d="M13.75 2.08333H14.1667C14.3971 2.08333 14.5833 1.89708 14.5833 1.66667C14.5833 1.43625 14.3971 1.25 14.1667 1.25H13.75C13.5196 1.25 13.3333 1.43625 13.3333 1.66667C13.3333 1.89708 13.5196 2.08333 13.75 2.08333Z" fill="#969696"/>
</svg>
