<svg width="25" height="25" viewBox="0 0 25 25" fill="none" xmlns="http://www.w3.org/2000/svg">
<g clip-path="url(#clip0)">
<path d="M21.6891 14.6874C21.7273 14.6508 21.7677 14.6177 21.8053 14.5799C25.5637 10.8148 26.0734 5.1996 22.9411 2.062C21.6137 0.732225 19.7616 0 17.7274 0C15.1279 0 12.4722 1.16656 10.4415 3.20041C7.86369 5.7822 6.81526 9.23383 7.4201 12.1602L5.30651 16.2923L0.701117 20.9049C0.24926 21.358 0 21.9601 0 22.6007C0 23.9238 1.07461 25 2.39553 25C3.03581 25 3.63789 24.7503 4.09034 24.2967L8.69554 19.6842L12.7762 17.5876C12.8987 17.6145 13.0218 17.6403 13.1468 17.6612C12.54 19.6037 12.9995 21.8104 14.5331 23.3463C15.5984 24.4129 17.0133 25 18.5194 25H18.5198C20.025 25 21.4411 24.4129 22.506 23.3459C24.7029 21.1451 24.7029 17.5641 22.506 15.3629C22.2528 15.1097 21.9782 14.8855 21.6891 14.6874V14.6874ZM23.302 18.7278C22.9299 18.8738 22.5415 18.9516 22.1428 18.9516C20.3674 18.9516 18.9231 17.5045 18.9231 15.7258C18.9231 15.3249 19.0008 14.9351 19.1471 14.5612C20.1993 14.6977 21.1725 15.1694 21.9351 15.9327C22.7173 16.7169 23.1697 17.7057 23.302 18.7278V18.7278ZM14.537 15.36C14.5311 15.3606 14.525 15.3614 14.5189 15.3614C14.2923 15.3614 14.0733 15.3448 13.8577 15.321L14.2923 14.8855L14.6573 15.2507C14.6181 15.2883 14.5758 15.3214 14.537 15.36V15.36ZM20.3698 12.573L18.4856 10.6859L19.727 9.44234L21.4407 11.1588C21.1428 11.6508 20.7807 12.1241 20.3698 12.573ZM17.9158 6.48548L16.6738 5.24194L17.9158 3.998L19.1578 5.24154L17.9158 6.48548ZM19.7274 5.81291L20.9689 7.05645L19.727 8.29999L18.486 7.05645L19.7274 5.81291ZM17.3456 7.05645L16.104 8.29999L14.8621 7.05645L16.1036 5.81291L17.3456 7.05645ZM15.5342 8.87057L14.2927 10.1141L13.0509 8.87097L14.2923 7.62743L15.5342 8.87057ZM13.7221 10.6855L12.4807 11.929L11.2391 10.6855L12.4807 9.44194L13.7221 10.6855ZM14.2923 11.2565L15.5338 12.5L14.2919 13.7435L13.0509 12.5L14.2923 11.2565ZM14.8625 10.6855L16.104 9.44194L17.3456 10.6855L16.104 11.929L14.8625 10.6855ZM16.6738 8.87097L17.9154 7.62743L19.1572 8.87097L17.9158 10.1145L16.6738 8.87097ZM21.8388 10.415L20.2975 8.87097L21.5391 7.62743L22.4617 8.55162C22.3406 9.17417 22.1323 9.80126 21.8388 10.415ZM22.1089 7.05685L22.5468 6.61818C22.581 6.91725 22.5968 7.22223 22.5846 7.53351L22.1089 7.05685ZM21.5387 6.48587L20.2971 5.24194L21.4806 4.05648C21.8799 4.53137 22.1729 5.07497 22.3548 5.6682L21.5387 6.48587ZM19.727 4.67096L18.4856 3.42742L19.2786 2.63258C19.8888 2.80919 20.4387 3.09468 20.912 3.48432L19.727 4.67096ZM17.9158 2.85684L17.4923 2.43314C17.5706 2.42979 17.6492 2.41935 17.7274 2.41935C17.9298 2.41935 18.127 2.43176 18.321 2.45086L17.9158 2.85684ZM16.4695 2.5491L17.346 3.42742L16.104 4.67136L14.6035 3.16851C15.2106 2.8783 15.8367 2.6698 16.4695 2.5491V2.5491ZM13.8644 3.56977L15.5342 5.24194L14.2927 6.48548L12.4484 4.63828C12.8932 4.22993 13.3677 3.87179 13.8644 3.56977ZM11.877 5.20768L13.7227 7.05645L12.4811 8.29999L10.8052 6.62172C11.1064 6.12498 11.4689 5.65284 11.877 5.20768ZM10.4077 7.36537L11.9109 8.87097L10.6693 10.1145L9.78709 9.23068C9.90797 8.59552 10.1198 7.96981 10.4077 7.36537ZM10.0992 10.6859L9.69238 11.0932C9.66541 10.8233 9.66324 10.5439 9.67388 10.26L10.0992 10.6859ZM10.6689 11.2565L11.9109 12.5L10.7286 13.6843C10.3411 13.2102 10.0568 12.6573 9.88021 12.0468L10.6689 11.2565ZM12.4811 13.071L13.7227 14.3145L12.9097 15.1286C12.3053 14.9451 11.7613 14.6543 11.2939 14.2596L12.4811 13.071ZM15.2838 14.7366L14.8625 14.3145L16.1044 13.071L16.9625 13.9302C16.3625 14.1021 15.7971 14.3742 15.2838 14.7366ZM17.9158 13.7435L16.6742 12.5L17.9158 11.2565L19.7988 13.1422C19.5738 13.3472 19.3355 13.5461 19.079 13.737C18.8943 13.7189 18.7077 13.7097 18.5194 13.7097C18.3161 13.7097 18.1148 13.7221 17.9158 13.7435ZM3.51976 23.7275C3.21931 24.0278 2.82022 24.1935 2.39553 24.1935C1.51978 24.1935 0.806452 23.479 0.806452 22.6007C0.806452 22.1755 0.971837 21.7754 1.27209 21.4745L5.6367 17.1032L7.88515 19.3548L3.51976 23.7275ZM8.53232 18.8616L8.45573 18.7847L6.1295 16.4545L7.75363 13.2791C8.09444 14.1826 8.6032 15.0145 9.3053 15.7177C9.9759 16.3895 10.7755 16.9028 11.665 17.2517L8.53232 18.8616ZM9.87628 15.1483C7.05724 12.325 7.56659 7.22066 11.0121 3.76981C12.8928 1.88677 15.3403 0.806452 17.7274 0.806452C19.5464 0.806452 21.1951 1.4548 22.3706 2.6318C25.1892 5.45516 24.6799 10.5593 21.2347 14.0105C21.1444 14.1013 21.0496 14.1838 20.9557 14.2681C20.6858 14.1383 20.408 14.0263 20.1205 13.9416C20.3121 13.7778 20.496 13.6108 20.6669 13.4403C23.798 10.3045 24.3073 5.7121 21.8031 3.20277C20.7638 2.16242 19.3548 1.6129 17.7274 1.6129C15.5516 1.6129 13.3118 2.60719 11.5803 4.34117C10.0334 5.89068 9.0779 7.83258 8.88987 9.80973C8.71011 11.7 9.26218 13.3939 10.4439 14.5774C11.3464 15.4819 12.5299 16.0141 13.8932 16.1383C13.7254 16.3799 13.5799 16.6319 13.4545 16.8916C12.0533 16.6892 10.8198 16.0936 9.87628 15.1483V15.1483ZM13.737 19.9815C14.1094 19.8358 14.4972 19.7581 14.8959 19.7581C16.6715 19.7581 18.1162 21.2052 18.1162 22.9839C18.1162 23.3851 18.0383 23.7746 17.892 24.1485C16.84 24.0124 15.8662 23.5403 15.104 22.7762C14.3218 21.9927 13.8694 21.004 13.737 19.9815V19.9815ZM21.9347 22.7762C21.0731 23.6395 19.9424 24.1302 18.7327 24.1831C18.8553 23.7949 18.9227 23.3944 18.9227 22.9839C18.9227 20.7604 17.1166 18.9516 14.8959 18.9516C14.4872 18.9516 14.0883 19.0189 13.7016 19.1412C13.7528 17.9743 14.2165 16.8227 15.1044 15.9335V15.9331C15.9658 15.0702 17.0967 14.5789 18.3064 14.5266C18.1839 14.9148 18.1166 15.3153 18.1166 15.7258C18.1166 17.9493 19.9227 19.7581 22.1428 19.7581C22.5517 19.7581 22.9504 19.6907 23.3371 19.5685C23.2863 20.7354 22.8222 21.8874 21.9347 22.7762V22.7762Z" fill="#969696"/>
<path d="M4.94798 19.4732L5.75326 18.6669L6.32423 19.2369L5.51896 20.0434L4.94798 19.4732Z" fill="#969696"/>
<path d="M2.13072 22.2948L4.1439 20.2786L4.71487 20.8488L2.7017 22.865L2.13072 22.2948Z" fill="#969696"/>
</g>
<defs>
<clipPath id="clip0">
<rect width="25" height="25" fill="white"/>
</clipPath>
</defs>
</svg>
