<svg width="25" height="25" viewBox="0 0 25 25" fill="none" xmlns="http://www.w3.org/2000/svg">
<path d="M1.66667 4.06667H1.56667V4.16667V6.66667C1.56667 7.07144 1.2381 7.4 0.833333 7.4C0.428562 7.4 0.1 7.07144 0.1 6.66667V3.33333C0.1 2.92856 0.428562 2.6 0.833333 2.6H4.16667C4.57144 2.6 4.9 2.92856 4.9 3.33333C4.9 3.73811 4.57144 4.06667 4.16667 4.06667H1.66667Z" fill="#969696" stroke="white" stroke-width="0.2"/>
<path d="M23.3333 20.9333H23.4333V20.8333V18.3333C23.4333 17.9286 23.7619 17.6 24.1667 17.6C24.5714 17.6 24.9 17.9286 24.9 18.3333V21.6667C24.9 22.0714 24.5714 22.4 24.1667 22.4H20.8333C20.4286 22.4 20.1 22.0714 20.1 21.6667C20.1 21.2619 20.4286 20.9333 20.8333 20.9333H23.3333Z" fill="#969696" stroke="white" stroke-width="0.2"/>
<path d="M23.4333 4.16667V4.06667H23.3333H20.8333C20.4286 4.06667 20.1 3.73811 20.1 3.33333C20.1 2.92856 20.4286 2.6 20.8333 2.6H24.1667C24.5714 2.6 24.9 2.92856 24.9 3.33333V6.66667C24.9 7.07144 24.5714 7.4 24.1667 7.4C23.7619 7.4 23.4333 7.07144 23.4333 6.66667V4.16667Z" fill="#969696" stroke="white" stroke-width="0.2"/>
<path d="M1.56667 20.8333V20.9333H1.66667H4.16667C4.57144 20.9333 4.9 21.2619 4.9 21.6667C4.9 22.0714 4.57144 22.4 4.16667 22.4H0.833333C0.428562 22.4 0.1 22.0714 0.1 21.6667V18.3333C0.1 17.9286 0.428562 17.6 0.833333 17.6C1.2381 17.6 1.56667 17.9286 1.56667 18.3333V20.8333Z" fill="#969696" stroke="white" stroke-width="0.2"/>
<path d="M3.43333 5.93334H4.89999V19.0667H3.43333V5.93334Z" fill="#969696" stroke="white" stroke-width="0.2"/>
<path d="M6.76667 5.93334H8.23334V15.7333H6.76667V5.93334Z" fill="#969696" stroke="white" stroke-width="0.2"/>
<path d="M10.1 5.93334H11.5667V15.7333H10.1V5.93334Z" fill="#969696" stroke="white" stroke-width="0.2"/>
<path d="M13.4333 5.93334H14.9V19.0667H13.4333V5.93334Z" fill="#969696" stroke="white" stroke-width="0.2"/>
<path d="M16.7667 5.93334H18.2333V15.7333H16.7667V5.93334Z" fill="#969696" stroke="white" stroke-width="0.2"/>
<path d="M20.1 5.93334H21.5667V19.0667H20.1V5.93334Z" fill="#969696" stroke="white" stroke-width="0.2"/>
<path d="M6.76667 17.6H8.23334V19.0667H6.76667V17.6Z" fill="#969696" stroke="white" stroke-width="0.2"/>
<path d="M10.1 17.6H11.5667V19.0667H10.1V17.6Z" fill="#969696" stroke="white" stroke-width="0.2"/>
<path d="M16.7667 17.6H18.2333V19.0667H16.7667V17.6Z" fill="#969696" stroke="white" stroke-width="0.2"/>
</svg>
