<svg width="25" height="25" viewBox="0 0 25 25" fill="none" xmlns="http://www.w3.org/2000/svg">
<path d="M19.2592 6.21173L19.2588 6.21218C19.0559 6.41808 18.76 6.65249 18.4092 6.89203L18.0081 7.16591H18.4938H23.4375C24.2156 7.16591 24.85 7.80031 24.85 8.57841V12.4847C24.85 12.8331 24.5672 13.1159 24.2188 13.1159H23.4375H23.2875V13.2659V22.6409C23.2875 23.419 22.6531 24.0534 21.875 24.0534H3.125C2.34691 24.0534 1.7125 23.419 1.7125 22.6409V13.2659V13.1159H1.5625H0.78125C0.432843 13.1159 0.15 12.8331 0.15 12.4847V8.57841C0.15 7.80031 0.784405 7.16591 1.5625 7.16591H6.50625H6.99193L6.59084 6.89203C6.24011 6.65255 5.94398 6.418 5.73927 6.2118C4.53952 5.00311 4.53953 3.03503 5.74077 1.82633L5.74078 1.82632C6.90561 0.654054 8.94449 0.652585 10.1108 1.82632L10.1109 1.82641C10.4342 2.1512 11.044 2.99795 11.5425 3.99695C12.043 4.99985 12.4122 6.11901 12.2951 6.99605L12.2724 7.16591H12.4438H12.5563H12.7278L12.7049 6.99593C12.587 6.11897 12.9562 4.99987 13.4569 3.99697C13.9556 2.99799 14.5658 2.15122 14.8891 1.82641L14.8892 1.82632C16.0555 0.652585 18.0944 0.654054 19.2592 1.82632L19.3656 1.72059L19.2592 1.82633C20.4605 3.03502 20.4605 5.00305 19.2592 6.21173ZM12.424 6.10762C12.1638 4.36474 10.7896 2.29562 10.2172 1.72059C8.99219 0.487781 6.85781 0.489343 5.63438 1.72059C4.375 2.98778 4.375 5.05028 5.63281 6.31747L12.424 6.10762ZM6.63586 2.71635L6.63574 2.71647C5.92298 3.43433 5.92298 4.60373 6.63574 5.32159L6.63575 5.3216C6.9894 5.67771 7.68989 6.13638 8.43008 6.50451C9.16701 6.87102 9.97907 7.16591 10.5562 7.16591C10.6793 7.16591 10.766 7.15173 10.8264 7.13416C10.8567 7.12535 10.8805 7.11568 10.8988 7.1065C10.9079 7.10191 10.9157 7.09747 10.9222 7.09336L10.931 7.08748L10.9347 7.08479L10.9364 7.08352L10.9372 7.0829L10.9376 7.08259L10.9378 7.08244C10.9379 7.08237 10.938 7.08229 10.8453 6.96434L10.938 7.08229L10.946 7.07597L10.9532 7.0686C11.0389 6.97995 11.0639 6.84811 11.0683 6.72726C11.0731 6.59904 11.0558 6.44572 11.023 6.27837C10.9571 5.94257 10.8239 5.52622 10.6478 5.09284C10.2969 4.22947 9.76285 3.26675 9.21575 2.7164L9.2157 2.71635C8.87056 2.36951 8.41206 2.17841 7.92656 2.17841C7.43958 2.17841 6.98106 2.36945 6.63586 2.71635ZM11.7188 22.7909H11.8687V22.6409V13.2659V13.1159H11.7188H3.125H2.975V13.2659V22.6409V22.7909H3.125H11.7188ZM11.7188 11.8534H11.8687V11.7034V8.57841V8.42841H11.7188H10.5562H1.5625H1.4125V8.57841V11.7034V11.8534H1.5625H11.7188ZM15.7844 2.71622L15.7842 2.7164C15.2371 3.26675 14.7031 4.22947 14.3521 5.09281C14.1759 5.52619 14.0425 5.94251 13.9764 6.27827C13.9435 6.44561 13.926 6.59889 13.9306 6.72706C13.9349 6.84782 13.9596 6.97965 14.0451 7.06837L14.045 7.06839L14.0471 7.07041C14.0535 7.07689 14.0595 7.08156 14.0601 7.08205L14.0602 7.08209L14.0659 7.08646C14.0693 7.08891 14.0728 7.09127 14.0763 7.09351C14.0834 7.09803 14.0916 7.10269 14.101 7.10736C14.1198 7.11671 14.1438 7.12631 14.1741 7.13496C14.2346 7.15222 14.3211 7.16591 14.4438 7.16591C15.0209 7.16591 15.833 6.87102 16.5699 6.50451C17.3101 6.13638 18.0106 5.67771 18.3642 5.3216L18.2626 5.22069L18.3643 5.32159C19.077 4.60373 19.077 3.43433 18.3643 2.71647L18.364 2.71622C17.6727 2.02318 16.4775 2.02144 15.7844 2.71622ZM21.875 22.7909H22.025V22.6409V13.2659V13.1159H21.875H13.2812H13.1313V13.2659V22.6409V22.7909H13.2812H21.875ZM23.4375 11.8534H23.5875V11.7034V8.57841V8.42841H23.4375H14.4438H13.2812H13.1313V8.57841V11.7034V11.8534H13.2812H23.4375Z" fill="#969696" stroke="white" stroke-width="0.3"/>
</svg>
