<svg width="25" height="25" viewBox="0 0 25 25" fill="none" xmlns="http://www.w3.org/2000/svg">
<g clip-path="url(#clip0)">
<path d="M21.6151 16.8803H3.64627C3.43422 16.8803 3.26212 16.7106 3.26212 16.5015V11.3864C3.26212 10.5235 3.97356 9.82273 4.84711 9.82273H20.4127C21.2878 9.82273 21.9985 10.5242 21.9985 11.3864V16.5015C21.9992 16.7114 21.8271 16.8803 21.6151 16.8803ZM4.03042 16.1227H21.2309V11.3864C21.2309 10.9417 20.8637 10.5803 20.4135 10.5803H4.84788C4.39766 10.5803 4.03118 10.9424 4.03118 11.3864V16.1227H4.03042Z" fill="#969696"/>
<path d="M20.4127 23.097H4.84788C3.97356 23.097 3.26289 22.3955 3.26289 21.5333V16.4182C3.26289 16.2091 3.43499 16.0394 3.64704 16.0394H21.6159C21.8279 16.0394 22 16.2091 22 16.4182V21.5333C21.9992 22.3962 21.2878 23.097 20.4127 23.097ZM4.03042 16.797V21.5333C4.03042 21.978 4.39766 22.3394 4.84711 22.3394H20.4127C20.8637 22.3394 21.2302 21.9773 21.2302 21.5333V16.797H4.03042Z" fill="#969696"/>
<path d="M6.12324 25C6.07484 25 6.02413 24.9909 5.9765 24.9712C5.78059 24.8917 5.68762 24.6697 5.76829 24.4765L6.56732 22.5735C6.64876 22.3803 6.8731 22.2864 7.06901 22.3682C7.26493 22.4477 7.35789 22.6697 7.27722 22.8629L6.47819 24.7659C6.41673 24.9121 6.27383 25 6.12324 25Z" fill="#969696"/>
<path d="M19.1373 25C18.9868 25 18.8439 24.9121 18.7824 24.7659L17.9841 22.8629C17.9035 22.6689 17.9964 22.4477 18.1923 22.3682C18.389 22.2871 18.6134 22.3811 18.694 22.5735L19.4923 24.4765C19.573 24.6705 19.48 24.8917 19.2841 24.9712C19.2365 24.9909 19.1865 25 19.1373 25Z" fill="#969696"/>
<path d="M13.5288 12.9432H11.7318C11.5197 12.9432 11.3476 12.7735 11.3476 12.5644C11.3476 12.3553 11.5197 12.1856 11.7318 12.1856H13.5288C13.7409 12.1856 13.913 12.3553 13.913 12.5644C13.913 12.7735 13.7416 12.9432 13.5288 12.9432Z" fill="#969696"/>
<path d="M13.5288 19.1598H11.7318C11.5197 19.1598 11.3476 18.9902 11.3476 18.7811C11.3476 18.572 11.5197 18.4023 11.7318 18.4023H13.5288C13.7409 18.4023 13.913 18.572 13.913 18.7811C13.913 18.9902 13.7416 19.1598 13.5288 19.1598Z" fill="#969696"/>
<path d="M13.2069 10.5803H8.09775C7.88571 10.5803 7.71361 10.4106 7.71361 10.2015V8.66667C7.71361 8.45758 7.88571 8.28788 8.09775 8.28788H13.2069C13.4189 8.28788 13.591 8.45758 13.591 8.66667V10.2008C13.591 10.4106 13.4189 10.5803 13.2069 10.5803ZM8.48113 9.82273H12.822V9.04546H8.48113V9.82273V9.82273Z" fill="#969696"/>
<path d="M14.0267 4.82045H7.27645C7.15429 4.82045 7.03828 4.76288 6.96606 4.66515C6.89384 4.56742 6.87386 4.44167 6.91074 4.32652L8.22913 0.263636C8.27907 0.106818 8.42735 0 8.59484 0H12.7083C12.8758 0 13.0233 0.106818 13.0747 0.263636L14.3931 4.32652C14.43 4.44167 14.4093 4.56742 14.3378 4.66515C14.2641 4.76288 14.1488 4.82045 14.0267 4.82045ZM7.80196 4.06288H13.5004L12.4278 0.757576H8.87526L7.80196 4.06288Z" fill="#969696"/>
<path d="M10.6516 9.04545C10.4395 9.04545 10.2674 8.87576 10.2674 8.66667V4.44167C10.2674 4.23258 10.4395 4.06288 10.6516 4.06288C10.8636 4.06288 11.0357 4.23258 11.0357 4.44167V8.66667C11.0357 8.87651 10.8644 9.04545 10.6516 9.04545Z" fill="#969696"/>
<path d="M12.6307 6.12045C12.4186 6.12045 12.2465 5.95076 12.2465 5.74167V4.44167C12.2465 4.23258 12.4186 4.06288 12.6307 4.06288C12.8427 4.06288 13.0148 4.23258 13.0148 4.44167V5.74167C13.0148 5.95076 12.8427 6.12045 12.6307 6.12045Z" fill="#969696"/>
</g>
<defs>
<clipPath id="clip0">
<rect width="25" height="25" fill="white"/>
</clipPath>
</defs>
</svg>
