<svg width="25" height="25" viewBox="0 0 25 25" fill="none" xmlns="http://www.w3.org/2000/svg">
<path d="M2.54522 15.3553V15.3053H2.49522H1.40777C0.659111 15.3053 0.05 14.6961 0.05 13.9475V3.88614C0.05 3.13753 0.659109 2.52842 1.40777 2.52842H18.1783C18.9269 2.52842 19.536 3.13753 19.536 3.88614V7.74626C19.536 8.04437 19.2943 8.28601 18.9962 8.28601C18.6982 8.28601 18.4565 8.04437 18.4565 7.74626V3.88614C18.4565 3.7327 18.3318 3.60792 18.1783 3.60792H1.40777C1.25433 3.60792 1.12954 3.73264 1.12954 3.88614V13.9475C1.12954 14.101 1.25427 14.2258 1.40777 14.2258H3.08467C3.36604 14.2258 3.59695 14.4412 3.62187 14.7162C3.62187 14.7163 3.62188 14.7165 3.62188 14.7167L3.62196 14.7233L3.62213 14.749L3.62246 14.8449L3.62305 15.1826C3.62341 15.4612 3.62372 15.8312 3.62396 16.2008L3.62452 17.2161L3.62467 17.5504L3.6247 17.644L3.62471 17.6686L3.62471 17.675L3.62471 17.6766V17.677V17.6771L3.67471 17.6771L3.62471 17.6771L3.62476 17.7978L3.71007 17.7124L7.03863 14.3839C7.03864 14.3839 7.03864 14.3839 7.03864 14.3839C7.13449 14.2881 7.25746 14.2363 7.3831 14.2276C7.3834 14.2276 7.38409 14.2276 7.3853 14.2276L7.39522 14.2275L7.43197 14.2273L7.56025 14.2269L7.94448 14.2263L8.32657 14.2259L8.45223 14.2258L8.48741 14.2258L8.49668 14.2258L8.49905 14.2258H8.49966L8.49981 14.2258H8.49982C8.49983 14.2258 8.49984 14.2258 8.49984 14.2258C8.79786 14.2258 9.03957 14.4674 9.03957 14.7656C9.03957 15.0637 8.79794 15.3053 8.49982 15.3053H7.66466H7.64395L7.62931 15.32L3.46666 19.4826C3.36338 19.5858 3.2254 19.6407 3.08487 19.6407C3.01533 19.6407 2.94519 19.6273 2.87845 19.5996L2.87842 19.5996C2.67669 19.516 2.54522 19.3191 2.54522 19.1009V15.3553Z" fill="#969696" stroke="white" stroke-width="0.1"/>
<path d="M19.2379 19.336L19.2233 19.3213H19.2026H11.8532C11.1046 19.3213 10.4955 18.7122 10.4955 17.9636V11.0998C10.4955 10.3511 11.1046 9.74202 11.8532 9.74202H23.5923C24.3409 9.74202 24.95 10.3511 24.95 11.0997V17.9635C24.95 18.7122 24.3408 19.3213 23.5922 19.3213H23.1869H23.1369V19.3713V21.9318C23.1369 22.1502 23.0054 22.3469 22.8037 22.4305C22.7369 22.4582 22.6668 22.4716 22.5973 22.4716C22.4568 22.4716 22.3187 22.4168 22.2155 22.3135L19.2379 19.336ZM22.0597 18.7419L22.0598 18.7399L22.0597 18.7419ZM21.9721 20.5434L22.0574 20.6287L22.0575 20.5081L22.0075 20.5081L22.0575 20.5081V20.508V20.5078L22.0575 20.5068L22.0575 20.503L22.0575 20.4883L22.0575 20.4325L22.0576 20.233L22.0581 19.6269L22.0589 19.0185L22.0594 18.8161L22.0597 18.7584L22.0598 18.7429L22.0599 18.7391C22.0816 18.4608 22.3137 18.2418 22.5974 18.2418H23.5923C23.7458 18.2418 23.8706 18.117 23.8706 17.9636V11.0997C23.8706 10.9463 23.7458 10.8215 23.5923 10.8215H11.8532C11.6998 10.8215 11.575 10.9462 11.575 11.0997V17.9635C11.575 18.117 11.6997 18.2417 11.8532 18.2417H19.4472C19.5833 18.2417 19.7073 18.2925 19.8025 18.376L19.803 18.3765C19.8098 18.3822 19.8169 18.3886 19.8244 18.3959L19.8284 18.3997L19.8308 18.402L21.9721 20.5434Z" fill="#969696" stroke="white" stroke-width="0.1"/>
<path d="M17.1831 14.5317C17.1831 14.2337 17.425 13.9919 17.7229 13.9919C18.0208 13.9919 18.2626 14.2337 18.2626 14.5317C18.2626 14.8296 18.0208 15.0714 17.7229 15.0714C17.425 15.0714 17.1831 14.8296 17.1831 14.5317Z" fill="#969696" stroke="white" stroke-width="0.1"/>
<path d="M4.42628 6.4275H15.1598C15.4579 6.4275 15.6995 6.66913 15.6995 6.96725C15.6995 7.26537 15.4579 7.507 15.1598 7.507H4.42628C4.12825 7.507 3.88653 7.26536 3.88653 6.96725C3.88653 6.66913 4.12821 6.4275 4.42628 6.4275Z" fill="#969696" stroke="white" stroke-width="0.1"/>
<path d="M4.42628 10.3266H8.49978C8.79785 10.3266 9.03953 10.5683 9.03953 10.8664C9.03953 11.1645 8.7979 11.4061 8.49978 11.4061H4.42628C4.12825 11.4061 3.88653 11.1645 3.88653 10.8664C3.88653 10.5683 4.12821 10.3266 4.42628 10.3266Z" fill="#969696" stroke="white" stroke-width="0.1"/>
<path d="M14.4426 14.5317C14.4426 14.2338 14.6844 13.9919 14.9823 13.9919C15.2803 13.9919 15.5221 14.2337 15.5221 14.5317C15.5221 14.8296 15.2803 15.0714 14.9823 15.0714C14.6844 15.0714 14.4426 14.8296 14.4426 14.5317Z" fill="#969696" stroke="white" stroke-width="0.1"/>
<path d="M19.9231 14.5317C19.9231 14.2337 20.165 13.9919 20.4629 13.9919C20.7608 13.9919 21.0026 14.2337 21.0026 14.5317C21.0026 14.8296 20.7609 15.0714 20.4629 15.0714C20.165 15.0714 19.9231 14.8296 19.9231 14.5317Z" fill="#969696" stroke="white" stroke-width="0.1"/>
</svg>
