<svg width="25" height="25" viewBox="0 0 25 25" fill="none" xmlns="http://www.w3.org/2000/svg">
<g clip-path="url(#clip0)">
<path d="M25 1.70313C25.0019 1.24664 24.8257 0.818075 24.504 0.496298C24.1822 0.17452 23.7528 -0.00135859 23.2972 0.000301563C22.842 0.00220586 22.4135 0.181063 22.0906 0.503915C21.9539 0.640633 21.7052 0.935946 21.5691 1.09986C21.4263 1.27198 21.4499 1.52735 21.622 1.67017C21.7941 1.81305 22.0495 1.78941 22.1923 1.61729C22.4054 1.36065 22.5815 1.15855 22.6633 1.07672C22.8341 0.905965 23.0604 0.811336 23.3005 0.810311C23.3019 0.810311 23.3031 0.810311 23.3044 0.810311C23.5418 0.810311 23.7643 0.902108 23.9312 1.06905C24.099 1.23687 24.191 1.46085 24.1899 1.69972C24.1889 1.9398 24.0943 2.16607 23.9235 2.33692C23.7707 2.4898 23.2452 2.90665 22.4923 3.43258C22.0469 2.67115 21.2209 2.15821 20.277 2.15821H14.3461C13.5455 2.15821 12.7929 2.46998 12.2267 3.03604L0.371729 14.8912C0.132031 15.1309 0 15.4496 0 15.7885C0 16.1275 0.132031 16.4462 0.371729 16.6859L8.31445 24.6286C8.56191 24.876 8.88682 24.9997 9.21182 24.9997C9.53682 24.9997 9.86182 24.876 10.1092 24.6286L21.9643 12.7736C22.5303 12.2075 22.8421 11.4548 22.8421 10.6542V4.7234C22.8421 4.54835 22.8244 4.37745 22.7908 4.21217C23.6478 3.62247 24.2769 3.12916 24.4963 2.90972C24.8192 2.58687 24.9981 2.15836 25 1.70313ZM22.0321 10.6542C22.0321 11.2384 21.8045 11.7877 21.3915 12.2007L9.53643 24.0559C9.35752 24.2348 9.06621 24.2348 8.88726 24.0559L0.944531 16.1131C0.857861 16.0265 0.810059 15.9112 0.810059 15.7885C0.810059 15.6659 0.857812 15.5506 0.944531 15.464L12.7996 3.60894C13.2127 3.19586 13.7619 2.96837 14.3461 2.96837H20.2769C20.9429 2.96837 21.5235 3.34127 21.8208 3.88922C21.3423 4.20601 20.8066 4.54288 20.2383 4.87413C20.2206 4.85469 20.2025 4.83546 20.1837 4.81666C19.5204 4.15338 18.4412 4.15338 17.7779 4.81666C17.1146 5.47994 17.1146 6.55914 17.7779 7.22242C18.1096 7.55406 18.5452 7.71983 18.9808 7.71983C19.4164 7.71983 19.8521 7.55406 20.1837 7.22242C20.6264 6.77969 20.7731 6.15181 20.6249 5.58585C21.1192 5.2981 21.5938 5.00401 22.0319 4.71949C22.0319 4.72086 22.032 4.72213 22.032 4.72345V10.6542H22.0321ZM18.6191 6.20152C18.6902 6.34298 18.833 6.42462 18.9812 6.42462C19.0424 6.42462 19.1046 6.4107 19.163 6.38131C19.4004 6.26187 19.637 6.13765 19.8712 6.01041C19.8735 6.24161 19.7871 6.47354 19.611 6.64962C19.2636 6.99703 18.6983 6.99703 18.3509 6.64962C18.0035 6.30216 18.0035 5.73692 18.3509 5.38946C18.5246 5.21573 18.7528 5.12891 18.981 5.12891C19.1616 5.12891 19.3417 5.18428 19.4954 5.29312C19.2662 5.41773 19.0335 5.53975 18.799 5.65777C18.599 5.75821 18.5185 6.00172 18.6191 6.20152Z" fill="#969696" stroke="#727272" stroke-width="0.2"/>
<path d="M12.0685 8.25009C11.8448 8.25009 11.6634 8.43139 11.6634 8.65512V17.2088C11.6634 17.4325 11.8448 17.6138 12.0685 17.6138C12.2921 17.6138 12.4735 17.4325 12.4735 17.2088V8.65512C12.4735 8.43139 12.2921 8.25009 12.0685 8.25009Z" fill="#969696"/>
<path d="M10.2164 11.7292C9.55313 11.0658 8.47388 11.0658 7.81069 11.7291C7.14741 12.3924 7.14741 13.4716 7.81069 14.1349C8.14238 14.4666 8.57793 14.6323 9.01357 14.6323C9.44912 14.6323 9.88481 14.4664 10.2164 14.1349C10.5377 13.8135 10.7147 13.3864 10.7147 12.932C10.7147 12.4776 10.5377 12.0504 10.2164 11.7292ZM9.6436 13.562C9.29614 13.9095 8.73091 13.9094 8.3835 13.562C8.03608 13.2146 8.03608 12.6493 8.3835 12.3019C8.55723 12.1281 8.7854 12.0413 9.01357 12.0413C9.24175 12.0413 9.46992 12.1281 9.64365 12.3019C9.81196 12.4702 9.90464 12.6939 9.90464 12.9319C9.90459 13.17 9.81191 13.3937 9.6436 13.562Z" fill="#969696"/>
<path d="M16.3262 11.7291C15.6629 11.0658 14.5836 11.0658 13.9205 11.7291C13.2572 12.3924 13.2572 13.4716 13.9205 14.1349C14.2522 14.4665 14.6877 14.6323 15.1234 14.6323C15.559 14.6323 15.9946 14.4665 16.3262 14.1349C16.9895 13.4716 16.9895 12.3924 16.3262 11.7291ZM15.7534 13.562C15.4059 13.9095 14.8407 13.9094 14.4933 13.562C14.1459 13.2146 14.1459 12.6493 14.4933 12.3019C14.667 12.1281 14.8952 12.0413 15.1233 12.0413C15.3515 12.0413 15.5797 12.1281 15.7534 12.3019C16.1008 12.6493 16.1008 13.2146 15.7534 13.562Z" fill="#969696"/>
</g>
<defs>
<clipPath id="clip0">
<rect width="25" height="25" fill="white"/>
</clipPath>
</defs>
</svg>
