<svg width="19" height="25" viewBox="0 0 19 25" fill="none" xmlns="http://www.w3.org/2000/svg">
<path d="M16.5369 0H2.47662C1.84764 0 1.33594 0.673103 1.33594 1.50051V23.4993C1.33594 24.3267 1.84764 25 2.47662 25H16.5369C17.1657 25 17.6773 24.3267 17.6773 23.4993V1.50051C17.6773 0.673103 17.1657 0 16.5369 0V0ZM2.47662 1.46484H16.5369C16.5505 1.46484 16.564 1.48258 16.564 1.50051V6.72474H2.44922V1.50051C2.44922 1.48258 2.4627 1.46484 2.47662 1.46484V1.46484ZM16.5369 23.5352H2.47662C2.46284 23.5352 2.44922 23.5174 2.44922 23.4993V8.18958H16.564V23.4993C16.564 23.5174 16.5505 23.5352 16.5369 23.5352V23.5352Z" fill="#969696"/>
<path d="M14.85 4.7C15.3187 4.7 15.7 4.31872 15.7 3.85C15.7 3.38128 15.3187 3 14.85 3C14.3813 3 14 3.38128 14 3.85C14 4.31872 14.3813 4.7 14.85 4.7V4.7Z" fill="#969696"/>
<path d="M11.85 4.7C12.3187 4.7 12.7 4.31872 12.7 3.85C12.7 3.38128 12.3187 3 11.85 3C11.3813 3 11 3.38128 11 3.85C11 4.31872 11.3813 4.7 11.85 4.7Z" fill="#969696"/>
<circle cx="9.5" cy="15.5" r="4" stroke="black" stroke-opacity="0.5"/>
<rect x="4" y="3" width="4" height="2" rx="0.5" fill="#969696"/>
</svg>
