<svg width="25" height="25" viewBox="0 0 25 25" fill="none" xmlns="http://www.w3.org/2000/svg">
<g clip-path="url(#clip0)">
<path d="M3.69301 23.8926L5.52444 24.9359C5.67436 25.0214 5.85823 25.0214 6.00815 24.9359L7.83958 23.8926C9.31339 23.053 10.2287 21.4779 10.2287 19.7817L10.2287 15.7003C10.2287 15.4305 10.01 15.2117 9.74026 15.2117L7.4276 15.2117L7.4276 12.4918C7.4276 12.3322 7.35054 12.1908 7.23209 12.1017L7.2321 4.53587C7.2321 4.26598 6.74343 4.73633 6.74343 4.73633C6.74343 4.73633 6.25496 0.627136 6.25496 4.53587L6.25496 12.0033L5.27763 12.0033L5.27764 1.4658C5.27764 1.19629 5.49698 0.977134 5.7663 0.977134C6.03581 0.977134 6.25496 1.19629 6.25496 1.4658L6.25496 4.53587C6.25496 4.80576 6.47373 5.02453 6.74343 5.02453C7.01332 5.02453 7.2321 4.80576 7.2321 4.53587L7.2321 1.4658C7.2321 0.657463 6.57463 -3.19451e-07 5.7663 -3.90118e-07C4.95815 -4.60768e-07 4.3005 0.657463 4.3005 1.4658L4.3005 12.1017C4.18205 12.1908 4.105 12.3322 4.105 12.4918L4.105 15.2117L1.79234 15.2117C1.52264 15.2117 1.30386 15.4304 1.30386 15.7003L1.30386 19.7819C1.30386 21.4779 2.2192 23.053 3.69301 23.8926ZM5.08232 12.9805L6.45027 12.9805L6.45027 15.2117L5.08232 15.2117L5.08232 12.9805ZM2.281 16.189L9.25179 16.189L9.25179 19.7819C9.25179 21.1275 8.52528 22.3774 7.35588 23.0436L5.7663 23.9491L4.17671 23.0434C3.00732 22.3774 2.281 21.1275 2.281 19.7817L2.281 16.189Z" fill="#969696"/>
<path d="M22.2159 1.62317e-06C21.4075 1.48184e-06 20.7501 0.657464 20.7501 1.4658L20.7501 6.85673L19.7727 6.85673L19.7727 1.4658C19.7727 0.657464 19.1153 1.08105e-06 18.3069 9.39712e-07C17.4988 7.98412e-07 16.8411 0.657464 16.8411 1.4658L16.8411 6.85673L15.864 6.85673L15.864 1.4658C15.864 0.657464 15.2065 3.97622e-07 14.3982 2.56288e-07C13.5899 1.14954e-07 12.9324 0.657463 12.9324 1.4658L12.9324 7.3452C12.9324 8.69236 14.0284 9.78832 15.3753 9.78832L16.6458 9.78832L16.6458 12.5082C16.6458 12.6678 16.7227 12.8092 16.8411 12.8983L16.8411 23.5342C16.8411 24.3425 17.4988 25 18.3069 25C19.1153 25 19.7727 24.3425 19.7727 23.5342L19.7727 12.8983C19.8914 12.8092 19.9682 12.6678 19.9682 12.5082L19.9682 9.78832L21.2385 9.78832C22.5857 9.78832 23.6816 8.69236 23.6816 7.3452L23.6816 1.4658C23.6816 0.657465 23.024 1.76447e-06 22.2159 1.62317e-06V1.62317e-06ZM18.7956 23.5342C18.7956 23.8037 18.5764 24.0229 18.3069 24.0229C18.0376 24.0229 17.8185 23.8037 17.8185 23.5342L17.8185 12.9967L18.7956 12.9967L18.7956 23.5342ZM18.9911 12.0195L17.623 12.0195L17.623 9.78832L18.9911 9.78832L18.9911 12.0195ZM22.7043 7.3452C22.7043 8.15354 22.0469 8.811 21.2385 8.811L15.3753 8.811C14.5672 8.811 13.9095 8.15353 13.9095 7.3452L13.9095 1.4658C13.9095 1.19629 14.1287 0.977135 14.3982 0.977135C14.6677 0.977135 14.8869 1.19629 14.8869 1.4658L14.8869 7.3452C14.8869 7.61509 15.1056 7.83386 15.3753 7.83386L17.3298 7.83386C17.5997 7.83386 17.8185 7.61509 17.8185 7.3452L17.8185 1.4658C17.8185 1.19629 18.0376 0.977136 18.3069 0.977136C18.5764 0.977136 18.7956 1.19629 18.7956 1.4658L18.7956 7.3452C18.7956 7.61509 19.0144 7.83386 19.2843 7.83386L21.2385 7.83386C21.5084 7.83386 21.7272 7.61509 21.7272 7.3452L21.7272 1.4658C21.7272 1.19629 21.9463 0.977136 22.2159 0.977136C22.4852 0.977136 22.7043 1.19629 22.7043 1.4658L22.7043 7.3452Z" fill="#969696"/>
</g>
<defs>
<clipPath id="clip0">
<rect width="25" height="25" fill="white" transform="translate(25 25) rotate(-180)"/>
</clipPath>
</defs>
</svg>
