<svg width="25" height="25" viewBox="0 0 25 25" fill="none" xmlns="http://www.w3.org/2000/svg">
<g clip-path="url(#clip0)">
<path d="M24.502 7.11142H22.7036C22.4623 5.94321 21.4257 5.06225 20.187 5.06225H17.6582C17.5707 4.91909 17.4135 4.82319 17.2334 4.82319H15.4727C15.3322 4.43159 14.9583 4.15019 14.519 4.15019H1.9786C0.986514 4.15019 0.179434 4.95727 0.179434 5.94936C0.179434 6.72256 0.669669 7.38344 1.35575 7.63735L0.0178133 12.5025C0.00423911 12.552 -0.00166909 12.6032 0.000381687 12.6544L0.25087 18.942C0.299747 20.0118 1.1769 20.8498 2.24784 20.8498C3.4873 20.8498 4.49565 19.8414 4.49565 18.6019V16.6322L5.12372 16.3074C5.2891 16.2219 5.39296 16.0512 5.39296 15.865V14.2992H5.62748V14.878C5.62748 15.153 5.85043 15.376 6.12548 15.376C6.40053 15.376 6.62348 15.153 6.62348 14.878V14.2992H11.4231C13.6049 14.2992 15.3942 12.5901 15.5246 10.4406H17.2335C17.4135 10.4406 17.5708 10.3448 17.6583 10.2016H20.1871C21.4414 10.2016 22.4881 9.2979 22.7119 8.10747H24.502C24.7771 8.10747 25 7.88447 25 7.60947C25 7.33447 24.777 7.11142 24.502 7.11142ZM11.4232 13.3031H4.89501C4.61996 13.3031 4.39701 13.5261 4.39701 13.8011V15.5619L3.76894 15.8868C3.60356 15.9723 3.4997 16.1429 3.4997 16.3291V18.6019C3.4997 19.2921 2.93813 19.8537 2.24784 19.8537C1.71054 19.8537 1.27045 19.4333 1.24604 18.8994L0.998722 12.692L2.35819 7.74848H8.03573C8.31078 7.74848 8.53373 7.52549 8.53373 7.25049C8.53373 6.97549 8.31078 6.75249 8.03573 6.75249H1.9786C1.53573 6.75249 1.17548 6.39223 1.17548 5.94936C1.17548 5.50649 1.53578 5.14624 1.9786 5.14624H14.519C14.5289 5.14624 14.537 5.15429 14.537 5.16416V10.1894C14.537 11.9063 13.1401 13.3031 11.4232 13.3031ZM16.7355 9.44453H15.533V5.81924H16.7355V9.44453ZM20.187 9.20551H17.7315V6.05825H20.187C21.0547 6.05825 21.7606 6.76416 21.7606 7.63188C21.7606 8.49956 21.0547 9.20551 20.187 9.20551Z" fill="#969696"/>
<path d="M9.96504 6.75247H9.6958C9.42075 6.75247 9.1978 6.97547 9.1978 7.25047C9.1978 7.52547 9.42075 7.74847 9.6958 7.74847H9.96504C10.2401 7.74847 10.463 7.52547 10.463 7.25047C10.463 6.97552 10.2401 6.75247 9.96504 6.75247Z" fill="#969696"/>
<path d="M11.4007 11.9023H9.7855C9.51046 11.9023 9.28751 12.1253 9.28751 12.4003C9.28751 12.6753 9.51046 12.8983 9.7855 12.8983H11.4007C11.6758 12.8983 11.8987 12.6753 11.8987 12.4003C11.8987 12.1254 11.6758 11.9023 11.4007 11.9023Z" fill="#969696"/>
<path d="M11.4007 10.5115H9.7855C9.51046 10.5115 9.28751 10.7345 9.28751 11.0095C9.28751 11.2845 9.51046 11.5075 9.7855 11.5075H11.4007C11.6758 11.5075 11.8987 11.2845 11.8987 11.0095C11.8987 10.7345 11.6758 10.5115 11.4007 10.5115Z" fill="#969696"/>
<path d="M11.4007 9.12061H9.7855C9.51046 9.12061 9.28751 9.3436 9.28751 9.6186C9.28751 9.8936 9.51046 10.1166 9.7855 10.1166H11.4007C11.6758 10.1166 11.8987 9.8936 11.8987 9.6186C11.8987 9.3436 11.6758 9.12061 11.4007 9.12061Z" fill="#969696"/>
</g>
<defs>
<clipPath id="clip0">
<rect width="25" height="25" fill="white"/>
</clipPath>
</defs>
</svg>
