<svg width="23" height="25" viewBox="0 0 23 25" fill="none" xmlns="http://www.w3.org/2000/svg">
<g clip-path="url(#clip0)">
<path d="M21.4781 19.2819L21.3254 19.5143H21.6035H22.7466C22.7267 19.529 22.7068 19.5439 22.6868 19.559C22.565 19.6506 22.4371 19.7468 22.2462 19.8309C22.0089 19.9355 21.6706 20.0212 21.1439 20.0212V20.0209L21.1349 20.0215C21.1351 20.0215 21.0232 20.0215 20.8157 20.0214C20.3403 20.0214 19.3632 20.0214 18.0839 20.0212L11.3729 20.0198L4.66589 20.0183L2.45613 20.0177L1.83706 20.0175L1.67396 20.0175L1.63215 20.0175L1.62156 20.0175L1.6189 20.0175H1.61823C1.6182 20.0175 1.61818 20.0175 1.61815 20.0186L1.61801 20.0186L1.61801 20.0175L1.59953 20.0175C1.59479 20.0172 1.5894 20.0168 1.58341 20.0163C1.55578 20.0143 1.51528 20.0108 1.46503 20.0051C1.36432 19.9936 1.22554 19.9732 1.07332 19.9379C0.764617 19.8662 0.429468 19.7392 0.228942 19.5254H1.3919H1.67366L1.51635 19.2916C1.40919 19.1324 1.34392 18.9381 1.34392 18.7265V5.93183C1.34392 5.39456 1.74363 4.9788 2.20871 4.9788H20.7781C21.2434 4.9788 21.6432 5.39442 21.6432 5.93183V18.7265C21.6432 18.9343 21.581 19.1254 21.4781 19.2819ZM12.7973 19.7833H12.9476L12.9473 19.633L12.9469 19.44L12.9466 19.2903H12.7969H10.1842H10.0342V19.4403V19.6333V19.7833H10.1842H12.7973ZM1.76284 18.4729V18.6229H1.91284H21.044H21.0442H21.1942V18.4729V5.57251V5.42251H21.0442H1.91284H1.76284V5.57251V18.4729Z" fill="#969696" stroke="#727272" stroke-width="0.3"/>
</g>
<defs>
<clipPath id="clip0">
<rect width="23" height="25" fill="white"/>
</clipPath>
</defs>
</svg>
