<svg width="25" height="25" viewBox="0 0 25 25" fill="none" xmlns="http://www.w3.org/2000/svg">
<path d="M11.1843 1.5192V1.6192H11.2843H13.851C18.002 1.6192 21.3792 4.99641 21.3792 9.14745V10.9531H21.4792L21.4677 11.0525C22.731 11.1993 23.715 12.2756 23.715 13.5775V15.8422C23.715 17.2442 22.5743 18.3851 21.1721 18.3851H20.318C18.916 18.3851 17.7752 17.2444 17.7752 15.8422V13.5775C17.7752 12.2756 18.7592 11.1993 20.0225 11.0525L20.111 11.0422V10.9531V9.14745C20.111 5.69562 17.3028 2.88748 13.851 2.88748H11.2843H11.1843V2.98748V4.40668H9.76506H9.66506V4.50668V5.99499V6.09499H9.76506H13.191V9.5232V9.55545L13.2098 9.58162L14.7565 11.7304C15.8685 13.2754 16.5287 15.0956 16.6657 16.994C16.8026 18.8926 16.4103 20.7886 15.5313 22.4771L15.62 22.5233L15.5313 22.4771L14.2704 24.9H3.79165L2.5305 22.4771C1.65155 20.7886 1.25922 18.8926 1.39617 16.994C1.53312 15.0956 2.19331 13.2754 3.30535 11.7304L4.85221 9.58162L4.87105 9.55545V9.5232V6.09499H8.29678H8.39678V5.99499V4.50668V4.40668H8.29678H6.87758V0.1H11.1843V1.5192ZM15.4163 18.1201L15.4194 18.0232C15.4292 17.7114 15.4233 17.3984 15.4007 17.0853L15.3009 17.0925L15.4007 17.0853C15.38 16.7996 15.3449 16.5163 15.2977 16.2359L15.2837 16.1525H15.1991H12.0043L11.8268 15.81L11.738 15.856L11.8268 15.81C11.2829 14.7601 10.2115 14.1073 9.03092 14.1073C7.85038 14.1073 6.77898 14.7601 6.23503 15.81L6.32382 15.856L6.23503 15.81L6.05758 16.1525H2.86274H2.77818L2.76413 16.2359C2.71692 16.5163 2.68181 16.7996 2.66115 17.0853L2.66115 17.0853C2.63858 17.3984 2.6326 17.7114 2.64263 18.0233L2.64575 18.1201H2.74258H5.97564L6.14106 18.5025C6.6402 19.6563 7.77449 20.402 9.03092 20.402C10.2873 20.402 11.4216 19.6563 11.9208 18.5025L12.0862 18.1201H15.3194H15.4163ZM13.4399 23.6317H13.5006L13.5286 23.5779L14.4064 21.8916C14.7995 21.1365 15.0807 20.3339 15.2468 19.508L15.2708 19.3883H15.1487H12.9559H12.8977L12.8689 19.4389C12.0897 20.8086 10.631 21.6703 9.03092 21.6703C7.43083 21.6703 5.97214 20.8086 5.1929 19.4389L5.16414 19.3883H5.10598H2.9131H2.79099L2.81506 19.508C2.98112 20.3339 3.26233 21.1365 3.65543 21.8916L4.53319 23.5779L4.56121 23.6317H4.62189H13.4399ZM14.8207 14.8842H14.9617L14.915 14.7511C14.6313 13.9425 14.2332 13.1744 13.7273 12.4713L13.7273 12.4713L12.2603 10.4335L12.2304 10.3919H12.1792H5.88284H5.83161L5.80168 10.4335L4.33474 12.4715C3.82879 13.1744 3.4305 13.9425 3.1468 14.7511L3.1001 14.8842H3.24116H5.25113H5.30528L5.33488 14.8389C6.1464 13.595 7.52508 12.839 9.03092 12.839C10.5368 12.839 11.9154 13.595 12.727 14.8389L12.7566 14.8842H12.8107H14.8207ZM11.8227 9.12367H11.9227V9.02367V7.46346V7.36346H11.8227H6.23932H6.13932V7.46346V9.02367V9.12367H6.23932H11.8227ZM9.81598 3.13841H9.91598V3.03841V1.46828V1.36828H9.81598H8.24585H8.14585V1.46828V3.03841V3.13841H8.24585H9.81598ZM21.1721 17.1168C21.8751 17.1168 22.4467 16.5452 22.4467 15.8422V13.5775C22.4467 12.8747 21.8751 12.3029 21.1721 12.3029H20.318C19.6151 12.3029 19.0435 12.8747 19.0435 13.5775V15.8422C19.0435 16.5452 19.6151 17.1168 20.318 17.1168H21.1721Z" fill="#969696" stroke="white" stroke-width="0.2"/>
</svg>
