<svg width="25" height="25" viewBox="0 0 25 25" fill="none" xmlns="http://www.w3.org/2000/svg">
<g clip-path="url(#clip0)">
<path d="M14.8139 2.98446L14.8139 2.98444C14.8577 2.7031 15.0947 2.51042 15.3976 2.51042H15.4225H15.5834L24.4443 4.81561C24.776 4.90189 24.9609 5.22965 24.8817 5.53667C24.8817 5.53694 24.8816 5.53722 24.8815 5.5375L23.3803 10.922L23.3803 10.922L23.3799 10.9237C23.3674 10.9715 23.3311 11.027 23.2676 11.0857C23.205 11.1435 23.1225 11.1983 23.0302 11.2459C22.8475 11.3402 22.6438 11.3973 22.5095 11.3999L19.7858 10.8508L19.6661 10.8267V10.9488V21.9071C19.6661 22.2319 19.3929 22.4896 19.0587 22.4896H5.91617C5.5867 22.4896 5.33361 22.2365 5.33361 21.9071V10.9488V10.8303L5.21681 10.8503L1.99179 11.4C1.84008 11.3984 1.62758 11.3537 1.44364 11.2733C1.35052 11.2326 1.26875 11.1845 1.20726 11.1316C1.14662 11.0795 1.11112 11.0275 1.09772 10.9784L0.119752 5.5449L0.120002 5.54486L0.11824 5.53793C0.0388839 5.22635 0.22552 4.89493 0.53049 4.81561L0.530496 4.81561L9.39145 2.51042H9.55235H9.6021C9.89249 2.51042 10.1373 2.70196 10.1861 2.98597C10.2698 3.47351 10.5307 3.86847 10.9835 4.19202L10.9835 4.19204C11.4358 4.51506 11.9403 4.66977 12.506 4.66977C13.0721 4.66977 13.5747 4.51201 14.0169 4.19163L14.0169 4.19162C14.4656 3.86637 14.7372 3.47587 14.8139 2.98446ZM22.4802 10.3643L22.5763 10.3837L22.5976 10.288L23.5743 5.90713L23.5953 5.81279L23.5017 5.78856L15.8818 3.81532L15.8 3.79416L15.7655 3.87118C15.5014 4.45958 15.0688 4.94155 14.4755 5.31687C13.8843 5.69089 13.2329 5.87221 12.5059 5.87221C11.7663 5.87221 11.1026 5.69059 10.5118 5.31687L10.4583 5.40138L10.5118 5.31687C9.91925 4.94209 9.49868 4.46044 9.23392 3.87115L9.19934 3.79417L9.11764 3.81532L1.49769 5.78856L1.40848 5.81166L1.42423 5.90246L2.18412 10.2834L2.20151 10.3836L2.30144 10.3645L5.92529 9.67137C6.24797 9.67621 6.49868 9.93754 6.49868 10.2663V21.2122V21.3122H6.59868H18.3761H18.4761V21.2122V10.2663C18.4761 9.94028 18.7483 9.67687 19.0491 9.67139L22.4802 10.3643Z" fill="#969696" stroke="white" stroke-width="0.2"/>
<circle cx="12.5" cy="9.5" r="0.5" fill="#969696"/>
<circle cx="12.5" cy="12.5" r="0.5" fill="#969696"/>
</g>
<defs>
<clipPath id="clip0">
<rect width="25" height="25" fill="white"/>
</clipPath>
</defs>
</svg>
