<svg width="25" height="25" viewBox="0 0 25 25" fill="none" xmlns="http://www.w3.org/2000/svg">
<g clip-path="url(#clip0)">
<path d="M19.7426 0.605337C19.2178 0.582258 18.7076 0.676481 18.224 0.810759C18.1309 0.682013 18.0191 0.565664 17.8786 0.467245C17.3712 0.111905 16.6925 0.139562 16.0954 0.213376C15.8974 0.237981 15.6727 0.277845 15.5102 0.441496C15.2792 0.674193 15.3333 0.988143 15.3942 1.20406C15.451 1.4049 15.5201 1.60193 15.595 1.79629C15.2449 2.10223 15.0314 2.5331 15.0183 2.97446C15.0095 3.26991 15.0853 3.54953 15.1585 3.8198C15.2404 4.12173 15.3177 4.40707 15.2649 4.67563C15.2312 4.84691 15.1404 5.00274 15.0139 5.11756C14.9532 4.89192 14.8326 4.7092 14.6568 4.58446C14.4382 4.42958 14.1421 4.36511 13.7768 4.39296C13.4883 4.41489 13.2158 4.48241 12.9524 4.54765C12.8385 4.57587 12.7309 4.60258 12.6218 4.62585C12.2083 4.71416 11.9023 4.71397 11.6587 4.62508C11.5858 4.59838 11.5001 4.55566 11.4096 4.51064C11.0883 4.35023 10.648 4.13089 10.2117 4.39105C10.0125 4.50988 9.87478 4.71225 9.77961 4.92797C9.66127 4.80952 9.59388 4.64225 9.56988 4.50263C9.53114 4.27547 9.56272 4.0359 9.59599 3.78222C9.60441 3.71852 9.61263 3.655 9.62 3.59168C9.67179 3.14021 9.65137 2.80013 9.55388 2.48942C9.4467 2.148 9.23676 1.85713 8.96324 1.66449C9.09295 1.45564 9.21992 1.24068 9.31425 1.01599C9.4069 0.795691 9.37174 0.569288 9.21529 0.378362C9.01525 0.134412 8.62759 -0.0206561 8.27258 0.00223215C7.89145 0.0262648 7.50969 0.208036 7.13783 0.542776C7.05592 0.6164 6.97843 0.693075 6.90473 0.771849C6.44528 0.549642 5.95002 0.38809 5.43919 0.295965C5.29284 0.269643 5.15008 0.355855 5.12102 0.488607C5.09196 0.621359 5.18714 0.750487 5.33369 0.776808C5.76515 0.854437 6.18396 0.987761 6.57541 1.16915C6.21365 1.66182 5.96919 2.19531 5.7862 2.64487C5.27179 3.90792 5.00732 5.11565 5.00016 6.23451C4.99152 7.55611 5.34085 8.78884 6.01004 9.79954C6.89042 11.129 8.39197 12.1435 10.1294 12.5826C10.2704 12.6182 10.4132 12.6491 10.5568 12.6774C10.4248 13.598 10.2936 14.5212 10.1664 15.4255C9.88826 17.4026 9.57325 19.6434 9.50018 21.8744C9.48397 22.3738 9.48502 22.8607 9.67432 23.3261C9.90194 23.8853 10.4067 24.3725 11.0588 24.6626C11.5625 24.8867 12.1428 25 12.7867 25C12.8589 25 12.932 24.9985 13.0059 24.9956C13.3262 24.9834 13.7989 24.9403 14.2032 24.7107C14.5986 24.4862 14.8989 24.0967 15.0488 23.6141C15.1806 23.1897 15.1861 22.7474 15.1809 22.3661C15.1535 20.4004 14.7913 18.436 14.4409 16.5363C14.2093 15.2801 13.9709 13.9826 13.8318 12.6991C14.3154 12.6157 14.7959 12.4948 15.2655 12.3361C16.323 11.9791 17.1932 11.4816 17.8519 10.8577C19.0056 9.76521 19.6329 8.15521 19.6183 6.32492C19.6053 4.6844 19.1096 3.10111 18.6028 1.62005C18.5605 1.49645 18.5167 1.37476 18.4674 1.25708C18.8774 1.14893 19.2995 1.07683 19.7165 1.09476C19.8672 1.10125 19.9925 0.997107 19.9997 0.861876C20.0068 0.726836 19.8919 0.611822 19.7426 0.605337V0.605337ZM10.5094 4.80056C10.6619 4.70939 10.8527 4.79255 11.1487 4.93999C11.2494 4.99015 11.3534 5.04203 11.4566 5.07961C11.9192 5.2486 12.414 5.17383 12.7461 5.10288C12.8646 5.0777 12.9819 5.04852 13.0952 5.02048C13.346 4.9583 13.5831 4.89955 13.8221 4.88143C13.9768 4.86961 14.1893 4.87552 14.3232 4.97051C14.5224 5.11165 14.5281 5.42007 14.5136 5.59154C14.4814 5.97606 14.3373 6.319 14.108 6.55704C13.7162 6.96388 13.1173 7.06135 12.7951 7.08309C12.2755 7.11838 11.7461 7.02739 11.2043 6.92287C10.9013 6.86413 10.6347 6.80423 10.4456 6.66423C10.1603 6.45309 10.0879 6.07543 10.115 5.79257C10.1521 5.40595 10.2913 4.93064 10.5094 4.80056ZM9.08179 3.54094C9.07484 3.60198 9.06684 3.66301 9.05883 3.72424C9.02241 3.99947 8.98514 4.28424 9.03525 4.57778C9.08789 4.88544 9.26982 5.24822 9.62231 5.43971C9.59578 5.57151 9.5823 5.6829 9.57578 5.75023C9.52524 6.27819 9.72233 6.7617 10.103 7.0438C10.4092 7.27039 10.8036 7.34669 11.0916 7.40219C11.5821 7.49699 12.0653 7.58129 12.5591 7.58129C12.6509 7.58129 12.7429 7.57843 12.8356 7.57213C13.5344 7.52464 14.1312 7.27859 14.5157 6.87938C14.8842 6.49677 15.0095 6.03347 15.0471 5.69168C15.4308 5.52192 15.7182 5.1662 15.7978 4.76165C15.8707 4.39086 15.7757 4.04124 15.6841 3.70288C15.6163 3.45321 15.5523 3.21708 15.5592 2.98781C15.5664 2.74806 15.6565 2.5125 15.8098 2.31757C15.8382 2.38318 15.8665 2.44841 15.8947 2.51345C15.9939 2.741 16.0962 2.97637 16.1861 3.20849C16.4419 3.86977 16.6169 4.55794 16.7062 5.25394C16.8336 6.24691 16.7363 7.03426 16.4085 7.6614C16.1415 8.17257 15.6793 8.65112 15.0351 9.0839C13.8313 9.89281 12.3864 10.2707 11.0712 10.1209C9.63242 9.9569 8.36565 9.13655 7.84407 8.03047C7.50296 7.30758 7.43115 6.43936 7.61792 5.29819C7.7809 4.3035 8.08854 3.32827 8.53242 2.39939C8.58043 2.29907 8.63496 2.20008 8.69371 2.10051C8.84658 2.22869 8.96661 2.41046 9.03336 2.62351C9.11127 2.87146 9.12622 3.15451 9.08179 3.54094ZM14.5279 23.4816C14.4144 23.8466 14.1971 24.1356 13.9158 24.2954C13.6907 24.4232 13.3942 24.4902 12.9827 24.506C12.3513 24.5302 11.7684 24.4324 11.2974 24.2228C10.7686 23.9874 10.3622 23.5989 10.1822 23.1565C10.0605 22.8579 10.0342 22.5275 10.0352 22.1832C11.4915 21.6703 13.1954 21.6883 14.6363 22.234C14.6372 22.2801 14.6391 22.3263 14.6397 22.3722C14.6443 22.7194 14.6401 23.1199 14.5279 23.4816V23.4816ZM14.617 21.6999C13.1699 21.2112 11.5094 21.1962 10.0504 21.6564C10.1214 19.8894 10.3397 18.116 10.5648 16.48V16.4799C11.5684 16.0381 12.7913 15.971 13.8482 16.2966C13.8678 16.4036 13.8876 16.5106 13.9071 16.6172C14.2137 18.2802 14.5292 19.9932 14.617 21.6999ZM13.7498 15.7568C12.7275 15.502 11.6278 15.5576 10.6431 15.9143C10.6634 15.7709 10.6834 15.6284 10.7032 15.4875C10.8291 14.5914 10.9592 13.6766 11.09 12.7641C11.4652 12.8128 11.8467 12.8378 12.2317 12.8378C12.585 12.8378 12.9408 12.817 13.2963 12.7762C13.4056 13.7735 13.5725 14.7741 13.7498 15.7568ZM18.0858 1.7652C18.5807 3.21116 19.0646 4.75478 19.0772 6.32854C19.0907 8.03085 18.5167 9.51897 17.4607 10.519C16.8589 11.0891 16.0568 11.5459 15.0764 11.877C13.7267 12.3331 12.286 12.4588 10.9495 12.2472C10.9316 12.2415 10.9129 12.2371 10.8933 12.2348C10.8823 12.2335 10.8718 12.2341 10.8613 12.2339C10.6631 12.2001 10.4675 12.1591 10.2749 12.1105C8.66929 11.7048 7.28397 10.7706 6.47412 9.54758C5.8559 8.61393 5.53331 7.46933 5.5411 6.23756C5.54805 5.17574 5.80115 4.02408 6.29388 2.81462C6.46844 2.38585 6.70196 1.87621 7.04392 1.41768C7.15341 1.48367 7.26038 1.55348 7.36356 1.62749C7.41325 1.66316 7.47242 1.68051 7.53138 1.68051C7.61119 1.68051 7.69015 1.64866 7.74363 1.58762C7.83649 1.48158 7.8167 1.32746 7.69962 1.24335C7.59476 1.1682 7.48653 1.09686 7.37556 1.02915C7.4221 0.981849 7.46947 0.935309 7.51917 0.890677C7.79649 0.641195 8.06264 0.506918 8.31048 0.491277C8.32122 0.490515 8.33196 0.490133 8.34291 0.490133C8.50799 0.490133 8.69519 0.566046 8.78089 0.670569C8.82637 0.726263 8.835 0.779097 8.80868 0.841849C8.7095 1.07779 8.56505 1.30801 8.41218 1.55157C8.28016 1.76157 8.14392 1.97882 8.0359 2.20465C7.57328 3.17263 7.25259 4.18925 7.08287 5.22628C6.88052 6.46091 6.96432 7.41325 7.3465 8.22311C7.94241 9.48616 9.37805 10.4219 11.0038 10.6071C12.4559 10.7727 14.043 10.3609 15.3577 9.47758C16.0741 8.99636 16.5923 8.45581 16.8978 7.87102C17.2701 7.15862 17.3834 6.2841 17.244 5.19748C17.1499 4.46544 16.9658 3.74179 16.6969 3.04637C16.6037 2.80528 16.4992 2.56552 16.3984 2.33359C16.2211 1.92675 16.0381 1.50599 15.9187 1.08275C15.8576 0.866454 15.8888 0.793593 15.9128 0.769369C15.9564 0.7255 16.0945 0.708334 16.1688 0.699179C16.679 0.636046 17.1994 0.611059 17.5476 0.85501C17.5986 0.890868 17.6447 0.931304 17.6866 0.976127C17.5443 1.02343 17.4047 1.07207 17.2686 1.11937C17.129 1.16782 17.0593 1.30972 17.113 1.43599C17.1543 1.53346 17.2568 1.59335 17.3657 1.59335C17.3979 1.59335 17.4308 1.58801 17.4626 1.57694C17.6215 1.52163 17.7856 1.46479 17.9528 1.41024C18.0006 1.52125 18.0433 1.64046 18.0858 1.7652Z" fill="#969696" stroke="#969696" stroke-width="0.2"/>
</g>
<defs>
<clipPath id="clip0">
<rect width="25" height="25" fill="white"/>
</clipPath>
</defs>
</svg>
