<svg width="25" height="25" viewBox="0 0 25 25" fill="none" xmlns="http://www.w3.org/2000/svg">
<path d="M1.19102 17.4818L1.15566 17.4465L1.19102 17.4818L16.3351 2.33759C17.2886 1.38413 18.5561 0.859128 19.9045 0.859128C21.253 0.859128 22.5204 1.38413 23.4739 2.3376C25.442 4.30571 25.442 7.50822 23.4739 9.47634L12.5944 20.3559C12.38 20.5702 12.0324 20.5702 11.818 20.3558C11.6036 20.1415 11.6036 19.7939 11.818 19.5795L22.6975 8.69998C24.2377 7.15985 24.2377 4.65398 22.6975 3.11385C21.9515 2.36786 20.9595 1.95693 19.9045 1.95693C18.8496 1.95693 17.8574 2.36786 17.1114 3.11385L1.96728 18.2581C1.43774 18.7876 1.146 19.4919 1.146 20.2409C1.146 20.9898 1.43774 21.6941 1.96728 22.2236C3.06063 23.317 4.83946 23.3169 5.93276 22.2236L17.86 10.2964C18.5053 9.65101 18.5053 8.60109 17.86 7.95578C17.2147 7.31043 16.1647 7.31043 15.5194 7.95579L7.85682 15.6183L7.89218 15.6537L7.85682 15.6183C7.64251 15.8327 7.29487 15.8327 7.08056 15.6183L7.0452 15.6537L7.08056 15.6183C6.8662 15.404 6.8662 15.0564 7.08056 14.842L14.7431 7.17943C15.8165 6.10609 17.563 6.10609 18.6364 7.17943C19.7097 8.25282 19.7097 9.99933 18.6364 11.0727L6.70897 22.9999C5.94839 23.7605 4.94933 24.1409 3.95004 24.1409C2.95071 24.1409 1.95169 23.7605 1.19102 22.9999C-0.33032 21.4785 -0.330319 19.0031 1.19102 17.4818Z" fill="#969696" stroke="white" stroke-width="0.1"/>
</svg>
