<svg width="25" height="25" viewBox="0 0 25 25" fill="none" xmlns="http://www.w3.org/2000/svg">
<path d="M18.0659 10.4417C17.6985 10.5054 17.3331 10.5603 16.9749 10.6082L16.6555 7.27392C18.7977 5.90433 19.4332 3.50015 19.6033 1.8537C19.6563 1.32344 19.4424 0.801382 19.0326 0.460842C18.5374 0.0459407 17.8707 -0.100304 17.2473 0.0692026C15.7056 0.468469 14.1238 0.692127 12.5318 0.736172C10.9399 0.692127 9.35792 0.468469 7.81634 0.0692026C7.19285 -0.100304 6.52569 0.0467034 6.03109 0.462558C5.62133 0.802526 5.40702 1.32382 5.45926 1.8537C5.62915 3.49977 6.26428 5.90356 8.40571 7.27316L8.08881 10.6088C7.73054 10.5603 7.36522 10.5054 6.99779 10.4421C6.36495 10.3277 5.72277 10.5868 5.34676 11.1085C4.98201 11.6058 4.93453 12.2682 5.22435 12.8125C5.74851 13.7036 6.5337 14.4119 7.47352 14.8422L5.61752 23.7298C5.50331 24.2801 5.84118 24.8231 6.38516 24.9642C6.92915 25.1053 7.4882 24.7947 7.65599 24.2584L9.14456 19.5795H15.9195L17.4077 24.2567C17.5742 24.7953 18.1347 25.1078 18.6804 24.9658C19.2259 24.8239 19.5634 24.2778 19.4462 23.7264L17.5919 14.8401C18.5317 14.41 19.3169 13.7015 19.8411 12.8104C20.1309 12.2661 20.0832 11.6039 19.7186 11.1064C19.3417 10.5849 18.6987 10.3264 18.0659 10.4417V10.4417ZM16.1498 10.7094C15.8635 10.7409 15.5872 10.7685 15.321 10.7928L15.0556 7.99618C15.3311 7.91553 15.6009 7.81695 15.8636 7.7014L16.1498 10.7094ZM12.5318 8.3331C13.1031 8.3352 13.6734 8.28639 14.2359 8.18743L14.4887 10.8553C13.3329 10.932 12.5463 10.9344 12.5311 10.9344C12.5156 10.9344 11.7301 10.932 10.5733 10.8553L10.8261 8.18743C11.3893 8.28658 11.96 8.33539 12.5318 8.3331ZM6.28811 1.76828C6.2658 1.50992 6.37353 1.25747 6.57545 1.09483C6.77718 0.925318 7.03268 0.833414 7.296 0.835702C7.40087 0.836465 7.50517 0.850384 7.60641 0.877269C9.21606 1.29713 10.8688 1.52937 12.5318 1.56922C14.1949 1.52937 15.8476 1.29713 17.4573 0.877269C17.8169 0.777548 18.2024 0.859536 18.4903 1.09692C18.6915 1.25976 18.7985 1.51201 18.7756 1.76999C18.5058 4.38334 17.2027 7.50006 12.5318 7.50006C11.3136 7.542 10.1065 7.25752 9.0355 6.67578C9.02959 6.67292 9.02501 6.66835 9.01929 6.66549C7.13812 5.56207 6.47211 3.54972 6.28811 1.76828ZM9.20176 7.69969C9.46432 7.81524 9.73431 7.91381 10.0098 7.99447L9.74442 10.7907C9.47805 10.7674 9.20176 10.7396 8.91557 10.7073L9.20176 7.69969ZM6.86127 24.0076C6.83229 24.0994 6.74687 24.1617 6.65039 24.1613C6.58461 24.1617 6.52226 24.1321 6.48088 24.0809C6.43779 24.0298 6.42025 23.9619 6.43302 23.8963L8.2486 15.1935C8.66617 15.3626 9.09232 15.5098 9.52533 15.6345L6.86127 24.0076ZM14.7295 15.8402L15.1238 17.0803H9.93985L10.3342 15.8402C11.7833 16.1468 13.2804 16.1468 14.7295 15.8402ZM9.40788 18.7464L9.67272 17.9134H15.3893L15.6541 18.7464H9.40788ZM18.6299 23.893C18.6436 23.9596 18.6263 24.0288 18.5828 24.0809C18.5414 24.1321 18.4791 24.1617 18.4133 24.1613C18.3163 24.1617 18.2304 24.0986 18.202 24.0059L15.5384 15.6337C15.9714 15.509 16.3975 15.3618 16.8151 15.1925L18.6299 23.893ZM19.103 12.4201C18.5536 13.4582 17.202 14.3049 15.1955 14.8693C13.4536 15.3595 11.6101 15.3595 9.86816 14.8693C7.86172 14.3049 6.51005 13.4582 5.96073 12.4201C5.8183 12.1572 5.84175 11.8354 6.02117 11.5959C6.21013 11.332 6.53522 11.2019 6.85421 11.2626C8.731 11.5759 10.6291 11.7446 12.5318 11.7675C14.4342 11.7446 16.3317 11.5757 18.2083 11.2626C18.5271 11.2019 18.8522 11.332 19.0414 11.5959C19.221 11.835 19.245 12.1568 19.103 12.4201V12.4201Z" fill="#969696"/>
</svg>
