<?xml version="1.0" encoding="UTF-8"?>
<svg width="25px" height="29px" viewBox="0 0 25 29" version="1.1" xmlns="http://www.w3.org/2000/svg" xmlns:xlink="http://www.w3.org/1999/xlink">
    <!-- Generator: Sketch 52.2 (67145) - http://www.bohemiancoding.com/sketch -->
    <title>database</title>
    <desc>Created with Sketch.</desc>
    <g id="Page-1" stroke="none" stroke-width="1" fill="none" fill-rule="evenodd">
        <g id="Мой-кабинет-(Недоступен)" transform="translate(-27.000000, -559.000000)" fill="#fff">
            <g id="-Left" transform="translate(0.000000, 7.000000)">
                <g id="Group" transform="translate(27.000000, 552.000000)">
                    <g id="Group-2">
                        <g id="database">
                            <path d="M13.5818627,16.2107843 C13.1553922,16.2240196 12.7289216,16.2313725 12.3044118,16.2313725 C11.8784314,16.2313725 11.4504902,16.2245098 11.0230392,16.2107843 C7.4245098,16.1122549 4.55686275,15.6039216 2.49215686,14.8789216 C1.52156863,14.5514706 0.690686275,14.1661765 0.0490196078,13.7254902 L0.0490196078,17.2112745 L0.0490196078,17.4563725 L0.0490196078,17.7014706 L0.0490196078,18.3333333 C1.44411765,19.7897059 6.1245098,21.1328431 12.3039216,21.1328431 C18.4833333,21.1328431 23.1637255,19.7897059 24.5588235,18.3333333 L24.5588235,17.7014706 L24.5588235,17.4563725 L24.5588235,17.2112745 L24.5588235,13.7254902 C23.9127451,14.1691176 23.0745098,14.5573529 22.0955882,14.8857843 C20.0318627,15.6073529 17.170098,16.1127451 13.5818627,16.2107843 Z" id="Path"></path>
                            <path d="M0.0490196078,7.29852941 L0.0490196078,10.7843137 L0.0490196078,11.0294118 L0.0490196078,11.2745098 L0.0490196078,11.9063725 C1.34215686,13.2563725 5.45735294,14.5093137 10.9735294,14.6848039 C11.029902,14.6867647 11.0877451,14.6872549 11.1446078,14.6887255 C11.3044118,14.6931373 11.4637255,14.697549 11.6259804,14.7 C11.85,14.7039216 12.0759804,14.7058824 12.3039216,14.7058824 C12.5318627,14.7058824 12.7578431,14.7039216 12.9818627,14.7004902 C13.1436275,14.6980392 13.3034314,14.6936275 13.4632353,14.6892157 C13.520098,14.6877451 13.5779412,14.6867647 13.6343137,14.6852941 C19.1504902,14.5093137 23.2656863,13.2563725 24.5588235,11.9068627 L24.5588235,11.2745098 L24.5588235,11.0294118 L24.5588235,10.7843137 L24.5588235,7.29852941 C22.1730392,8.9372549 17.1294118,9.80392157 12.3039216,9.80392157 C7.47843137,9.80392157 2.43529412,8.9372549 0.0490196078,7.29852941 Z" id="Path"></path>
                            <path d="M24.4926471,4.1872549 C23.9426471,2.07892157 19.7132353,0 12.3039216,0 C4.91323529,0 0.688235294,2.06862745 0.121078431,4.17156863 C0.0794117647,4.24362745 0.0490196078,4.32254902 0.0490196078,4.41176471 L0.0490196078,4.65686275 L0.0490196078,5.54215686 C1.43970588,6.99362745 6.08676471,8.33333333 12.3039216,8.33333333 C18.5210784,8.33333333 23.1686275,6.99362745 24.5588235,5.54215686 L24.5588235,4.65686275 L24.5588235,4.41176471 C24.5588235,4.32941176 24.5313725,4.25539216 24.4926471,4.1872549 Z" id="Path"></path>
                            <path d="M0.0490196078,20.0980392 L0.0490196078,24.1181373 C0.0490196078,24.197549 0.0700980392,24.272549 0.106372549,24.3392157 C0.685294118,26.7387255 5.86470588,28.529902 12.3039216,28.529902 C18.7284314,28.529902 23.8995098,26.7460784 24.497549,24.3553922 C24.5367647,24.2848039 24.5588235,24.2039216 24.5588235,24.1181373 L24.5588235,20.0990196 C22.5318627,21.5259804 18.3553922,22.647549 12.3039216,22.647549 C6.25196078,22.647549 2.0754902,21.525 0.0490196078,20.0980392 Z" id="Path"></path>
                        </g>
                    </g>
                </g>
            </g>
        </g>
    </g>
</svg>