<?xml version="1.0" encoding="UTF-8"?>
<svg width="19px" height="22px" viewBox="0 0 19 22" version="1.1" xmlns="http://www.w3.org/2000/svg" xmlns:xlink="http://www.w3.org/1999/xlink">
    <!-- Generator: Sketch 52.2 (67145) - http://www.bohemiancoding.com/sketch -->
    <title>list (1)</title>
    <desc>Created with Sketch.</desc>
    <g id="Page-1" stroke="none" stroke-width="1" fill="none" fill-rule="evenodd">
        <g id="Мой-кабинет-(Недоступен)" transform="translate(-27.000000, -344.000000)" fill="#fff" fill-rule="nonzero">
            <g id="-Left" transform="translate(0.000000, 7.000000)">
                <g id="Group" transform="translate(27.000000, 337.000000)">
                    <g id="Group-6">
                        <g id="list-(1)">
                            <path d="M0.65,0 L0.65,1.925 L0.65,3.575 L0.65,5.225 L0.65,6.875 L0.65,8.525 L0.65,10.175 L0.65,11.825 L0.65,13.475 L0.65,15.125 L0.65,16.775 L0.65,18.425 L0.65,20.075 L0.65,22 L18.25,22 L18.25,0 L0.65,0 Z M5.7,16.775 L4.05,16.775 L4.05,15.125 L5.7,15.125 L5.7,16.775 Z M5.7,13.475 L4.05,13.475 L4.05,11.825 L5.7,11.825 L5.7,13.475 Z M5.7,10.175 L4.05,10.175 L4.05,8.525 L5.7,8.525 L5.7,10.175 Z M5.7,6.875 L4.05,6.875 L4.05,5.225 L5.7,5.225 L5.7,6.875 Z M14.225,16.775 L7.35,16.775 L7.35,15.125 L14.225,15.125 L14.225,16.775 Z M14.225,13.475 L7.35,13.475 L7.35,11.825 L14.225,11.825 L14.225,13.475 Z M14.225,10.175 L7.35,10.175 L7.35,8.525 L14.225,8.525 L14.225,10.175 Z M14.225,6.875 L7.35,6.875 L7.35,5.225 L14.225,5.225 L14.225,6.875 Z" id="Shape"></path>
                        </g>
                    </g>
                </g>
            </g>
        </g>
    </g>
</svg>