<?xml version="1.0" encoding="UTF-8"?>
<svg width="25px" height="25px" viewBox="0 0 25 25" version="1.1" xmlns="http://www.w3.org/2000/svg" xmlns:xlink="http://www.w3.org/1999/xlink">
    <!-- Generator: Sketch 52.2 (67145) - http://www.bohemiancoding.com/sketch -->
    <title>pie-chart</title>
    <desc>Created with Sketch.</desc>
    <g id="Page-1" stroke="none" stroke-width="1" fill="none" fill-rule="evenodd">
        <g id="Мой-кабинет-(Недоступен)" transform="translate(-25.000000, -413.000000)" fill="#fff">
            <g id="-Left" transform="translate(0.000000, 7.000000)">
                <g id="Group" transform="translate(25.000000, 406.000000)">
                    <g id="Group-6">
                        <g id="pie-chart">
                            <path d="M21.5801887,13.1132075 L11.8527254,13.1132075 L11.8527254,3.38574423 C11.8527254,2.99266247 11.53826,2.67819706 11.1451782,2.67819706 C5.00262055,2.67819706 0.00262054507,7.67819706 0.00262054507,13.8207547 C0.00262054507,19.9633124 5.00262055,24.9633124 11.1451782,24.9633124 C17.2877358,24.9633124 22.2877358,19.9633124 22.2877358,13.8207547 C22.2877358,13.432914 21.9680294,13.1132075 21.5801887,13.1132075 Z M11.1451782,23.548218 C5.78354298,23.548218 1.41771488,19.1823899 1.41771488,13.8207547 C1.41771488,8.69496855 5.4009434,4.48113208 10.437631,4.11949686 L10.437631,13.8207547 C10.437631,14.2138365 10.7520964,14.5283019 11.1451782,14.5283019 L20.8464361,14.5283019 C20.4848008,19.5649895 16.2709644,23.548218 11.1451782,23.548218 Z" id="Shape" fill-rule="nonzero"></path>
                            <path d="M24.9606918,11.10587 C24.9502096,8.40146751 23.9596436,5.7966457 22.1724319,3.76834382 C20.0550314,1.37316562 17.0151992,0 13.8181342,0 C13.4250524,0 13.110587,0.314465409 13.110587,0.70754717 L13.110587,11.1425577 C13.110587,11.5356394 13.4250524,11.8501048 13.8181342,11.8501048 L24.2531447,11.8501048 C24.6462264,11.8501048 24.9606918,11.5356394 24.9606918,11.1425577 C24.9606918,11.1320755 24.9606918,11.1215933 24.9606918,11.10587 Z M14.5256813,10.4402516 L14.5256813,1.44654088 C17.0518868,1.62997904 19.4208595,2.79874214 21.1084906,4.71174004 C22.5235849,6.31027254 23.3621593,8.32285115 23.519392,10.4402516 L14.5256813,10.4402516 Z" id="Shape" fill-rule="nonzero"></path>
                            <polygon id="Path-2" points="11 3.76303762 11 14 21.75 14 21.1105664 16.6479549 20 19.4577538 18.2770697 21.4359427 16.375 22.7682862 13.675001 24 9.72727273 24 6.50913242 23 3.45494741 21 1.00165379 17 0.569145897 13.1910733 2 8.30445882 4.52835174 5.65020016 7.7 4 11 3"></polygon>
                        </g>
                    </g>
                </g>
            </g>
        </g>
    </g>
</svg>