<?xml version="1.0" encoding="UTF-8"?>
<svg width="25px" height="27px" viewBox="0 0 25 27" version="1.1" xmlns="http://www.w3.org/2000/svg" xmlns:xlink="http://www.w3.org/1999/xlink">
    <!-- Generator: Sketch 52.2 (67145) - http://www.bohemiancoding.com/sketch -->
    <title>shopping-cart</title>
    <desc>Created with Sketch.</desc>
    <g id="Page-1" stroke="none" stroke-width="1" fill="none" fill-rule="evenodd">
        <g id="Мой-кабинет-(Недоступен)" transform="translate(-23.000000, -268.000000)" fill="#B2B2B2" fill-rule="nonzero">
            <g id="-Left" transform="translate(0.000000, 7.000000)">
                <g id="Group" transform="translate(0.000000, 92.000000)">
                    <g id="123" transform="translate(0.000000, 169.000000)">
                        <g id="Group" transform="translate(23.000000, 0.000000)">
                            <g id="Group-3">
                                <g id="shopping-cart">
                                    <path d="M3.33333333,24.1666667 C3.33333333,25.5473958 4.45260417,26.6666667 5.83333333,26.6666667 C7.2140625,26.6666667 8.33333333,25.5473958 8.33333333,24.1666667 C8.33333333,22.7859375 7.2140625,21.6666667 5.83333333,21.6666667 C4.45260417,21.6666667 3.33333333,22.7859375 3.33333333,24.1666667 Z M20,24.1666667 C20,25.5473958 21.1192708,26.6666667 22.5,26.6666667 C23.8807292,26.6666667 25,25.5473958 25,24.1666667 C25,22.7859375 23.8807292,21.6666667 22.5,21.6666667 C21.1192708,21.6666667 20,22.7859375 20,24.1666667 Z M25,13.3333333 L25,3.33333333 L3.33333333,3.33333333 C3.33333333,1.49239583 1.84098958,0 0,0 L0,1.66666667 C0.919010417,1.66666667 1.66666667,2.41432292 1.66666667,3.33333333 L2.91859375,14.0639063 C2.15572917,14.6747917 1.66666667,15.6133854 1.66666667,16.6666667 C1.66666667,18.5077083 3.1590625,20 5,20 L25,20 L25,18.3333333 L5,18.3333333 C4.07953125,18.3333333 3.33333333,17.5871354 3.33333333,16.6666667 C3.33333333,16.6609896 3.33369792,16.6553125 3.33375,16.6495833 L25,13.3333333 Z" id="Shape"></path>
                                </g>
                            </g>
                        </g>
                    </g>
                </g>
            </g>
        </g>
    </g>
</svg>