<?xml version="1.0" encoding="UTF-8"?>
<svg width="25px" height="30px" viewBox="0 0 25 30" version="1.1" xmlns="http://www.w3.org/2000/svg" xmlns:xlink="http://www.w3.org/1999/xlink">
    <!-- Generator: Sketch 52.2 (67145) - http://www.bohemiancoding.com/sketch -->
    <title>shopping-bag</title>
    <desc>Created with Sketch.</desc>
    <g id="Page-1" stroke="none" stroke-width="1" fill="none" fill-rule="evenodd">
        <g id="Мой-кабинет-(Недоступен)" transform="translate(-27.000000, -485.000000)" fill="#B2B2B2" fill-rule="nonzero">
            <g id="-Left" transform="translate(0.000000, 7.000000)">
                <g id="Group" transform="translate(27.000000, 478.000000)">
                    <g id="Group-4">
                        <g id="shopping-bag">
                            <path d="M23.4084091,7.93727273 C23.3995455,7.81886364 23.3004545,7.72727273 23.1818182,7.72727273 L19.0909091,7.72727273 L19.0909091,6.59090909 C19.0909091,2.95659091 16.1340909,0 12.5,0 C8.86590909,0 5.90909091,2.95659091 5.90909091,6.59090909 L5.90909091,7.72727273 L1.81818182,7.72727273 C1.69954545,7.72727273 1.60045455,7.81886364 1.59159091,7.93727273 L0.000681818182,28.8463636 C-0.00409090909,28.9093182 0.0175,28.9715909 0.0606818182,29.0179545 C0.103636364,29.0645455 0.164090909,29.0909091 0.227272727,29.0909091 L24.7727273,29.0909091 C24.8359091,29.0909091 24.8963636,29.0645455 24.9393182,29.0181818 C24.9822727,28.9718182 25.0040909,28.9095455 24.9993182,28.8465909 L23.4084091,7.93727273 Z M7.72727273,6.59090909 C7.72727273,3.95931818 9.86818182,1.81818182 12.5,1.81818182 C15.1318182,1.81818182 17.2727273,3.95931818 17.2727273,6.59090909 L17.2727273,7.72727273 L7.72727273,7.72727273 L7.72727273,6.59090909 Z M6.81818182,14.0909091 C5.56477273,14.0909091 4.54545455,13.0713636 4.54545455,11.8181818 C4.54545455,10.9111364 5,10.0938636 5.90909091,9.73522727 L5.90909091,11.8181818 C5.90909091,12.3195455 6.31704545,12.7272727 6.81818182,12.7272727 C7.31931818,12.7272727 7.72727273,12.3195455 7.72727273,11.8181818 L7.72727273,9.73659091 C8.63636364,10.0952273 9.09090909,10.9186364 9.09090909,11.8181818 C9.09090909,13.0713636 8.07159091,14.0909091 6.81818182,14.0909091 Z M18.1818182,14.0909091 C16.9284091,14.0909091 15.9090909,13.0713636 15.9090909,11.8181818 C15.9090909,10.9111364 16.3636364,10.0938636 17.2727273,9.73522727 L17.2727273,11.8181818 C17.2727273,12.3195455 17.6806818,12.7272727 18.1818182,12.7272727 C18.6829545,12.7272727 19.0909091,12.3195455 19.0909091,11.8181818 L19.0909091,9.73659091 C20,10.0952273 20.4545455,10.9186364 20.4545455,11.8181818 C20.4545455,13.0713636 19.4352273,14.0909091 18.1818182,14.0909091 Z" id="Shape"></path>
                        </g>
                    </g>
                </g>
            </g>
        </g>
    </g>
</svg>