<?xml version="1.0" encoding="UTF-8"?>
<svg width="25px" height="24px" viewBox="0 0 25 24" version="1.1" xmlns="http://www.w3.org/2000/svg" xmlns:xlink="http://www.w3.org/1999/xlink">
    <!-- Generator: Sketch 52.2 (67145) - http://www.bohemiancoding.com/sketch -->
    <title>teacher-reading</title>
    <desc>Created with Sketch.</desc>
    <g id="Page-1" stroke="none" stroke-width="1" fill="none" fill-rule="evenodd">
        <g id="Мой-кабинет-(Недоступен)" transform="translate(-28.000000, -707.000000)" fill="#B2B2B2">
            <g id="Group-17" transform="translate(0.000000, 707.000000)">
                <g id="teacher-reading" transform="translate(28.000000, 0.000000)">
                    <path d="M24.5762712,18.0614407 L18.8559322,10.1694915 L18.6440678,9.79872881 C18.4675318,9.55164195 18.1762182,9.30450212 17.7701271,9.05720339 C17.364036,8.81001059 16.8961864,8.68644068 16.3665254,8.68644068 L8.63347458,8.68644068 C8.10381356,8.68644068 7.62711864,8.81885593 7.20338983,9.08368644 C6.77966102,9.34851695 6.50598517,9.56922669 6.38241525,9.74576271 C6.25884534,9.92229873 6.17939619,10.0635593 6.1440678,10.1694915 L0.423728814,18.0614407 C0.141260593,18.4498411 0,18.8735699 0,19.3326271 C0,19.9328919 0.220709746,20.4537606 0.662076271,20.8951271 C1.1034428,21.3364936 1.62431144,21.5572034 2.22457627,21.5572034 C2.50704449,21.5572034 2.78956568,21.5042373 3.0720339,21.3983051 L6.51483051,20.3919492 L6.51483051,23.8347458 L18.4851695,23.8347458 L18.4851695,20.3919492 L21.9279661,21.3983051 C22.2104343,21.5042373 22.4929555,21.5572034 22.7754237,21.5572034 C23.3756886,21.5572034 23.8965572,21.3364936 24.3379237,20.8951271 C24.7792903,20.4537606 25,19.9328919 25,19.3326271 C25,18.8735699 24.8587394,18.4498411 24.5762712,18.0614407 Z M18.4851695,15.9957627 L18.0614407,15.8368644 C17.4611758,15.6956038 16.9226695,15.6956038 16.4459746,15.8368644 C15.9692797,15.978125 15.625,16.2429555 15.4131356,16.6313559 C15.2012712,17.0197564 15.0864936,17.4258475 15.0688559,17.8495763 C15.0512182,18.2733051 15.2012712,18.6881886 15.5190678,19.0942797 C15.8368644,19.5003708 16.2959216,19.7916843 16.8961864,19.9682203 L16.9491525,19.9682203 L12.5,21.4512712 L8.05084746,19.9682203 L8.15677966,19.9682203 C8.72176907,19.7916843 9.16313559,19.5003708 9.4809322,19.0942797 C9.79872881,18.6881886 9.94878178,18.2733051 9.93114407,17.8495763 C9.91350636,17.4258475 9.79872881,17.0197564 9.58686441,16.6313559 C9.375,16.2429555 9.03072034,15.978125 8.55402542,15.8368644 C8.07733051,15.6956038 7.53882415,15.6956038 6.93855932,15.8368644 L6.51483051,15.9957627 L6.51483051,11.3877119 L12.5,13.3474576 L18.4851695,11.3877119 L18.4851695,15.9957627 Z" id="Shape" fill-rule="nonzero"></path>
                    <path d="M12.5794492,7.78601695 C13.6564619,7.78601695 14.5745233,7.4064089 15.3336864,6.64724576 C16.0928496,5.88802966 16.4724576,4.96996822 16.4724576,3.89300847 C16.4724576,2.81599576 16.0928496,1.89793432 15.3336864,1.13877119 C14.5745233,0.379608051 13.6564089,0 12.5794492,0 C11.5024364,0 10.584375,0.379608051 9.82521186,1.13877119 C9.06604873,1.89793432 8.68644068,2.81604873 8.68644068,3.89300847 C8.68644068,4.96996822 9.06604873,5.88808263 9.82521186,6.64724576 C10.584375,7.4064089 11.5024894,7.78601695 12.5794492,7.78601695 Z" id="Path"></path>
                </g>
            </g>
        </g>
    </g>
</svg>