<?xml version="1.0" encoding="UTF-8"?>
<svg width="13px" height="8px" viewBox="0 0 13 8" version="1.1" xmlns="http://www.w3.org/2000/svg" xmlns:xlink="http://www.w3.org/1999/xlink">
    <!-- Generator: sketchtool 52.2 (67145) - http://www.bohemiancoding.com/sketch -->
    <title>0ED826B3-F6A6-4803-A834-386FC39DAA0E</title>
    <desc>Created with sketchtool.</desc>
    <g id="Page-1" stroke="none" stroke-width="1" fill="none" fill-rule="evenodd">
        <g id="Продукт" transform="translate(-553.000000, -1380.000000)" fill="#2CACEB">
            <g id="Group-2" transform="translate(407.000000, 887.000000)">
                <g id="Характеристики" transform="translate(60.000000, 1.000000)">
                    <g id="2-часть" transform="translate(1.000000, 0.000000)">
                        <g id="arrow-point-to-right" transform="translate(91.500000, 496.000000) rotate(-270.000000) translate(-91.500000, -496.000000) translate(87.500000, 489.500000)">
                            <path d="M7.24814953,7.09406171 L1.96798631,12.2537109 C1.63210415,12.5820964 1.0875288,12.5820964 0.751809706,12.2537109 C0.416063431,11.9256175 0.416063431,11.3934816 0.751809706,11.0654148 L5.42393898,6.49991369 L0.751945591,1.93457188 C0.416199317,1.60634573 0.416199317,1.07426297 0.751945591,0.746169611 C1.08769187,0.417943463 1.63224004,0.417943463 1.9681222,0.746169611 L7.24828541,5.90589846 C7.41615855,6.07002481 7.5,6.28490285 7.5,6.49988713 C7.5,6.71497764 7.41599549,6.93001503 7.24814953,7.09406171 Z" id="Path"></path>
                        </g>
                    </g>
                </g>
            </g>
        </g>
    </g>
</svg>