<?xml version="1.0" encoding="UTF-8"?>
<svg width="50px" height="50px" viewBox="0 0 50 50" version="1.1" xmlns="http://www.w3.org/2000/svg" xmlns:xlink="http://www.w3.org/1999/xlink">
    <!-- Generator: Sketch 52.2 (67145) - http://www.bohemiancoding.com/sketch -->
    <title>arroba</title>
    <desc>Created with Sketch.</desc>
    <g id="финансы" stroke="none" stroke-width="1" fill="none" fill-rule="evenodd">
        <g id="Artboard" transform="translate(-1034.000000, -4043.000000)" fill="#D0021B" fill-rule="nonzero">
            <g id="Group-2" transform="translate(1002.000000, 4014.000000)">
                <g id="arroba" transform="translate(32.000000, 29.000000)">
                    <path d="M24.9023438,0 C11.1386719,0 0,11.1376953 0,24.9023437 C0,38.5639648 11.0375977,50 24.9023438,50 C38.6371094,50 50,38.6802734 50,24.9023437 C50,11.0224609 38.5491211,0 24.9023438,0 Z M24.9023438,47.0898438 C12.7866211,47.0898438 2.91015625,37.1257813 2.91015625,24.9023438 C2.91015625,12.7866211 12.7866211,2.91015625 24.9023438,2.91015625 C37.1257813,2.91015625 47.0898438,12.7866211 47.0898438,24.9023438 C47.0898438,37.1257813 37.1257813,47.0898438 24.9023438,47.0898438 Z" id="Shape"></path>
                    <path d="M24.9036145,9 C16.1343614,9 9,16.1343614 9,24.9036145 C9,33.7058313 16.1197108,41 24.9036145,41 C28.4577349,41 32.053012,39.805494 34.7676145,37.7227952 C35.4011566,37.2367229 35.5206747,36.3291566 35.0346024,35.6956145 C34.5485301,35.0620723 33.6408675,34.9425542 33.0074217,35.4286265 C30.787759,37.1316627 27.8340241,38.1277108 24.9036145,38.1277108 C17.7287711,38.1277108 11.8915663,32.1847711 11.8915663,24.9036145 C11.8915663,17.7287711 17.7287711,11.8722892 24.9036145,11.8722892 C32.1847711,11.8722892 38.1084337,17.7287711 38.1084337,24.9036145 L38.1084337,26.3493976 C38.1084337,27.9438072 36.8112771,29.2409639 35.2168675,29.2409639 C33.6224578,29.2409639 32.3253012,27.9438072 32.3253012,26.3493976 C32.3253012,25.633253 32.3253012,19.875759 32.3253012,19.1204819 C32.3253012,18.3220241 31.6779759,17.6746988 30.8795181,17.6746988 C30.0810602,17.6746988 29.4337349,18.3220241 29.4337349,19.1204819 L29.4337349,19.2121446 C28.1280964,18.2165783 26.5487229,17.6746988 24.9036145,17.6746988 C20.9175904,17.6746988 17.6746988,20.9175904 17.6746988,24.9036145 C17.6746988,28.8896386 20.9175904,32.1325301 24.9036145,32.1325301 C27.0648675,32.1325301 29.0538795,31.2051084 30.4684337,29.6446265 C31.5140241,31.1466988 33.2520482,32.1325301 35.2168675,32.1325301 C38.4056867,32.1325301 41,29.5382169 41,26.3493976 L41,24.9036145 C41,16.1080482 33.6949398,9 24.9036145,9 Z M24.9036145,29.260241 C22.512,29.260241 20.5662651,27.2952289 20.5662651,24.9036145 C20.5662651,22.512 22.512,20.546988 24.9036145,20.546988 C27.3592289,20.546988 29.4337349,22.5524819 29.4337349,24.9036145 C29.4337349,27.254747 27.3592289,29.260241 24.9036145,29.260241 Z" id="Shape"></path>
                </g>
            </g>
        </g>
    </g>
</svg>