<?xml version="1.0" encoding="iso-8859-1"?>
<!-- Generator: Adobe Illustrator 19.0.0, SVG Export Plug-In . SVG Version: 6.00 Build 0)  -->
<svg version="1.1" id="Capa_1" xmlns="http://www.w3.org/2000/svg" xmlns:xlink="http://www.w3.org/1999/xlink" x="0px" y="0px"
	 viewBox="0 0 512 512" style="enable-background:new 0 0 512 512;" xml:space="preserve">
<g>
	<g>
		<path d="M168.683,246.93c-1.859-1.86-4.439-2.93-7.07-2.93c-2.63,0-5.21,1.07-7.069,2.93c-1.86,1.86-2.931,4.44-2.931,7.07
			s1.07,5.21,2.931,7.07c1.859,1.86,4.439,2.93,7.069,2.93c2.631,0,5.211-1.07,7.07-2.93c1.86-1.86,2.93-4.44,2.93-7.07
			S170.544,248.79,168.683,246.93z"/>
	</g>
</g>
<g>
	<g>
		<path d="M168.683,318.93c-1.859-1.86-4.439-2.93-7.07-2.93c-2.63,0-5.21,1.07-7.069,2.93c-1.86,1.86-2.931,4.43-2.931,7.07
			c0,2.63,1.07,5.21,2.931,7.07c1.859,1.86,4.439,2.93,7.069,2.93c2.631,0,5.211-1.07,7.07-2.93c1.86-1.86,2.93-4.44,2.93-7.07
			S170.544,320.79,168.683,318.93z"/>
	</g>
</g>
<g>
	<g>
		<path d="M168.683,390.93c-1.859-1.86-4.439-2.93-7.07-2.93c-2.63,0-5.21,1.07-7.069,2.93c-1.86,1.86-2.931,4.44-2.931,7.07
			s1.07,5.21,2.931,7.07c1.859,1.86,4.439,2.93,7.069,2.93c2.631,0,5.211-1.07,7.07-2.93c1.86-1.86,2.93-4.44,2.93-7.07
			S170.544,392.79,168.683,390.93z"/>
	</g>
</g>
<g>
	<g>
		<path d="M360.387,244H205.083c-5.522,0-10,4.477-10,10s4.478,10,10,10h155.304c5.522,0,10-4.477,10-10S365.91,244,360.387,244z"/>
	</g>
</g>
<g>
	<g>
		<path d="M360.387,316H205.083c-5.522,0-10,4.477-10,10s4.478,10,10,10h155.304c5.522,0,10-4.477,10-10S365.91,316,360.387,316z"/>
	</g>
</g>
<g>
	<g>
		<path d="M360.387,388H205.083c-5.522,0-10,4.477-10,10s4.478,10,10,10h155.304c5.522,0,10-4.477,10-10S365.91,388,360.387,388z"/>
	</g>
</g>
<g>
	<g>
		<path d="M447.903,201.514c-0.002-0.038-0.008-0.076-0.011-0.114c-0.012-0.158-0.03-0.3-0.053-0.429
			c-0.232-2.237-1.193-4.383-2.851-6.042l-104-104c-1.811-1.81-4.199-2.811-6.656-2.913c-0.128-0.01-0.262-0.016-0.415-0.016
			h-67.833V70c0-38.598-31.401-70-70-70s-70,31.402-70,70v18h-22c-22.056,0-40,17.944-40,40v344c0,22.056,17.944,40,40,40h303.833
			c22.056,0,40-17.944,40-40V202C447.917,201.825,447.911,201.664,447.903,201.514z M343.917,122.142L413.773,192h-47.357
			c-12.406,0-22.5-10.093-22.5-22.5V122.142z M196.083,20c27.57,0,50,22.43,50,50v91.556c0,16.787-13.657,30.444-30.444,30.444
			c-16.787,0-30.444-13.657-30.444-30.444V69.259c0-5.882,4.785-10.667,10.666-10.667c5.882,0,10.667,4.785,10.667,10.667v91.074
			c0,5.523,4.478,10,10,10c5.522,0,10-4.477,10-10V69.259c0-16.91-13.757-30.667-30.667-30.667
			c-16.909,0-30.666,13.757-30.666,30.667V88h-19.111V70h-0.001C146.083,42.43,168.513,20,196.083,20z M427.915,472
			c0.002,11.028-8.97,20-19.998,20H104.083c-11.028,0-20-8.972-20-20V128c0-11.028,8.972-20,20-20h61.111v53.556
			c0,27.815,22.629,50.444,50.444,50.444s50.444-22.629,50.444-50.444V108h57.833v61.5c0,23.435,19.065,42.5,42.5,42.5h61.5V472z"/>
	</g>
</g>
<g>
</g>
<g>
</g>
<g>
</g>
<g>
</g>
<g>
</g>
<g>
</g>
<g>
</g>
<g>
</g>
<g>
</g>
<g>
</g>
<g>
</g>
<g>
</g>
<g>
</g>
<g>
</g>
<g>
</g>
</svg>
