<?xml version="1.0" encoding="UTF-8"?>
<svg width="32px" height="30px" viewBox="0 0 32 30" version="1.1" xmlns="http://www.w3.org/2000/svg" xmlns:xlink="http://www.w3.org/1999/xlink">
    <!-- Generator: Sketch 52.2 (67145) - http://www.bohemiancoding.com/sketch -->
    <title>support</title>
    <desc>Created with Sketch.</desc>
    <g id="финансы" stroke="none" stroke-width="1" fill="none" fill-rule="evenodd">
        <g id="Artboard" transform="translate(-389.000000, -6670.000000)" fill="#FFFFFF" fill-rule="nonzero" stroke="#FFFFFF" stroke-width="0.2">
            <g id="Group-13" transform="translate(380.000000, 6661.000000)">
                <g id="Group-10">
                    <g id="Group">
                        <g id="support" transform="translate(10.000000, 10.000000)">
                            <path d="M19.2756028,19.9734752 L19.2756028,19.4514894 C19.4231206,19.3323404 19.5649645,19.201844 19.7011348,19.0656738 C20.7914184,17.8651773 21.4779433,16.3531915 21.6642553,14.7422695 C22.6441135,14.5929787 23.527305,14.0678723 24.1266667,13.2784397 C24.9493617,12.1153191 25.0231206,10.4415603 24.3365957,8.3422695 C24.2962411,8.22120567 24.2163121,8.11723404 24.1096454,8.04723404 L23.7975887,7.83730496 C23.843617,5.94312057 23.1890071,4.09858156 21.9592908,2.65716312 C20.4330496,0.938014184 18.0897872,0.069929078 14.9862411,0.0585815603 C11.8883688,0.0585815603 9.53943262,0.938014184 8.01319149,2.63446809 C6.78347518,4.07588652 6.12886525,5.92042553 6.17489362,7.81460993 L5.86283688,8.02453901 C5.75617021,8.09453901 5.67624113,8.19851064 5.63588652,8.31957447 C4.9493617,10.4302128 5.02312057,12.0926241 5.8458156,13.2557447 C6.4429078,14.0507092 7.32609929,14.581844 8.30822695,14.7365957 C8.49531915,16.3500709 9.18397163,17.8641844 10.2770213,19.0656738 C10.4121277,19.2015603 10.5541135,19.3303546 10.7025532,19.4514894 L10.7025532,19.9734752 C8.52950355,20.3933333 -0.145673759,22.4302128 0.00184397163,28.2174468 C0.00184397163,28.5307801 0.255886525,28.7848227 0.569219858,28.7848227 L29.4089362,28.7848227 C29.7222695,28.7848227 29.9763121,28.5307801 29.9763121,28.2174468 C30.1238298,22.4302128 21.4486525,20.3933333 19.2756028,19.9734752 Z M7.96780142,13.4713475 C7.48567376,13.3094326 7.06546099,13.0022695 6.76496454,12.5919149 L6.79333333,12.5975887 C6.22595745,11.7692199 6.17489362,10.5153191 6.67985816,8.85858156 L7.09404255,8.58056738 C7.26829787,8.46425532 7.36425532,8.26141844 7.34368794,8.0529078 C7.24822695,6.35716312 7.79978723,4.68829787 8.88695035,3.38340426 C10.1692199,1.93092199 12.2287943,1.20468085 14.9862411,1.19333333 C17.7436879,1.18198582 19.8032624,1.93092199 21.108227,3.38340426 C22.1953901,4.68829787 22.7469504,6.35716312 22.6514894,8.0529078 C22.630922,8.26141844 22.7268794,8.46425532 22.9011348,8.58056738 L23.3153191,8.85858156 C23.8202837,10.5096454 23.7862411,11.7692199 23.201844,12.5975887 C22.8992908,13.0082979 22.477234,13.315461 21.9933333,13.4770213 C22.6777305,12.6982979 23.0121277,11.6726241 22.918156,10.6401418 C22.811844,10.0189362 22.4880142,9.45588652 22.0046809,9.05148936 C21.7607092,3.3777305 17.7834043,2.7422695 16.0699291,2.7422695 C15.707234,2.74120567 15.3449645,2.76780142 14.9862411,2.82170213 C14.6275887,2.7677305 14.2652482,2.74120567 13.9025532,2.7422695 C12.2004255,2.7422695 8.22879433,3.36638298 7.96780142,9.05148936 C7.48134752,9.45262411 7.1535461,10.0137589 7.04297872,10.6344681 C6.94836879,11.6670213 7.28283688,12.6929787 7.96780142,13.4713475 Z M20.8756028,8.81886525 C18.4948227,8.9564539 16.1289362,8.36248227 14.095461,7.11673759 C13.8653191,6.95510638 13.5514894,6.98652482 13.3578723,7.19049645 C12.2231206,8.41035461 10.1521986,8.69404255 9.15361702,8.7564539 C9.46,4.74510638 11.8883688,3.87134752 13.930922,3.87134752 C14.2560284,3.86900709 14.5807092,3.89560284 14.9011348,3.95078014 C14.9760284,3.96609929 15.0531915,3.96609929 15.1280851,3.95078014 C15.4485106,3.89574468 15.7731915,3.86914894 16.0982979,3.87134752 C18.1238298,3.87134752 20.5635461,4.76780142 20.847234,8.81319149 L20.8756028,8.81886525 Z M9.35219858,13.5791489 L9.37489362,13.5848227 C9.37609929,13.4449645 9.32560284,13.3095745 9.23304965,13.2046809 C8.45574468,12.3139007 8.09829787,11.5025532 8.19475177,10.8330496 C8.24099291,10.4601418 8.4251773,10.1180851 8.71106383,9.8741844 C9.46,9.8741844 12.1153191,9.73234043 13.8174468,8.26283688 C15.7343972,9.36489362 17.9041844,9.95134752 20.1153191,9.96496454 C20.495461,9.96496454 20.8812766,9.96496454 21.2841135,9.90255319 C21.5621986,10.14 21.7438298,10.470922 21.7947518,10.8330496 C21.8912057,11.4912057 21.5337589,12.3139007 20.7564539,13.2046809 C20.6639007,13.3095745 20.6134043,13.4449645 20.6146099,13.5848227 C20.6146099,13.5848227 20.6146099,13.6982979 20.6146099,13.8798582 L17.3124823,15.6500709 C16.6571631,15.0296454 15.6229078,15.0579433 15.0024823,15.7132624 C14.3820567,16.3685816 14.4103546,17.4028369 15.0656738,18.0232624 C15.7209929,18.6436879 16.7552482,18.6153901 17.3756738,17.9600709 C17.6631915,17.656383 17.8233333,17.2540426 17.8231206,16.8358865 C17.8256738,16.7848227 17.8256738,16.7337589 17.8231206,16.682695 L20.4273759,15.2869504 C20.2038298,16.4057447 19.6779433,17.441844 18.9068085,18.282695 C17.9009929,19.2510638 16.5395035,19.7603546 15.1451064,19.6897872 L14.8614184,19.6897872 C13.47,19.7588652 12.1114894,19.2520567 11.1053901,18.2883688 C9.31248227,16.5011348 9.35219858,13.6075177 9.35219858,13.5791489 Z M16.6883688,16.8358865 C16.6883688,17.1147518 16.4622695,17.3408511 16.1834043,17.3408511 C15.904539,17.3408511 15.6784397,17.1147518 15.6784397,16.8358865 C15.6784397,16.5570213 15.904539,16.330922 16.1834043,16.330922 C16.4622695,16.330922 16.6883688,16.5570213 16.6883688,16.8358865 Z M14.4188652,27.6160284 L1.15361702,27.6160284 C1.60184397,23.3550355 8.52950355,21.5734752 10.6968794,21.1139007 L10.6968794,22.1295035 C10.6968794,23.4174468 12.2628369,24.3990071 14.4188652,24.5635461 L14.4188652,27.6160284 Z M11.8316312,22.1295035 L11.8316312,22.1124823 L11.8316312,20.1720567 C12.7747518,20.6094326 13.8049645,20.8267376 14.8443972,20.8075177 L15.1280851,20.8075177 C16.1675177,20.8267376 17.1977305,20.6094326 18.1408511,20.1720567 L18.1408511,22.1295035 C18.1408511,22.6685106 16.9096454,23.4458156 14.9862411,23.4458156 C13.0628369,23.4458156 11.8316312,22.6685106 11.8316312,22.1295035 Z M15.553617,27.6330496 L15.553617,24.5578723 C17.7096454,24.4103546 19.2756028,23.4231206 19.2756028,22.1238298 L19.2756028,21.130922 C21.46,21.5848227 28.353617,23.366383 28.8188652,27.6330496 L15.553617,27.6330496 Z" id="Shape"></path>
                        </g>
                    </g>
                </g>
            </g>
        </g>
    </g>
</svg>