<?xml version="1.0" encoding="UTF-8"?>
<svg width="35px" height="28px" viewBox="0 0 35 28" version="1.1" xmlns="http://www.w3.org/2000/svg" xmlns:xlink="http://www.w3.org/1999/xlink">
    <!-- Generator: Sketch 52.2 (67145) - http://www.bohemiancoding.com/sketch -->
    <title>cart-of-ecommerce</title>
    <desc>Created with Sketch.</desc>
    <g id="Page-1" stroke="none" stroke-width="1" fill="none" fill-rule="evenodd">
        <g id="Мой-кабинет-(Недоступен)" transform="translate(-349.000000, -37.000000)" fill="#E2E2E2" fill-rule="nonzero">
            <g id="Top">
                <g id="Notchatbask" transform="translate(275.000000, 30.000000)">
                    <g id="Group-12" transform="translate(74.000000, 0.000000)">
                        <g id="cart-of-ecommerce" transform="translate(0.000000, 7.000000)">
                            <path d="M30.2783871,18.2353226 L34.3508065,6.04629032 C34.5551613,5.46032258 34.4004839,5.10806452 34.2356452,4.87548387 C33.8133871,4.28048387 32.9451613,4.27483871 32.7769355,4.27483871 L9.7616129,4.27032258 L9.14741935,1.35629032 C8.98145161,0.668709677 8.49145161,0.0127419355 7.50354839,0.0127419355 L1.03532258,0.0127419355 C0.364677419,0.0127419355 0,0.326612903 0,0.953225806 L0,2.63548387 C0,3.24177419 0.363548387,3.39983871 1.05903226,3.39983871 L6.52016129,3.39983871 L10.6998387,21.1448387 C10.0359677,21.8482258 9.67467742,22.8733871 9.67467742,23.8296774 C9.67467742,25.9341935 11.3501613,27.873871 13.4908065,27.873871 C15.5117742,27.873871 17.0269355,25.9804839 17.2730645,24.8514516 L25.4133871,24.8514516 C25.6595161,25.9804839 26.8867742,27.9190323 29.1945161,27.9190323 C31.2979032,27.9190323 33.0083871,26.0967742 33.0083871,23.9956452 C33.0083871,21.9058065 31.7382258,20.0530645 29.2159677,20.0530645 C28.1670968,20.0530645 26.9229032,20.6175806 26.3448387,21.4643548 L16.3427419,21.4643548 C15.6167742,20.3353226 14.6254839,19.9853226 13.6229032,19.9458065 L13.4840323,19.2062903 L28.7022581,19.2062903 C29.8493548,19.2062903 30.0751613,18.7885484 30.2783871,18.2353226 Z M29.2227419,22.5154839 C30.0141935,22.5154839 30.6566129,23.1579032 30.6566129,23.9493548 C30.6566129,24.7408065 30.0141935,25.3832258 29.2227419,25.3832258 C28.4312903,25.3832258 27.7877419,24.7419355 27.7877419,23.9493548 C27.788871,23.1579032 28.4312903,22.5154839 29.2227419,22.5154839 Z M14.908871,23.9493548 C14.908871,24.7498387 14.2585484,25.4012903 13.4603226,25.4012903 C12.6598387,25.3990323 12.0083871,24.7498387 12.0083871,23.9493548 C12.0083871,23.148871 12.6598387,22.4974194 13.4603226,22.4974194 C14.2585484,22.4974194 14.908871,23.148871 14.908871,23.9493548 Z" id="Shape"></path>
                        </g>
                    </g>
                </g>
            </g>
        </g>
    </g>
</svg>