<?xml version="1.0" encoding="UTF-8"?>
<svg width="20px" height="16px" viewBox="0 0 20 16" version="1.1" xmlns="http://www.w3.org/2000/svg" xmlns:xlink="http://www.w3.org/1999/xlink">
    <!-- Generator: Sketch 52.2 (67145) - http://www.bohemiancoding.com/sketch -->
    <title>comments</title>
    <desc>Created with Sketch.</desc>
    <g id="Page-1" stroke="none" stroke-width="1" fill="none" fill-rule="evenodd">
        <g id="Мой-кабинет" transform="translate(-452.000000, -1736.000000)" fill="#9B9B9B">
            <g id="к" transform="translate(255.000000, 1100.000000)">
                <g id="Group-14" transform="translate(31.000000, 403.000000)">
                    <g id="comments" transform="translate(166.000000, 233.000000)">
                        <path d="M11.7938672,10.6875781 C13.0020703,10.1782812 13.9555859,9.48503906 14.6543359,8.60757812 C15.3532031,7.7303125 15.7026563,6.77496094 15.7026563,5.74148437 C15.7026563,4.70796875 15.3532031,3.75265625 14.6543359,2.87523437 C13.9555859,1.99792969 13.0020703,1.30460937 11.7938672,0.795195312 C10.5856641,0.285859375 9.2715625,0.0312890625 7.85136719,0.0312890625 C6.43128906,0.0312890625 5.1171875,0.286015625 3.90890625,0.795351562 C2.70078125,1.3046875 1.74722656,1.99800781 1.0484375,2.87535156 C0.349492187,3.75265625 0,4.70792969 0,5.74148438 C0,6.62617187 0.26421875,7.45925781 0.79203125,8.23980469 C1.31984375,9.02046875 2.04480469,9.67859375 2.96667969,10.2138281 C2.89238281,10.3924219 2.81617188,10.5557813 2.73808594,10.7046875 C2.65996094,10.8533594 2.56710938,10.9963672 2.45921875,11.1340234 C2.35140625,11.2717187 2.26785156,11.3794531 2.20832031,11.4572656 C2.14882812,11.5353125 2.0521875,11.6451172 1.91832031,11.78625 C1.78441406,11.9275391 1.69886719,12.0204688 1.66179687,12.0649609 C1.66179687,12.0575 1.64683594,12.0743359 1.61714844,12.1152344 C1.58734375,12.1561328 1.570625,12.1746094 1.566875,12.1711328 C1.56320312,12.1671094 1.54828125,12.1857031 1.52230469,12.2266016 C1.49628906,12.2675391 1.48324219,12.2879688 1.48324219,12.2879688 L1.4553125,12.3435547 C1.44421875,12.3657422 1.43671875,12.3879688 1.43304687,12.4104297 C1.42929687,12.4325781 1.42742187,12.4569141 1.42742187,12.4828516 C1.42742187,12.5087891 1.43109375,12.5328516 1.43859375,12.5552734 C1.45355469,12.6517969 1.49628906,12.7297266 1.566875,12.7894922 C1.63753906,12.8488672 1.71363281,12.8785156 1.79554687,12.8785156 L1.82902344,12.8785156 C2.20070312,12.8264844 2.52046875,12.7670312 2.78808594,12.7000391 C3.93308594,12.4026172 4.96664063,11.9267187 5.88855469,11.2725 C6.55761719,11.3914844 7.21199219,11.4509375 7.85136719,11.4509375 C9.27144531,11.4514063 10.5857031,11.1969141 11.7938672,10.6875781 Z M5.5540625,9.75652344 L5.06328125,10.1020703 C4.85507813,10.2432422 4.62472656,10.3884375 4.371875,10.5372266 L4.76230469,9.60027344 L3.68050781,8.97574219 C2.96660156,8.55949219 2.41277344,8.06875 2.01871094,7.50367187 C1.62460938,6.93863281 1.42765625,6.35125 1.42765625,5.74152344 C1.42765625,4.98304688 1.71960938,4.27300781 2.30320313,3.61128906 C2.88671875,2.94957031 3.67300781,2.42542969 4.661875,2.03867188 C5.65066406,1.65214844 6.71390625,1.45871094 7.85144531,1.45871094 C8.98898438,1.45871094 10.0523047,1.65214844 11.0410547,2.03867188 C12.0298437,2.42539063 12.8161328,2.94957031 13.3999609,3.61128906 C13.9835547,4.27296875 14.2752734,4.98300781 14.2752734,5.74152344 C14.2752734,6.49988281 13.9835547,7.20988281 13.3999609,7.87160156 C12.8161719,8.53351563 12.0298828,9.05753906 11.0410547,9.44410156 C10.0523047,9.83070313 8.98910156,10.0240234 7.85144531,10.0240234 C7.29394531,10.0240234 6.72515625,9.971875 6.14515625,9.86789063 L5.5540625,9.75652344 Z" id="Shape" fill-rule="nonzero"></path>
                        <path d="M19.1932422,11.0998438 C19.7212891,10.3226563 19.9851172,9.48832031 19.9851172,8.59601562 C19.9851172,7.68152344 19.70625,6.82636719 19.1488281,6.0309375 C18.5911328,5.23554688 17.8326562,4.57371094 16.8736328,4.04582031 C17.0444922,4.60339844 17.13,5.1684375 17.13,5.74105469 C17.13,6.73726563 16.88125,7.68152344 16.3827734,8.57382813 C15.8846484,9.46585938 15.1708594,10.2539063 14.2415234,10.9380469 C13.3790234,11.5625781 12.3975781,12.0419922 11.2971094,12.3766797 C10.1969531,12.7111328 9.04816406,12.8785547 7.85109375,12.8785547 C7.628125,12.8785547 7.3009375,12.8638281 6.86976562,12.8341406 C8.36414062,13.8153516 10.1188672,14.3062109 12.1336719,14.3062109 C12.7731641,14.3062109 13.4273828,14.2466016 14.0966016,14.1276563 C15.0184766,14.7821484 16.0520703,15.2577734 17.1969922,15.5553516 C17.4646484,15.6224609 17.784375,15.6817969 18.1561328,15.7337891 C18.2453125,15.7414063 18.3272656,15.7151953 18.4015625,15.6558594 C18.4758984,15.59625 18.5242969,15.5146875 18.5464844,15.4107031 C18.5430078,15.3660547 18.5464844,15.3415625 18.5576953,15.3380078 C18.5686719,15.3344922 18.5667969,15.3101953 18.5520703,15.2656641 C18.5373828,15.2209766 18.5298828,15.1986719 18.5298828,15.1986719 L18.5020703,15.1430469 C18.4943359,15.1283594 18.4817578,15.1077734 18.4630469,15.0818359 C18.4444531,15.0560547 18.4296484,15.0373047 18.4183984,15.0260938 C18.4074609,15.015 18.3908594,14.9962891 18.3683984,14.9704688 C18.3462109,14.9446875 18.33125,14.9278125 18.32375,14.9203516 C18.2866016,14.8757031 18.2011328,14.7828125 18.0673437,14.6414844 C17.9333984,14.5003516 17.8369141,14.3907031 17.7774219,14.3126563 C17.7179297,14.2345703 17.6342578,14.1268359 17.5264844,13.9891406 C17.41875,13.8517188 17.3257031,13.7085547 17.2476172,13.5598047 C17.1695703,13.4111328 17.0933594,13.2475 17.0190234,13.0691797 C17.9406641,12.5333984 18.6657422,11.8773047 19.1932422,11.0998438 Z" id="Path"></path>
                    </g>
                </g>
            </g>
        </g>
    </g>
</svg>