<?xml version="1.0" encoding="UTF-8"?>
<svg width="70px" height="70px" viewBox="0 0 70 70" version="1.1" xmlns="http://www.w3.org/2000/svg" xmlns:xlink="http://www.w3.org/1999/xlink">
    <!-- Generator: Sketch 52.2 (67145) - http://www.bohemiancoding.com/sketch -->
    <title>customer (1)</title>
    <desc>Created with Sketch.</desc>
    <g id="Page-1" stroke="none" stroke-width="1" fill="none" fill-rule="evenodd">
        <g id="Доп-услуги" transform="translate(-658.000000, -256.000000)" fill="#4A90E2" fill-rule="nonzero">
            <g id="Group-5" transform="translate(564.000000, 230.000000)">
                <g id="customer-(1)" transform="translate(94.000000, 26.000000)">
                    <path d="M67.8103125,34.5335156 C65.4698242,32.6045508 61.7704883,32.4391211 59.3425,35.0448437 L53.3149805,41.515332 C52.5356836,39.0107812 50.1965625,37.1870898 47.4392188,37.1870898 L36.6828711,37.1870898 C35.8666602,37.1870898 35.5933594,36.8753711 34.1755859,35.783125 C28.77,31.0707031 20.6508203,31.0857422 15.2616406,35.8282422 L11.3080078,39.3088281 C9.53080078,38.3682031 7.45554688,38.3449609 5.66863281,39.2377344 L1.13394531,41.5043945 C0.120859375,42.0116211 -0.289160156,43.2433203 0.2165625,44.2564062 L12.5205664,68.8642773 C13.027793,69.8773633 14.2594922,70.2873828 15.2725781,69.7816602 L19.8072656,67.5136328 C22.0424805,66.3967773 23.2864844,64.1163086 23.2058203,61.7950977 L47.439082,61.7950977 C51.9327539,61.7950977 56.2268164,59.64875 58.9227734,56.0533203 L68.7673438,42.9264062 C70.677168,40.3820703 70.3750195,36.6511523 67.8103125,34.5335156 Z M17.9725,63.8456055 L15.2724414,65.19625 L4.80183594,44.2564062 L7.50326172,42.9057617 C8.51634766,42.3999023 9.74667969,42.8086914 10.2539062,43.8231445 L18.8898828,61.0950977 C19.3957422,62.1080469 18.9855859,63.3383789 17.9725,63.8456055 Z M65.4862305,40.4654687 L55.6417969,53.5923828 C53.7155664,56.1611914 50.6491016,57.6936719 47.4392188,57.6936719 L21.7745117,57.6936719 L14.0899609,42.3233398 L17.9711328,38.9070117 C21.8331641,35.5096875 27.6571094,35.5096875 31.5191406,38.9070117 C33.7940039,40.9098047 35.2089063,41.2885156 36.6827344,41.2885156 L47.439082,41.2885156 C48.5697461,41.2885156 49.4897266,42.2086328 49.4897266,43.3391602 C49.4897266,44.4696875 48.5696094,45.3898047 47.439082,45.3898047 L36.9657422,45.3898047 C35.8337109,45.3898047 34.9150977,46.3085547 34.9150977,47.4404492 C34.9150977,48.5723438 35.8338477,49.4910938 36.9657422,49.4910938 L48.8131055,49.4910938 C50.5151172,49.4910938 52.1557422,48.7774219 53.3149805,47.5320508 L62.3433398,37.8406055 C63.1691211,36.954668 64.435,37.0284961 65.2115625,37.7079883 C66.0235352,38.4187891 66.1111719,39.6342187 65.4862305,40.4654687 Z" id="Shape"></path>
                    <path d="M43.563421,14.0021133 C44.9818774,12.5289051 45.8562399,10.5372216 45.8562399,8.34430413 C45.8562399,3.82741395 42.1712093,0 37.5689959,0 C33.001315,0 29.143622,3.8205739 29.143622,8.34430413 C29.143622,10.4700524 29.9848333,12.476784 31.5124124,14.0185294 C27.7237843,16.1223896 25,20.1604768 25,24.8962484 L25,26.9481242 C25,28.0806983 25.9282332,29 27.071811,29 L47.928189,29 C49.0717668,29 50,28.0806983 50,26.9481242 L50,24.8962484 C49.9998619,20.2535014 47.4213903,16.1524858 43.563421,14.0021133 Z M37.0655781,4 C39.1980458,4 41,5.86228605 41,8.06557807 C41,10.2347695 39.2347695,12 37.0655781,12 C34.8622861,12 33,10.1980458 33,8.06557807 C33,5.90032133 34.9003213,4 37.0655781,4 Z M29,25 C29,20.6629287 32.924028,17 37.5702526,17 C42.2178822,17 46,20.5881697 46,25 L29,25 Z" id="Shape"></path>
                </g>
            </g>
        </g>
    </g>
</svg>