<?xml version="1.0" encoding="UTF-8"?>
<svg width="15px" height="15px" viewBox="0 0 15 15" version="1.1" xmlns="http://www.w3.org/2000/svg" xmlns:xlink="http://www.w3.org/1999/xlink">
    <!-- Generator: Sketch 52.2 (67145) - http://www.bohemiancoding.com/sketch -->
    <title>dollar-coin-money</title>
    <desc>Created with Sketch.</desc>
    <g id="Page-1" stroke="none" stroke-width="1" fill="none" fill-rule="evenodd">
        <g id="Мой-кабинет-(Недоступен)" transform="translate(-651.000000, -44.000000)" fill="#4A90E2" fill-rule="nonzero">
            <g id="Top">
                <g id="Group-8" transform="translate(554.000000, 34.000000)">
                    <g id="Group-13" transform="translate(87.000000, 0.000000)">
                        <g id="dollar-coin-money" transform="translate(10.000000, 10.000000)">
                            <path d="M7.5,0 C3.3581543,0 0,3.3581543 0,7.5 C0,11.6418457 3.3581543,15 7.5,15 C11.6427539,15 15,11.6418457 15,7.5 C15,3.3581543 11.6427539,0 7.5,0 Z M9.54527344,10.3958203 C9.17630859,10.8096387 8.64351563,11.0531836 7.94677734,11.1264258 L7.94677734,12.1875 L7.05870117,12.1875 L7.05870117,11.1319043 C5.8969043,11.0129004 5.17819336,10.3372266 4.90081055,9.10675781 L6.27410156,8.7487793 C6.40136719,9.52239258 6.82250977,9.90875977 7.5375293,9.90875977 C7.87168945,9.90875977 8.11889648,9.82637695 8.27636719,9.66064453 C8.43383789,9.49491211 8.51255859,9.2953418 8.51255859,9.0609668 C8.51255859,8.81835938 8.43380859,8.63431641 8.27636719,8.50980469 C8.11889648,8.38441406 7.76824219,8.22597656 7.2253418,8.03373047 C6.73737305,7.86439453 6.35557617,7.69772461 6.08091797,7.53114258 C5.80625977,7.36634766 5.58287109,7.13472656 5.41166016,6.8371582 C5.24044922,6.53868164 5.1544043,6.19078125 5.1544043,5.79527344 C5.1544043,5.27616211 5.30821289,4.80832031 5.61401367,4.39268555 C5.91981445,3.97795898 6.40136719,3.72433594 7.05873047,3.631875 L7.05873047,2.8125 L7.94680664,2.8125 L7.94680664,3.6319043 C8.93923828,3.7509375 9.58195313,4.31214844 9.87398438,5.31647461 L8.65083984,5.81818359 C8.41189453,5.12970703 8.04380859,4.78546875 7.54397461,4.78546875 C7.29310547,4.78546875 7.09168945,4.86237305 6.94063477,5.01618164 C6.78864258,5.16999023 6.71267578,5.35675781 6.71267578,5.57557617 C6.71267578,5.79896484 6.78591797,5.97017578 6.93240234,6.09011719 C7.07797852,6.20915039 7.39201172,6.35654297 7.87174805,6.53323242 C8.3990918,6.72550781 8.81291016,6.90767578 9.11229492,7.07888672 C9.41258789,7.25009766 9.6515332,7.48722656 9.83097656,7.78842773 C10.0095117,8.09056641 10.0991895,8.44306641 10.0991895,8.84680664 C10.0991895,9.46655273 9.91423828,9.98291016 9.54527344,10.3958203 Z" id="Shape"></path>
                        </g>
                    </g>
                </g>
            </g>
        </g>
    </g>
</svg>