<svg width="208" height="196" viewBox="0 0 208 196" fill="none" xmlns="http://www.w3.org/2000/svg">
<path d="M201.5 26.0088H117V6.50876C117 4.57176 116.142 2.73876 114.647 1.50376C113.165 0.268759 111.176 -0.264241 109.304 0.125759L5.304 19.6258C2.223 20.1978 0 22.8758 0 26.0088V169.009C0 172.129 2.223 174.82 5.304 175.392L109.304 194.892C109.694 194.97 110.097 195.009 110.5 195.009C112.008 195.009 113.477 194.489 114.647 193.514C116.142 192.279 117 190.433 117 188.509V169.009H201.5C205.088 169.009 208 166.097 208 162.509V32.5088C208 28.9208 205.088 26.0088 201.5 26.0088ZM89.388 119.232C91.754 121.923 91.481 126.031 88.777 128.397C87.542 129.476 86.021 130.009 84.5 130.009C82.693 130.009 80.899 129.255 79.612 127.786L60.71 106.193L44.135 127.513C42.848 129.151 40.924 130.009 39 130.009C37.609 130.009 36.205 129.567 35.009 128.644C32.175 126.434 31.668 122.352 33.865 119.518L51.987 96.2218L34.112 75.7858C31.746 73.0948 32.019 68.9868 34.723 66.6208C37.414 64.2548 41.509 64.5148 43.901 67.2318L60.125 85.7698L79.378 61.0178C81.588 58.1968 85.67 57.6768 88.504 59.8868C91.338 62.0838 91.845 66.1658 89.635 69.0128L68.835 95.7408L89.388 119.232ZM195 156.009H117V143.009H136.5C140.088 143.009 143 140.097 143 136.509C143 132.921 140.088 130.009 136.5 130.009H117V117.009H136.5C140.088 117.009 143 114.097 143 110.509C143 106.921 140.088 104.009 136.5 104.009H117V91.0088H136.5C140.088 91.0088 143 88.0968 143 84.5088C143 80.9208 140.088 78.0088 136.5 78.0088H117V65.0088H136.5C140.088 65.0088 143 62.0968 143 58.5088C143 54.9208 140.088 52.0088 136.5 52.0088H117V39.0088H195V156.009Z" fill="#4A90E2" fill-opacity="0.17"/>
</svg>
