<svg width="25" height="24" viewBox="0 0 25 24" fill="none" xmlns="http://www.w3.org/2000/svg">
<path d="M23.7746 3.06873H13.8046V0.767958C13.8046 0.539414 13.7034 0.323142 13.527 0.177426C13.3521 0.0317104 13.1175 -0.0311774 12.8966 0.0148381L0.62581 2.31561C0.262288 2.3831 0 2.69907 0 3.06873V19.9411C0 20.3092 0.262288 20.6267 0.62581 20.6942L12.8966 22.995C12.9426 23.0042 12.9902 23.0088 13.0377 23.0088C13.2156 23.0088 13.389 22.9474 13.527 22.8324C13.7034 22.6867 13.8046 22.4688 13.8046 22.2418V19.9411H23.7746C24.198 19.9411 24.5416 19.5975 24.5416 19.1741V3.83565C24.5416 3.41231 24.198 3.06873 23.7746 3.06873ZM10.5467 14.068C10.8259 14.3855 10.7937 14.8702 10.4747 15.1493C10.3289 15.2766 10.1495 15.3395 9.97001 15.3395C9.75681 15.3395 9.54514 15.2506 9.39329 15.0772L7.16307 12.5295L5.20742 15.045C5.05556 15.2383 4.82855 15.3395 4.60154 15.3395C4.43742 15.3395 4.27177 15.2874 4.13065 15.1785C3.79627 14.9177 3.73645 14.4361 3.99567 14.1017L6.13386 11.353L4.02482 8.94184C3.74566 8.62433 3.77787 8.13963 4.09691 7.86047C4.41442 7.58131 4.89758 7.61199 5.17981 7.93256L7.09405 10.1198L9.36568 7.19938C9.62643 6.86654 10.1081 6.80518 10.4424 7.06594C10.7768 7.32516 10.8366 7.80679 10.5759 8.1427L8.12173 11.2963L10.5467 14.068ZM23.0077 18.4072H13.8046V16.8734H16.1054C16.5287 16.8734 16.8723 16.5298 16.8723 16.1064C16.8723 15.6831 16.5287 15.3395 16.1054 15.3395H13.8046V13.8057H16.1054C16.5287 13.8057 16.8723 13.4621 16.8723 13.0387C16.8723 12.6154 16.5287 12.2718 16.1054 12.2718H13.8046V10.738H16.1054C16.5287 10.738 16.8723 10.3944 16.8723 9.97105C16.8723 9.54771 16.5287 9.20412 16.1054 9.20412H13.8046V7.67028H16.1054C16.5287 7.67028 16.8723 7.32669 16.8723 6.90335C16.8723 6.48001 16.5287 6.13643 16.1054 6.13643H13.8046V4.60258H23.0077V18.4072Z" fill="#4A90E2"/>
</svg>
