<?xml version="1.0" encoding="UTF-8"?>
<svg width="595px" height="441px" viewBox="0 0 595 441" version="1.1" xmlns="http://www.w3.org/2000/svg" xmlns:xlink="http://www.w3.org/1999/xlink">
    <!-- Generator: Sketch 52.2 (67145) - http://www.bohemiancoding.com/sketch -->
    <title>undraw_all_the_data_h4ki</title>
    <desc>Created with Sketch.</desc>
    <g id="финансы" stroke="none" stroke-width="1" fill="none" fill-rule="evenodd">
        <g id="Artboard" transform="translate(-945.000000, -5911.000000)">
            <g id="undraw_all_the_data_h4ki" transform="translate(945.000000, 5912.000000)">
                <ellipse id="Oval" fill="#3F3D56" cx="518.5" cy="430" rx="76.5" ry="10"></ellipse>
                <rect id="Rectangle" fill="#F2F2F2" x="0" y="14" width="231" height="144"></rect>
                <rect id="Rectangle" stroke="#3F3D56" stroke-width="2" x="15" y="0" width="231" height="144"></rect>
                <path d="M165.35431,107 C179.653789,92.7596302 183.931449,71.343277 176.192626,52.7373438 C168.453804,34.1314107 150.222525,22.0000139 130,22 L130,71.7918557 L165.35431,107 Z" id="Path" fill="#3F3D56"></path>
                <path d="M130,22 C107.140311,22.0026967 87.1933684,37.3581776 81.5514817,59.2964567 C75.909595,81.2347358 86.0096138,104.168676 106.083108,115 L130,71.5117525 L130,22 Z" id="Path" fill="#4A90E2"></path>
                <path d="M166,107.354424 L130.211924,72 L106,115.915977 C125.711087,126.510293 150.129367,123.025987 166,107.354424 Z" id="Path" fill="#575A89"></path>
                <rect id="Rectangle" fill="#4A90E2" x="24" y="114" width="9" height="9"></rect>
                <rect id="Rectangle" fill="#3F3D56" x="37" y="114" width="9" height="9"></rect>
                <rect id="Rectangle" fill="#575A89" x="51" y="114" width="9" height="9"></rect>
                <rect id="Rectangle" fill="#3F3D56" x="189" y="116" width="40" height="2"></rect>
                <rect id="Rectangle" fill="#3F3D56" x="189" y="121" width="40" height="2"></rect>
                <rect id="Rectangle" fill="#3F3D56" x="189" y="126" width="40" height="2"></rect>
                <rect id="Rectangle" fill="#F2F2F2" x="73" y="216" width="132" height="144"></rect>
                <rect id="Rectangle" stroke="#3F3D56" stroke-width="2" x="86" y="201" width="132" height="144"></rect>
                <rect id="Rectangle" fill="#4A90E2" x="92" y="329" width="8" height="8"></rect>
                <rect id="Rectangle" fill="#3F3D56" x="103" y="329" width="8" height="8"></rect>
                <rect id="Rectangle" fill="#575A89" x="113" y="329" width="8" height="8"></rect>
                <rect id="Rectangle" fill="#3F3D56" x="173" y="332" width="27" height="1"></rect>
                <rect id="Rectangle" fill="#3F3D56" x="173" y="336" width="27" height="1"></rect>
                <rect id="Rectangle" fill="#3F3D56" x="173" y="339" width="27" height="1"></rect>
                <path d="M152,228 L152,239.569282 C166.256881,239.569274 179.109942,248.025569 184.565816,260.995006 C190.02169,273.964443 187.005936,288.892912 176.924796,298.819287 L185.233047,307 C198.67456,293.764834 202.695563,273.860215 195.421069,256.567637 C188.146574,239.275059 171.00917,227.999999 152,228 Z" id="Path" fill="#3F3D56"></path>
                <path d="M185,306.280295 L176.782118,298 C164.454735,310.423579 144.913169,311.758597 131.03427,301.125349 L124,310.451256 C142.508055,324.624899 168.562055,322.84342 185,306.280295 Z" id="Path" fill="#575A89"></path>
                <path d="M116.752212,273.766619 C116.752212,254.395251 132.533184,238.691655 152,238.691655 L152,227 C131.82611,226.999805 113.902611,239.811782 107.462187,258.836275 C101.021763,277.860768 107.50135,298.853188 123.563206,311 L130.674602,301.688793 C121.896884,295.063561 116.744255,284.72966 116.752212,273.766619 Z" id="Path" fill="#4A90E2"></path>
                <path d="M495.262939,75.0378098 C495.262939,75.0378098 493.064707,91.1283463 498.717299,92.984953 C504.369891,94.8415597 502.799723,109.075495 502.799723,109.075495 L485.841952,121.762264 L470.768395,123 L467,103.815126 L469.198205,98.8641713 C469.198205,98.8641713 477.677093,88.9623043 471.710472,78.7510019 C465.74385,68.5396996 495.262939,75.0378098 495.262939,75.0378098 Z" id="Path" fill="#FFB9B9"></path>
                <path d="M495.262939,75.0378098 C495.262939,75.0378098 493.064707,91.1283463 498.717299,92.984953 C504.369891,94.8415597 502.799723,109.075495 502.799723,109.075495 L485.841952,121.762264 L470.768395,123 L467,103.815126 L469.198205,98.8641713 C469.198205,98.8641713 477.677093,88.9623043 471.710472,78.7510019 C465.74385,68.5396996 495.262939,75.0378098 495.262939,75.0378098 Z" id="Path" fill="#000000" opacity="0.1"></path>
                <path d="M480,199.461526 L460.427183,245 C460.427183,245 445.203885,236.384616 436.194175,237.307693 C427.184465,238.23077 416,227.461543 416,227.461543 L427.184465,173.923074 L447.999997,117 L476.893201,135.153845 L480,199.461526 Z" id="Path" fill="#575A89"></path>
                <path d="M480,199.461526 L460.427183,245 C460.427183,245 445.203885,236.384616 436.194175,237.307693 C427.184465,238.23077 416,227.461543 416,227.461543 L427.184465,173.923074 L447.999997,117 L476.893201,135.153845 L480,199.461526 Z" id="Path" fill="#000000" opacity="0.1"></path>
                <polygon id="Path" fill="#575A89" points="510 394.428497 510 409 496 409 498.177659 392"></polygon>
                <polygon id="Path" fill="#575A89" points="545.602651 368 556 374.400073 548.438193 392 540.561807 391.039824 533 380.160029"></polygon>
                <path d="M512.69177,195 L531,237.970264 C531,237.970264 524.483509,285.577577 524.79382,289.596403 C525.104131,293.615229 525.414436,295.160899 523.862893,298.561423 C522.311349,301.961947 521.690732,304.125914 522.62166,308.144719 C523.552587,312.163524 523.862893,313.70921 523.242276,315.254902 C522.62166,316.800593 518.277334,380.483141 516.105169,384.811081 C513.933003,389.139021 517.346407,396.249209 515.174241,396.867506 C513.002076,397.485803 496.866012,395.94009 495.935084,392.230431 C495.004157,388.520772 499.038193,379.555746 496.866012,376.773498 C494.69383,373.99125 497.176323,273.830356 494.07323,267.029308 C490.970137,260.228261 456.836154,254.045488 456.836154,254.045488 C456.836154,254.045488 453.733045,234.260621 455.594921,231.169238 C457.456797,228.077854 459.939231,208.602101 459.939231,208.602101 L512.69177,195 Z" id="Path" fill="#2F2E41"></path>
                <path d="M494.728485,406.511409 C494.728485,406.511409 503.217067,396.360739 510.492991,406.511409 C510.492991,406.511409 511.099317,418.507678 516.253083,420.968431 C521.40685,423.429183 518.981557,433.272272 511.705633,433.57987 C504.429708,433.887468 495.03163,435.117849 494.72847,431.119102 C494.425309,427.120354 495.941121,424.65958 493.212653,423.429199 C490.484184,422.198818 493.212653,415.124106 493.212653,415.124106 L494.728485,406.511409 Z" id="Path" fill="#2F2E41"></path>
                <path d="M496.429186,258.411116 C496.429186,258.411116 496.118269,280.751121 493.941867,283.853903 C491.765465,286.956684 490.521798,288.818347 491.76546,292.231403 C493.009122,295.644459 494.874629,301.850017 493.941867,303.091131 C493.009106,304.332245 494.874607,310.848077 494.874607,310.848077 C494.874607,310.848077 518.815043,322.328359 530.007996,346.219752 C530.007996,346.219752 541.51185,365.146701 544.931898,365.456981 C548.351945,365.76726 552.393854,363.285033 550.528369,370.421425 C548.662884,377.557817 541.511834,386.866151 536.22628,385.935317 C530.940725,385.004483 526.898865,376.006429 526.898865,376.006429 C526.898865,376.006429 485.547177,334.118927 481.194368,332.877802 C476.841559,331.636678 464.40496,321.7078 462.228558,315.502242 C460.052156,309.296684 455.38843,257.480282 457.564832,254.067226 C459.741234,250.65417 467.825029,246 467.825029,246 L496.429186,258.411116 Z" id="Path" fill="#2F2E41"></path>
                <path d="M548.557692,367 C548.557692,367 567.683159,367.612788 567.991631,372.208707 C568.300103,376.804627 559.971278,404.073739 561.205176,410.508021 C562.439074,416.942304 551.642443,431.649247 544.547516,428.585299 C537.452589,425.52135 543.005135,409.588837 543.005135,409.588837 C543.005135,409.588837 535.910209,387.834829 537.144123,387.528433 C538.378036,387.222036 550.717032,383.545306 550.100083,379.86857 C549.483134,376.191834 548.557692,367 548.557692,367 Z" id="Path" fill="#2F2E41"></path>
                <circle id="Oval" fill="#FFB9B9" cx="480.5" cy="71.5" r="19.5"></circle>
                <path d="M500.28205,100.441731 C500.28205,100.441731 489.675212,111.603173 481.876067,109.742932 C474.076923,107.882691 470.021369,94.5509712 470.021369,94.5509712 L455.982908,92.0706461 C455.982908,92.0706461 446,136.096339 446,140.4369 C446,144.777461 455.982908,191.593511 455.982908,199.964591 C455.982908,208.335671 447.871796,213.296316 460.350429,212.986274 C472.829063,212.676232 466.901708,208.645713 484.995728,208.335676 C503.089748,208.02564 505.897436,212.056153 509.641022,205.545315 C512.194191,201.297443 515.345784,197.434472 519,194.073831 L512.448716,171.130864 L511.512796,106.332475 C511.512796,106.332475 503.5146,90.8304729 499.870535,92.0706301 C499.870556,92.0706301 501.841878,98.8915161 500.28205,100.441731 Z" id="Path" fill="#4A90E2"></path>
                <path d="M495.707291,90 C495.707291,90 512.331808,91.8102244 517.008867,95.2172916 C521.685927,98.6243587 534.781689,101.1022 534.469883,103.580079 C534.158077,106.057957 519.191497,141.367494 519.191497,141.367494 C519.191497,141.367494 512.331808,169.243458 518.256085,175.747852 C524.180362,182.252246 546.318427,253.181086 542.576785,259.06601 C538.835142,264.950935 526.986593,241.101496 526.986593,241.101496 C526.986593,241.101496 511.084595,189.995564 502.354087,181.323047 C493.623579,172.65053 493,125.880848 493,123.71272 C493,121.544592 495.707291,90 495.707291,90 Z" id="Path" fill="#575A89"></path>
                <path d="M472,94.3046901 C472,94.3046901 451.863669,86.6406155 444.813965,89.7367059 C437.76426,92.8327963 433.473136,93.4519878 433.473136,93.4519878 L431.021081,123.793493 C431.021081,123.793493 430.101554,167.448103 422.132322,177.974747 C414.163091,188.50139 408.952445,232.465604 410.178456,236.800104 C411.404468,241.134604 408.032897,248.565178 413.243564,246.707535 C418.45423,244.849891 432.86013,202.124103 432.86013,202.124103 C432.86013,202.124103 432.86013,177.665138 441.442378,170.853781 C450.024626,164.042425 464.124031,135.868177 464.737052,129.056826 C465.350074,122.245475 471.173736,103.359435 471.173736,103.359435 L472,94.3046901 Z" id="Path" fill="#575A89"></path>
                <path d="M541,191.646089 C541,191.646089 531.793229,208.876685 530.565657,211.953598 C529.338085,215.030512 520.745098,235.953382 508.469405,231.338038 C496.193713,226.722694 520.43823,204.261362 520.43823,204.261362 L525.96229,185.492304 C525.96229,185.492304 540.386217,182.415406 541,191.646089 Z" id="Path" fill="#FFB9B9"></path>
                <path d="M437,93.0401361 L433.890866,93.0401361 C433.890866,93.0401361 430.781733,90.6059516 427.050815,92.1273163 C423.319897,93.648681 414.614355,91.5187714 414.614355,92.4315913 C414.614355,93.3444112 404.9761,89.6931317 400.934253,91.5187714 C396.892406,93.3444112 382.279563,93.952956 382.279563,93.952956 C382.279563,93.952956 376.372262,108.558053 380.414099,111.296528 C384.455935,114.035004 390.363262,111.905073 393.161467,114.034988 C395.959671,116.164903 401.245166,113.730713 403.11063,116.469172 C404.976094,119.207632 411.816151,124.076001 413.370712,121.033272 C414.925274,117.990542 411.816151,115.252098 418.345294,118.599082 C424.874438,121.946066 435.134514,121.946092 435.134514,121.946092 L437,93.0401361 Z" id="Path" fill="#575A89"></path>
                <path d="M481.822818,57.4500663 C479.257108,56.8437457 476.593694,57.5156348 473.995047,57.9511875 C471.3964,58.3867403 468.5326,58.530331 466.334404,57.047448 C464.711017,55.952315 463.71293,54.140581 462.775706,52.3978601 C462.384625,51.7754788 462.123974,51.0769239 462.010212,50.3463075 C461.89987,49.0574417 462.701517,47.8815179 463.5528,46.9244973 C467.506996,42.4791429 473.285395,40.0460912 479.112643,39.273231 C483.902834,38.6379359 488.896957,39.0633797 493.320494,41.0476576 C497.744032,43.0319355 501.546587,46.665695 503.285735,51.2745038 C504.086755,53.6333292 504.586989,56.0879582 504.774059,58.5776562 C505.036845,60.4094659 505.070557,62.2680377 504.874381,64.1085551 C504.640168,65.4729822 504.289485,66.8137911 503.826359,68.1155934 L500.945483,77.0123225 C500.738365,77.8530378 500.351474,78.6362941 499.81269,79.3056468 C499.244076,79.9789918 498.309516,80.1883968 497.517719,79.8198764 C497.748265,78.853541 497.783406,77.8492297 497.620988,76.8685119 C497.436572,75.8685418 496.675843,75.0839192 495.699696,74.8868739 C494.637829,74.7716247 493.73073,75.6134766 492.723425,75.9760456 C491.743994,76.2729899 490.687801,76.1379517 489.809986,75.6035518 C488.932172,75.0691519 488.312565,74.1839882 488.10084,73.1618866 C487.941828,72.1447597 488.208821,71.0558939 487.831864,70.100719 C487.390208,68.9816123 486.219027,68.3952306 485.339151,67.5910725 C483.699979,66.0440339 483.085992,63.665628 483.764844,61.4926683 C484.000406,60.7522543 484.665647,60.4156605 484.532552,59.565084 C484.357947,58.4491913 482.749318,57.6690178 481.822818,57.4500663 Z" id="Path" fill="#2F2E41"></path>
                <rect id="Rectangle" fill="#F2F2F2" x="269" y="125" width="132" height="144"></rect>
                <rect id="Rectangle" stroke="#3F3D56" stroke-width="2" x="283" y="112" width="132" height="144"></rect>
                <polyline id="Path" stroke="#3F3D56" stroke-width="2" points="295 120 295 230 402 230"></polyline>
                <rect id="Rectangle" fill="#575A89" x="301" y="192" width="24" height="38"></rect>
                <rect id="Rectangle" fill="#3F3D56" x="336" y="166" width="24" height="64"></rect>
                <rect id="Rectangle" fill="#4A90E2" x="370" y="136" width="24" height="94"></rect>
                <rect id="Rectangle" fill="#4A90E2" x="294" y="239" width="8" height="8"></rect>
                <rect id="Rectangle" fill="#3F3D56" x="304" y="239" width="8" height="8"></rect>
                <rect id="Rectangle" fill="#575A89" x="314" y="239" width="8" height="8"></rect>
                <rect id="Rectangle" fill="#3F3D56" x="374" y="243" width="27" height="1"></rect>
                <rect id="Rectangle" fill="#3F3D56" x="374" y="245" width="27" height="1"></rect>
                <rect id="Rectangle" fill="#3F3D56" x="374" y="249" width="27" height="1"></rect>
                <path d="M384.717728,94.0089594 C390.359345,94.2509183 394.55123,99.2976405 393.94094,104.835307 C393.388063,109.852273 391.348504,116.095056 384.923971,118.492964 C373.476084,122.765795 374.094888,98.6548164 376.260702,97.7391884 C377.704605,97.1288063 379.973555,93.8054952 384.717728,94.0089594 Z" id="Path" fill="#FFB9B9"></path>
                <path d="M531.245307,102 L534.681815,103.643372 C534.681815,103.643372 542.179648,118.715869 542.492059,120.869086 C542.804471,123.022303 547.803026,131.019952 545.928567,133.173169 C544.054107,135.326385 541.242423,140.863219 543.116878,143.016431 C544.991332,145.169642 549.365074,153.782504 549.365074,156.858522 C549.365074,159.93454 544.678931,168.239799 547.803026,169.162605 C550.927122,170.085411 549.989898,182.08189 549.365074,183.004697 C548.740251,183.927503 540.6176,199 540.6176,199 C540.6176,199 539.055552,181.774286 523.747474,188.849134 C523.747474,188.849134 522.497833,180.236277 523.747474,179.621075 C524.997116,179.005872 528.121212,175.314646 525.621929,174.699438 C523.122646,174.084231 519.68616,166.701789 520.310962,165.778978 C520.935764,164.856166 522.497833,163.625761 520.935785,162.702939 C519.373737,161.780116 518.124096,156.550903 518.436507,155.628096 C518.748919,154.70529 515,150.398861 515,150.398861 L531.245307,102 Z" id="Path" fill="#575A89"></path>
            </g>
        </g>
    </g>
</svg>