<?xml version="1.0" encoding="UTF-8"?>
<svg width="617px" height="515px" viewBox="0 0 617 515" version="1.1" xmlns="http://www.w3.org/2000/svg" xmlns:xlink="http://www.w3.org/1999/xlink">
    <!-- Generator: sketchtool 52.2 (67145) - http://www.bohemiancoding.com/sketch -->
    <title>578E97CE-A86C-4344-9103-DA6347EB427E</title>
    <desc>Created with sketchtool.</desc>
    <defs>
        <linearGradient x1="50.0120973%" y1="100.018084%" x2="50.0120973%" y2="-0.0230630906%" id="linearGradient-1">
            <stop stop-color="#808080" stop-opacity="0.25" offset="0%"></stop>
            <stop stop-color="#808080" stop-opacity="0.12" offset="54%"></stop>
            <stop stop-color="#808080" stop-opacity="0.1" offset="100%"></stop>
        </linearGradient>
    </defs>
    <g id="финансы" stroke="none" stroke-width="1" fill="none" fill-rule="evenodd">
        <g id="Artboard" transform="translate(-1132.000000, -825.000000)">
            <g id="il1" transform="translate(1132.000000, 825.000000)">
                <ellipse id="Oval" fill="#4A90E2" opacity="0.1" cx="438" cy="509" rx="63" ry="6"></ellipse>
                <path d="M270.138663,7.52165005 C297.900784,-2.81356452 331.698416,6.07508934 360.560697,19.0387355 C451.210138,59.764036 517.250429,137.071933 569.720039,215.832547 C588.717762,244.351338 606.762834,274.125866 613.90465,305.962512 C628.446421,370.762276 590.518582,437.84576 526.014826,461.35391 C504.079247,469.356161 479.980226,472.637083 455.844329,474.46529 C412.925822,477.72159 368.489219,476.428919 325.914897,464.370143 C295.552958,455.752334 266.832039,441.889974 239.285032,426.574897 C162.353779,383.781323 92.0972354,328.208769 41.5083445,260.325061 C19.3207737,230.550533 0.550457488,196.984169 0.00959703505,162.629891 C-0.531263418,128.275613 21.8222533,93.7551348 58.6007641,87.9134918 C73.8063182,85.5005054 89.8907706,88.011981 105.58187,90.5973235 C128.685216,94.407626 152.102015,98.4149069 174.941077,96.752901 C198.536114,95.0231837 229.223799,85.7898175 233.526098,63.2296261 C238.080389,39.0074288 242.413418,17.8445535 270.138663,7.52165005 Z" id="Path" fill="#4A90E2" opacity="0.1"></path>
                <path d="M149.561967,473.037958 C149.561967,473.037958 179.209004,471.277111 175.713528,491.741663 C175.713528,491.741663 176.407709,495.372275 173.0781,497 C173.0781,497 173.028954,495.481194 170.03722,495.995531 C168.974552,496.175425 167.893717,496.228249 166.818189,496.152857 C165.363658,496.053645 163.981436,495.490785 162.880404,494.549337 C162.880404,494.549337 154.544094,491.160765 151.306633,477.739601 C151.306633,477.739601 148.904645,474.816958 149.002936,474.06058 L154.003493,476.166335 C154.003493,476.166335 152.295686,479.724336 153.641045,482.677234 C153.641045,482.677234 153.800768,476.299458 154.765249,476.444682 C154.955688,476.474938 157.363819,477.654887 157.363819,477.654887 C157.363819,477.654887 154.42123,483.845081 156.638922,488.34704 C156.638922,488.34704 155.797305,480.716703 158.279154,478.102662 L161.805345,480.129754 C161.805345,480.129754 158.365159,486.525683 160.699571,491.741663 C160.699571,491.741663 160.085252,483.736162 162.542528,480.619887 L165.736987,483.040295 C165.736987,483.040295 162.505669,489.345459 164.477633,493.67799 C164.477633,493.67799 164.729504,484.353367 166.425024,483.651448 C166.425024,483.651448 169.220176,486.071856 169.644056,487.076326 C169.644056,487.076326 167.432508,491.650898 168.802439,494.065255 C168.802439,494.065255 169.644056,487.856908 170.338237,487.826653 C170.338237,487.826653 173.114959,491.941347 173.409832,494.761122 C173.409832,494.761122 173.286968,490.567765 171.007844,487.433336 C171.007844,487.433336 173.698562,487.887163 175.271219,489.605653 C175.271219,489.605653 174.835052,486.695112 170.32595,486.440969 C170.32595,486.440969 168.028397,483.324693 167.407935,483.13106 C167.407935,483.13106 171.898607,482.761948 174.62004,483.953999 C174.62004,483.953999 172.224196,481.206836 166.584747,482.453346 L163.433291,479.924019 C163.433291,479.924019 169.349183,479.125285 171.849462,480.008734 C171.849462,480.008734 168.968305,477.588325 162.58553,479.349172 L159.15763,477.328131 C159.15763,477.328131 164.195046,476.257101 167.199066,476.644366 C167.199066,476.644366 164.02918,474.962182 158.150147,476.78354 L155.692871,475.700407 C155.692871,475.700407 159.378785,474.986386 160.46613,474.871417 C161.553474,474.756448 161.60262,474.465999 161.60262,474.465999 C159.264246,474.080045 156.862982,474.341918 154.666958,475.222376 C154.666958,475.222376 149.469819,473.388917 149.561967,473.037958 Z" id="Path" fill="#4A90E2"></path>
                <ellipse id="Oval" fill="#4A90E2" opacity="0.1" cx="170" cy="499.5" rx="21" ry="3.5"></ellipse>
                <path d="M110.321913,459.02211 C110.321913,459.02211 126.782663,457.995521 124.840766,469.932751 C125.051192,471.174452 124.461774,472.414489 123.382832,473 C123.382832,473 123.352584,472.117384 121.695015,472.417849 C121.105815,472.522164 120.506505,472.551594 119.910406,472.505484 C119.100813,472.453833 118.330635,472.125812 117.720479,471.57279 C117.720479,471.57279 113.098644,469.588468 111.283787,461.763855 C111.283787,461.763855 109.952892,460.054959 110.001289,459.616781 L112.784069,460.868719 C112.784069,460.868719 111.834294,462.946936 112.578385,464.668351 C112.578385,464.668351 112.669128,460.943835 113.183337,461.031471 C113.292229,461.031471 114.629173,461.751335 114.629173,461.751335 C114.629173,461.751335 112.995802,465.363177 114.229905,468.011026 C114.229905,468.011026 113.758042,463.560386 115.137333,462.033021 L117.091329,463.216103 C117.091329,463.216103 115.185729,466.971918 116.486376,469.989089 C116.486376,469.989089 116.153653,465.319359 117.508746,463.504049 L119.281256,464.931258 C119.281256,464.931258 117.466399,468.605697 118.585561,471.134612 C118.585561,471.134612 118.7247,465.694941 119.668425,465.288061 C119.668425,465.288061 121.217103,466.702751 121.453034,467.284902 C121.453034,467.284902 120.24313,469.95153 120.987221,471.359961 C120.987221,471.359961 121.453034,467.74186 121.840203,467.723081 C121.840203,467.723081 123.382832,470.120542 123.540119,471.766841 C123.462969,470.246281 123.004271,468.772758 122.209224,467.491472 C123.099217,467.659891 123.921752,468.095242 124.574587,468.74341 C124.574587,468.74341 124.338656,467.047034 121.828104,466.896801 C121.828104,466.896801 120.551655,465.075231 120.212882,464.968816 C120.212882,464.968816 122.705285,464.749727 124.217666,465.444553 C124.217666,465.444553 122.886771,463.842072 119.753118,464.568196 L118.004806,463.090909 C118.004806,463.090909 121.289697,462.627692 122.681087,463.140987 C122.681087,463.140987 121.077964,461.726297 117.532944,462.759146 L115.633394,461.576064 C117.096766,461.245254 118.59549,461.11269 120.091892,461.181703 C120.091892,461.181703 118.33753,460.198932 115.070788,461.263079 L113.709646,460.63711 C113.709646,460.63711 115.760434,460.217711 116.359336,460.155114 C116.958239,460.092517 116.994536,459.917246 116.994536,459.917246 C115.695003,459.694334 114.361197,459.848165 113.140991,460.361684 C113.140991,460.361684 110.273517,459.22868 110.321913,459.02211 Z" id="Path" fill="#4A90E2"></path>
                <ellipse id="Oval" fill="#4A90E2" opacity="0.1" cx="122" cy="474" rx="12" ry="2"></ellipse>
                <path d="M521.362995,470.027675 C521.362995,470.027675 541.12761,468.76673 538.811209,483.267602 C539.054087,484.778424 538.346161,486.282397 537.054355,487 C537.054355,487 537.018255,485.921892 535.026752,486.287566 C534.317528,486.414023 533.596299,486.450011 532.878817,486.394746 C531.909165,486.32874 530.987253,485.929909 530.255568,485.259895 C530.255568,485.259895 524.696206,482.857794 522.536237,473.337657 C522.536237,473.337657 520.935815,471.263402 521.001998,470.733804 L524.335208,472.22172 C524.335208,472.22172 523.198066,474.743611 524.094543,476.843085 C524.094543,476.843085 524.202842,472.316291 524.840605,472.429776 C524.97297,472.429776 526.573393,473.299828 526.573393,473.299828 C526.573393,473.299828 524.611973,477.713137 526.092063,480.865501 C526.092063,480.865501 525.532517,475.456045 527.187089,473.602455 L529.533573,475.033628 C529.533573,475.033628 527.241238,479.573032 528.799544,483.273906 C528.799544,483.273906 528.39643,477.599652 530.00287,475.386693 L532.132755,477.126798 C532.132755,477.126798 529.978803,481.596849 531.290427,484.69247 C531.290427,484.69247 531.46491,478.085116 532.596035,477.580738 C532.596035,477.580738 534.455173,479.301928 534.737954,480.008058 C534.737954,480.008058 533.263881,483.254992 534.178408,484.969878 C534.178408,484.969878 534.737954,480.556569 535.201234,480.556569 C535.201234,480.556569 537.054355,483.475658 537.246887,485.474256 C537.157285,483.626406 536.607594,481.835332 535.652481,480.279161 C536.721835,480.491291 537.708827,481.025947 538.492328,481.817514 C538.492328,481.817514 538.20353,479.755869 535.189201,479.573032 C535.189201,479.573032 533.660978,477.360073 533.251847,477.227673 C533.251847,477.227673 536.26016,476.962875 538.065148,477.807708 C538.065148,477.807708 536.464725,475.865852 532.704334,476.748514 L530.604532,474.951667 C530.604532,474.951667 534.545422,474.384241 536.218044,475.008409 C536.218044,475.008409 534.292724,473.287219 530.038969,474.54186 L527.752652,473.110687 C527.752652,473.110687 531.109929,472.354119 533.113465,472.625223 C533.113465,472.625223 531.001629,471.433629 527.096839,472.726098 L525.460317,471.956922 C525.460317,471.956922 527.921117,471.446239 528.643112,471.370582 C529.365107,471.294925 529.401207,471.080564 529.401207,471.080564 C527.843289,470.808192 526.243812,470.993695 524.780438,471.616466 C524.780438,471.616466 521.302829,470.267255 521.362995,470.027675 Z" id="Path" fill="#4A90E2"></path>
                <ellipse id="Oval" fill="#4A90E2" opacity="0.1" cx="535.5" cy="488.5" rx="14.5" ry="2.5"></ellipse>
                <path d="M500.994062,321.245411 C500.607192,319.081229 500.383467,316.890986 500.324779,314.693212 C500.324779,312.056352 496.745037,309.720671 496.745037,309.720671 C496.745037,309.720671 494.534561,304.600613 493.06091,303.84459 C491.58726,303.088567 487.037364,296.388852 487.037364,296.388852 C486.985024,295.067271 486.504393,293.798651 485.668097,292.774693 C484.30504,290.98087 483.06004,289.100157 481.940989,287.144473 C481.326968,286.394597 481.633979,285.865995 480.712947,281.495814 C480.663826,281.268392 480.608564,281.047117 480.541021,280.838135 C480.541021,280.739791 480.479619,280.65374 480.442778,280.555395 C482.437192,278.552699 483.112202,275.584855 482.180458,272.915261 C482.01498,272.394985 481.714023,271.928234 481.308548,271.563025 C480.270852,270.714804 478.612995,271.065156 477.544599,270.259961 L478.680538,265.232101 C478.950707,264.002795 479.091932,262.447723 478.017395,261.783898 C477.614242,261.592364 477.189576,261.449975 476.752512,261.359788 C474.910449,260.745135 473.842052,258.796686 473.363116,256.921995 C472.902712,255.116215 472.777833,253.241097 472.994703,251.390119 C473.20347,249.607626 473.725388,247.874305 473.915734,246.085666 C474.262027,242.777373 473.466811,239.450083 471.662277,236.656891 C470.960477,235.45155 469.92656,234.474187 468.684275,233.841782 C467.548336,233.33162 466.228191,233.227129 465.165935,232.612476 C462.881776,231.155749 462.99844,227.695253 461.174798,225.709925 C459.351155,223.724596 456.121405,223.730743 453.462694,224.413007 C450.803983,225.095272 448.157552,226.256966 445.431299,225.968079 C443.675198,225.77139 442.029622,224.972342 440.267382,224.787946 C439.763195,224.739991 439.254789,224.762748 438.75689,224.855558 L438.75689,224.800239 C437.455165,225.033807 436.257824,225.759097 435.950814,226.994549 C435.881897,227.288437 435.852981,227.5903 435.864851,227.891942 C435.864851,228.611086 436.036777,229.360963 436.049057,230.049374 C436.094869,230.601905 435.91548,231.149493 435.5517,231.567566 C435.201708,231.942504 434.685931,232.139193 434.323658,232.526425 C434.025162,232.825618 433.863022,233.23472 433.875423,233.657386 C433.875423,234.751468 435.238549,235.716473 436.153441,236.159023 L436.190282,236.159023 C435.944674,236.404884 435.699065,236.663038 435.471877,236.927339 C432.848995,239.892448 431.402837,243.71712 431.407058,247.677616 C431.452572,254.215021 435.369876,260.101853 441.37876,262.662852 L441.249815,263.062376 C440.991249,263.852648 440.689934,264.628256 440.347204,265.385764 C439.061371,264.952852 437.650199,265.11031 436.491152,265.816021 C434.735052,267.045326 431.302675,266.946982 430.387783,266.71956 C429.472892,266.492139 419.949426,265.287419 419.181899,265.588599 C418.414373,265.889779 416.897741,264.537543 415.909167,266.344622 C414.920593,268.151701 414.460078,269.128999 413.453083,269.583843 C412.446089,270.038686 410.708409,271.46468 410.941737,271.76586 C411.175065,272.06704 408.424251,273.874119 408.424251,273.874119 C408.424251,273.874119 406.06027,276.33273 404.691003,276.658496 C403.321736,276.984262 400.423557,278.84666 400.423557,278.84666 L397.064862,281.477374 C397.064862,281.477374 394.553516,281.858459 395.314902,280.125138 C396.076288,278.391817 393.939495,276.2098 393.939495,276.2098 C393.939495,276.2098 389.672048,267.549342 389.672048,265.760702 C389.672048,263.972062 386.165988,256.344221 386.165988,256.344221 L385.736174,256.301195 L385.539687,255.741861 C384.894965,253.928635 384.059896,251.703592 383.421314,250.400528 C382.193272,247.911184 381.438026,247.65303 381.438026,247.65303 C381.438026,247.65303 366.6524,236.540107 357.049111,239.926844 C347.445822,243.313581 374.579411,253.406181 377.017075,254.463383 C377.870564,254.832175 378.484585,256.024602 378.9144,257.419863 C376.751321,258.464057 374.93026,260.103632 373.66452,262.146544 C373.66452,262.146544 379.534561,275.171037 379.688066,278.410257 C379.841572,281.649477 383.728325,290.703313 383.728325,290.703313 C383.728325,290.703313 385.177414,297.409175 393.024603,297.028091 C393.024603,297.028091 403.849794,299.019566 406.213775,297.028091 C408.577756,295.036615 410.708409,293.475397 411.856628,293.247976 C412.701111,292.97021 413.443186,292.445727 413.987281,291.742076 C413.987281,291.742076 410.407539,314.330567 408.651439,316.29131 C406.895338,318.252052 391.379027,343.612627 396.948198,348.148765 C401.358884,351.567598 406.020167,354.649552 410.892615,357.368557 C411.365412,357.602125 412.7838,355.235712 414.81007,353.557709 C414.81007,353.98182 414.81007,354.412077 414.81007,354.86692 C414.846911,363.890023 416.038112,377.609074 417.683688,380.682338 C420.139772,385.200036 419.132778,393.934253 419.132778,393.934253 C420.424115,394.542598 421.826358,394.879399 423.252859,394.923844 C423.326541,395.218877 423.412504,395.538496 423.492327,395.845823 C424.837033,400.929002 427.016808,408.790411 428.128186,410.880231 C429.804463,414.045693 431.020225,424.064533 431.020225,424.064533 C431.020225,424.064533 432.014939,433.898978 431.634246,435.281947 C431.486881,435.804402 432.131603,439.89799 433.144738,445.116392 C432.530717,452.178753 431.364077,465.793313 431.16759,470.716682 C431.16759,470.80888 431.16759,470.901078 431.16759,470.987129 L431.16759,471.07318 C431.17065,471.128457 431.17065,471.18386 431.16759,471.239137 C431.16759,471.349774 431.16759,471.448119 431.16759,471.540316 C431.148539,471.850143 431.160883,472.161105 431.204431,472.468442 C431.280517,472.937282 431.244749,473.417489 431.100048,473.869851 C430.665599,475.230949 430.112916,476.55135 429.448331,477.815922 C429.168382,478.437216 428.92241,479.073297 428.711506,479.721345 C428.097485,479.991793 427.348379,480.649471 426.930845,482.253715 C426.169459,485.191755 425.02738,493.317465 425.02738,493.317465 C425.02738,493.317465 424.566864,498.290007 423.658113,499.420968 C422.749362,500.551929 421.81605,507.626583 428.306252,508.530123 C434.796454,509.433662 437.60253,505.088067 437.60253,505.088067 L437.375343,485.370005 L437.375343,485.333125 C437.506505,485.167345 437.61971,484.988091 437.713054,484.798378 L437.713054,484.749205 C437.756036,484.657007 437.805157,484.558663 437.848139,484.448025 L437.903401,484.300509 L438.001644,484.060794 C437.998112,484.032219 437.998112,484.003318 438.001644,483.974743 C438.631443,482.086061 438.820488,480.07802 438.554263,478.104808 L438.554263,478.006464 L438.554263,477.852801 C438.554263,477.803629 438.554263,477.74831 438.554263,477.699138 L438.554263,477.391811 C438.554263,477.354932 438.554263,477.311906 438.554263,477.275027 C438.554263,477.143901 438.566543,477.008678 438.591104,476.869356 C438.591104,476.869356 438.591104,476.820184 438.591104,476.795598 L438.627946,476.555883 L438.627946,476.451392 C438.627946,476.371488 438.627946,476.291583 438.677067,476.205531 C438.674734,476.185109 438.674734,476.164488 438.677067,476.144066 C438.738469,475.861326 438.812152,475.529413 438.891975,475.258966 L438.891975,475.191354 L438.984078,474.896321 C439.076181,474.582848 439.180564,474.281668 439.291088,473.949755 L439.291088,473.88829 C439.291088,473.789946 439.358631,473.691601 439.395472,473.599403 L439.395472,473.562524 C439.505996,473.261344 439.62266,472.947871 439.733183,472.689717 L439.763884,472.609812 L439.862128,472.363951 L439.892829,472.290193 L440.126157,471.743152 L441.925239,477.30576 C441.925239,477.30576 442.919953,481.44852 442.385754,482.425818 C441.851556,483.403116 442.999775,487.472117 443.755021,487.545876 L443.048897,492.665934 C442.667184,495.489057 442.439658,498.33093 442.367334,501.178875 C442.318212,501.504641 442.26909,501.793528 442.232249,501.990217 C441.741032,504.614784 442.919953,508.683786 442.919953,508.683786 C448.937359,515.807612 456.109124,509.236973 456.109124,509.236973 C456.109124,509.236973 456.944193,505.469152 456.109124,504.719275 C455.274056,503.969399 455.648609,501.252633 455.648609,501.252633 C455.648609,501.252633 456.029302,494.546771 456.102984,489.654135 C456.176667,484.761498 452.105707,480.434343 452.105707,480.434343 L451.87852,480.637178 C451.135554,478.719461 450.288205,476.482125 450.466271,475.480241 C450.773282,473.74692 449.625062,455.448706 449.625062,455.448706 C450.049353,450.543314 450.139618,445.614702 449.895232,440.697038 C449.993475,439.867257 450.085578,439.049769 450.177681,438.238427 C450.638197,434.304649 451.01275,430.942498 451.160115,429.178445 L451.160115,428.969463 C451.196956,428.49618 451.215377,428.158121 451.209237,427.998311 C451.209237,427.383659 451.209237,426.682954 451.270639,425.914638 C451.411864,423.800233 451.743435,421.446112 451.743435,421.446112 L453.33989,411.728451 C453.33989,411.728451 454.567932,406.983332 456.317892,404.352618 L456.526659,404.020705 C456.594201,403.903921 456.661743,403.774844 456.735426,403.63962 L456.766127,403.584302 C456.833669,403.455225 456.907352,403.320001 456.974894,403.178631 L457.005595,403.123312 C457.251204,402.637736 457.515233,402.078402 457.791542,401.46375 C457.791542,401.414577 457.834524,401.371552 457.852944,401.322379 L458.061711,400.855243 C458.061711,400.793778 458.110833,400.732313 458.141534,400.670847 C458.172235,400.609382 458.270478,400.357374 458.338021,400.203711 C458.368312,400.141807 458.394965,400.078185 458.417844,400.013169 C458.497666,399.828773 458.583629,399.638231 458.663452,399.441542 L458.780116,399.158801 C458.835378,399.017431 458.89678,398.876061 458.958182,398.734691 L459.105547,398.359753 C459.148529,398.267555 459.18537,398.175357 459.222211,398.083159 L459.387997,397.659049 C459.387997,397.597583 459.443259,397.529972 459.467819,397.468506 C459.903774,396.380571 460.321309,395.304928 460.695862,394.32763 C460.812526,394.020304 460.92919,393.712978 461.033573,393.44253 C464.938747,393.682245 467.591318,393.897373 467.591318,393.897373 C467.591318,393.897373 468.81936,385.089399 468.426386,379.293223 C468.168498,375.334859 468.905323,370.356171 469.390399,367.614819 C469.445661,367.313639 469.494783,367.043192 469.543905,366.797331 L469.648288,366.883382 C471.557894,368.389282 472.927161,363.416741 472.927161,363.416741 C472.927161,363.416741 472.411383,358.776112 471.699119,353.152039 L471.625436,352.592705 C472.725928,352.827681 473.839207,352.998026 474.95957,353.102866 C474.95957,353.102866 475.573591,353.047548 476.4148,352.943057 C478.741829,354.291574 481.19788,355.403494 483.746211,356.262182 L487.80489,348.763418 C488.567613,347.208905 489.461171,345.722223 490.475882,344.319478 C491.703924,342.813578 496.038912,337.9947 495.96523,337.091161 C495.891547,336.187621 497.414319,330.987658 498.937092,328.651978 C500.459864,326.316297 501.067745,321.620349 500.994062,321.245411 Z M484.071642,326.967829 C482.469047,327.643947 480.946275,331.411769 480.872593,332.54273 C480.79891,333.673691 479.116493,338.640086 477.366533,339.242446 C475.751657,339.795633 472.669272,342.635329 472.178055,343.090172 C471.674558,343.133198 471.103518,343.20081 470.507918,343.299154 C469.838635,338.547888 469.175492,334.61411 468.751818,333.821208 C467.523775,331.559285 470.096524,324.330968 470.096524,324.330968 C470.096524,324.330968 470.348272,317.028893 471.938587,315.295572 C473.528901,313.562251 473.166629,309.19207 473.166629,309.19207 C473.166629,309.19207 473.547322,307.38499 473.700827,306.561356 C473.854332,305.737721 475.966565,306.561356 475.984985,306.561356 C475.984985,306.561356 480.098926,308.817131 480.712947,312.203868 C481.326968,315.590605 485.821602,321.466686 485.821602,321.466686 C485.821602,321.466686 485.133899,323.501187 485.821602,324.53995 C486.509306,325.578714 485.674237,326.291711 484.071642,326.967829 Z" id="Shape" fill="url(#linearGradient-1)" fill-rule="nonzero"></path>
                <path d="M374,261.969365 C376.500618,257.70909 381.227618,255.409343 386,256.131209 L386,265 L380.786,265 L376.706,263.93401 L374,261.969365 Z" id="Path" fill="#4C4981"></path>
                <path d="M374,261.969365 C376.500618,257.70909 381.227618,255.409343 386,256.131209 L386,265 L380.786,265 L376.706,263.93401 L374,261.969365 Z" id="Path" fill="#000000" opacity="0.1"></path>
                <path d="M387,258.404006 L380.475333,263 C380.475333,263 380.420195,262.082033 380.254781,260.82522 C379.930079,258.447132 379.201032,254.88 377.626535,254.189984 C375.231094,253.130318 348.562667,243.038846 358.021902,239.644218 C367.481137,236.249589 381.994692,247.376084 381.994692,247.376084 C381.994692,247.376084 382.742119,247.63484 383.936776,250.117663 C384.549421,251.423763 385.388744,253.64783 386.019768,255.46528 C386.601781,257.104067 387,258.404006 387,258.404006 Z" id="Path" fill="#AE6E79"></path>
                <polygon id="Path" fill="#4C4981" points="438.93484 266.348624 439.739362 266 442 268.373089 440.151596 272 437 270.83792 437.731383 267.938838"></polygon>
                <path d="M429.321956,480.003795 C429.321956,480.003795 427.492142,479.783147 426.762608,482.706729 C426.033075,485.63031 424.932794,493.739112 424.932794,493.739112 C424.932794,493.739112 424.49627,498.685297 423.617242,499.813052 C422.738213,500.940807 421.865165,507.983144 428.078161,508.877993 C434.291157,509.772842 437,505.451825 437,505.451825 L436.778748,485.795796 L429.321956,480.003795 Z" id="Path" fill="#444053"></path>
                <path d="M451.738011,480 C451.738011,480 455.711097,484.372746 455.638197,489.332689 C455.565296,494.292632 455.188643,501.095375 455.188643,501.095375 C455.188643,501.095375 454.824139,503.850205 455.638197,504.612312 C456.452254,505.374419 455.638197,509.197448 455.638197,509.197448 C455.638197,509.197448 448.651883,515.862762 442.783379,508.635238 C442.783379,508.635238 441.641269,504.506117 442.115123,501.844988 C442.588978,499.18386 443.91334,487.221277 443.91334,487.221277 L451.738011,480 Z" id="Path" fill="#444053"></path>
                <path d="M461,390.15303 C461,390.15303 456.96428,401.544551 455.239927,404.185706 C453.515574,406.82686 452.329316,411.590812 452.329316,411.590812 L450.757832,421.322355 C450.451048,423.49822 450.275436,425.690873 450.231965,427.888216 C450.305342,430.078893 446.342998,461.994899 446.342998,461.994899 L440.063173,470.072636 C440.063173,470.072636 437.299316,475.731371 437.745692,478.094834 C438.192067,480.458297 437.44607,484.210217 436.522746,485.339496 C436.522746,485.339496 436.375993,492.744602 436.149748,494.392238 C435.923503,496.039874 436.975236,500.735945 436.149748,501.562848 C435.324259,502.389752 424.336094,502.019497 424.036473,500.655723 C423.736851,499.291949 425.381713,492.73226 425.381713,492.73226 L426.353954,486.394723 C426.353954,486.394723 428.298438,482.926665 427.852063,481.791216 C427.405687,480.655766 428.671436,478.020783 428.744813,477.792459 C428.818189,477.564134 430.842164,473.867752 430.469166,472.436099 C430.096168,471.004445 432.823336,440.557118 432.823336,440.557118 L440.521778,386 L461,390.15303 Z" id="Path" fill="#AE6E79"></path>
                <path d="M461,390.141682 C461,390.141682 460.388527,391.857611 459.55081,394.110538 C458.217799,397.665842 456.297775,402.560557 455.239927,404.177727 C453.521688,406.819516 452.323202,411.584611 452.323202,411.584611 L450.751717,421.324663 C450.447989,423.501288 450.274424,425.694405 450.231965,427.8921 C450.231965,428.756236 449.657181,434.268192 448.923413,440.619595 C447.792189,450.328785 446.342998,462.006972 446.342998,462.006972 L440.063173,470.086647 C440.063173,470.086647 439.745207,470.703888 439.34775,471.679127 C438.55895,473.530848 437.44607,476.536809 437.745692,478.086082 C438.192067,480.425422 437.44607,484.196761 436.522746,485.332483 C436.522746,485.332483 436.369878,492.739367 436.149748,494.387398 C435.929617,496.03543 436.975236,500.726456 436.149748,501.559731 C435.324259,502.393005 424.336094,502.016488 424.036473,500.65856 C423.736851,499.300631 425.381713,492.733194 425.381713,492.733194 L426.353954,486.387964 C426.353954,486.387964 428.298438,482.919073 427.845948,481.783351 C427.393458,480.647629 428.671436,478.012013 428.744813,477.783634 C428.818189,477.555255 430.842164,473.857986 430.469166,472.425988 C430.181774,471.333473 431.692111,453.452021 432.395305,444.971139 C432.633779,442.304661 432.786648,440.570216 432.786648,440.570216 L439.408897,393.622918 L439.946993,389.839235 L440.485089,386 L461,390.141682 Z" id="Path" fill="#000000" opacity="0.1"></path>
                <path d="M454.999677,503.546536 C455.068037,504.377081 444.279443,505.582909 442.738215,504.678538 C441.196987,503.774167 442.738215,492.564887 442.738215,492.564887 L443.440468,487.452421 C442.688498,487.372443 441.545006,483.312001 442.07325,482.333804 C442.601493,481.355607 441.619582,477.221339 441.619582,477.221339 L439.829769,471.684373 L438.735994,468.294519 C436.95861,464.412491 434.385754,453.338559 432.788595,445.070023 C431.781825,439.877579 431.141718,435.786377 431.284655,435.263441 C431.663747,433.909961 430.663192,424.054161 430.663192,424.054161 C430.663192,424.054161 429.420266,414.044557 427.779604,410.888487 C426.667186,408.796744 424.498281,400.940404 423.155921,395.871005 C422.472312,393.268631 422,391.398367 422,391.398367 C422,391.398367 433.484633,390.444778 440.451232,390.11256 C443.651765,389.958755 445.901461,389.940299 445.640446,390.198691 C445.379432,390.457082 445.311071,391.835172 445.3235,393.828479 C445.354573,398.990162 446.081685,408.070786 446.852299,410.513203 C447.915,413.896905 448.977702,424.048009 448.524034,425.032359 C448.070366,426.016708 448.219517,432.55648 448.219517,432.55648 C449.002537,435.213213 449.453358,437.955009 449.561877,440.720429 C449.804918,445.619916 449.71772,450.529994 449.300862,455.417997 C449.300862,455.417997 450.438139,473.702289 450.133623,475.431053 C449.829106,477.159817 452.563542,482.579891 452.563542,483.631915 C452.563542,484.683938 453.321727,491.832777 453.321727,491.832777 C453.321727,491.832777 454.94996,502.722143 454.999677,503.546536 Z" id="Path" fill="#AE6E79"></path>
                <path d="M461,283.941862 L459.717837,285.342541 L458.881378,286.25576 L453.996947,291.562298 L441.376799,293 L434.660706,291.185904 L433,290.735466 C433,290.735466 433,287.329408 433.299171,283.244608 C433.726559,278.005943 434.746184,271.644268 437.182294,269.910387 C438.402197,268.945387 439.375701,267.699183 440.021369,266.276025 C440.508621,265.294701 440.916974,264.275356 441.242477,263.227851 C441.291321,263.092102 441.327955,262.962524 441.370693,262.826775 C441.92012,260.998131 442.316342,259.126013 442.555168,257.230228 C442.555168,257.230228 444.16703,256.32935 446.407763,255.280384 C452.250763,252.522218 462.343218,248.715085 458.832534,257.230228 C458.316563,258.477229 457.876151,259.754805 457.513737,261.055872 C457.458788,261.247154 457.409943,261.438436 457.367205,261.623548 C456.194941,266.362411 456.970345,269.237814 457.843437,270.823605 C457.991027,271.098288 458.160507,271.360368 458.350196,271.607245 C458.588682,271.938308 458.874723,272.231547 459.198866,272.477271 L460.651984,281.800735 L460.774095,282.572035 L461,283.941862 Z" id="Path" fill="#AE6E79"></path>
                <path d="M458.288121,257.401274 C457.634041,259.070064 458.60616,256.038217 458.288121,257.401274 C455.6718,259.375796 449.509044,265 446.046619,265 C443.706332,265 443.004246,264.547771 441,263.585987 C441.60654,261.570405 442.038387,259.500236 442.290158,257.401274 C442.290158,257.401274 463.058707,245.248408 458.288121,257.401274 Z" id="Path" fill="#000000" opacity="0.1"></path>
                <path d="M464,247.5 C463.993163,255.941189 457.620987,263.018121 449.226744,263.907164 C448.657352,263.962866 448.08177,264 447.5,264 C438.387302,264 431,256.612698 431,247.5 C431,238.387302 438.387302,231 447.5,231 C456.612698,231 464,238.387302 464,247.5 Z" id="Path" fill="#AE6E79"></path>
                <path d="M467,320.504764 L464.639417,326.59215 C464.639417,326.59215 462.71989,326.672005 459.725676,326.764145 C449.618652,327.083564 427.348411,327.48898 426.354481,324.921344 C426.131638,324.270011 426.014233,323.587961 426.006606,322.900406 C425.876152,318.987525 427.721135,312.979994 427.721135,312.979994 C427.721135,312.979994 428.783397,300.958789 428.783397,300.436662 C428.783397,299.914535 427.870224,291.492935 427.870224,291.492935 L429.69657,284.735998 L434.784249,281.203963 C434.784249,281.203963 437.064075,284.662286 438.430729,284.957134 C439.797382,285.251983 441.623728,286.916646 441.623728,286.916646 C441.623728,286.916646 446.102625,289.619421 447.550035,288.114467 C448.997446,286.609513 460.235065,280 460.235065,280 L466.161372,286.462089 L467,320.504764 Z" id="Path" fill="#000000" opacity="0.1"></path>
                <path d="M467,321.511614 L464.638343,327.593885 C464.638343,327.593885 462.717943,327.679897 459.722368,327.772053 L459.430268,327.772053 C458.137572,327.815059 456.658429,327.858065 455.079848,327.888783 C447.043999,328.073095 435.975287,328.122244 430.189227,327.274413 C428.014017,326.967227 426.590808,326.52488 426.354642,325.922797 C426.223659,325.560713 426.131992,325.185888 426.081187,324.804642 C426.043898,324.522031 426.019038,324.190271 426.006609,323.901517 C425.876096,319.987974 427.721917,313.979427 427.721917,313.979427 C427.721917,313.979427 428.784663,301.95619 428.784663,301.433975 C428.784663,300.911759 427.871075,292.488735 427.871075,292.488735 L429.698251,285.730656 L433.197232,283.310034 L434.788243,282.204167 C435.323387,282.996068 435.906584,283.755183 436.534626,284.477339 C437.025149,285.128247 437.681315,285.639113 438.436382,285.957973 C439.809872,286.259015 441.630833,287.917816 441.630833,287.917816 C441.630833,287.917816 446.111767,290.621048 447.559835,289.115839 C448.65987,287.966965 455.496245,283.83225 458.653407,281.946131 C459.62293,281.362479 460.250633,281 460.250633,281 L461.046139,281.872407 L466.179635,287.463181 L467,321.511614 Z" id="Path" fill="#FFFFFF"></path>
                <path d="M387,259.120196 L380.228883,264 C380.228883,264 380.171662,263.025348 380,261.690924 C383.344233,260.238757 385.378747,257.026983 385.963669,256 C386.586739,257.739984 387,259.120196 387,259.120196 Z" id="Path" fill="#000000" opacity="0.1"></path>
                <path d="M409.971535,274.119451 L408.535891,273.733533 C408.535891,273.733533 406.184406,276.223324 404.82302,276.553221 C403.461634,276.883118 400.590347,278.756686 400.590347,278.756686 L397.25495,281.420761 C397.25495,281.420761 394.779703,281.806679 395.516089,280.051377 C396.252475,278.296074 394.154703,276.09261 394.154703,276.09261 C394.154703,276.09261 389.915842,267.340996 389.915842,265.511 C389.915842,263.681004 386.413366,256 386.413366,256 C386.413366,256 382.019802,264.602226 374,261.863457 C374,261.863457 379.829208,275.028224 379.977723,278.302299 C380.126238,281.576373 383.987624,290.70768 383.987624,290.70768 C383.987624,290.70768 385.429455,297.486135 393.220297,297.106442 C393.220297,297.106442 403.969059,299.116948 406.314356,297.106442 C408.659653,295.095936 410.77599,293.514919 411.883663,293.284613 C412.991337,293.054308 414,291.765841 414,291.765841 L414,282.715453 L409.971535,274.119451 Z" id="Path" fill="#4C4981"></path>
                <path d="M397,283 C397,283 398.74309,290.225397 397.626601,291 L397,283 Z" id="Path" fill="#000000" opacity="0.1"></path>
                <path d="M459,327.771235 C449.108511,328.083007 427.313191,328.472721 426.340457,325.972554 C426.122366,325.336815 426.007464,324.671095 426,324 L458.313007,325.678769 L459,327.771235 Z" id="Path" fill="#000000" opacity="0.1"></path>
                <path d="M461,390.310496 C461,390.310496 460.391386,392.091057 459.557584,394.428845 C455.449438,394.166244 450.008427,393.890833 444.841292,393.852404 C443.015449,393.852404 441.226124,393.852404 439.534176,393.916453 C435.943352,394.031741 432.839419,394.339176 430.861423,394.928427 C428.360498,395.738748 425.74651,396.093981 423.132022,395.97883 C422.462547,393.269558 422,391.32247 422,391.32247 C422,391.32247 433.247191,390.329711 440.069757,389.983846 L440.605337,386 L461,390.310496 Z" id="Path" fill="#000000" opacity="0.1"></path>
                <path d="M471,363.080821 L469.712359,365.771613 C469.712359,365.771613 469.532832,366.572735 469.303781,367.844746 C468.820915,370.584461 468.065664,375.525733 468.350431,379.464074 C468.728057,385.224815 467.514703,393.969889 467.514703,393.969889 C467.514703,393.969889 439.657086,391.652138 431.485518,393.969889 C423.313951,396.287639 419.290073,393.969889 419.290073,393.969889 C419.290073,393.969889 420.280566,385.2982 417.853858,380.80947 C416.200973,377.751752 415.037143,364.102099 415,355.124638 C415,350.984488 415.21048,347.847269 415.736679,347.211264 C417.401946,345.19317 424.514924,325 424.514924,325 L426.136856,325.085616 L430.470263,325.311887 L455.108777,326.596129 L458.977891,326.797938 L459.386469,328.021025 L471,363.080821 Z" id="Path" fill="#444053"></path>
                <path d="M482.76316,353.612014 L483,356 C483,356 470.38345,352.089063 471.023559,347.282632 C471.663668,342.4762 471.023559,343.018371 471.023559,343.018371 L481.162887,343.834672 L482.76316,353.612014 Z" id="Path" fill="#4C4981"></path>
                <path d="M482.76316,353.612014 L483,356 C483,356 470.38345,352.089063 471.023559,347.282632 C471.663668,342.4762 471.023559,343.018371 471.023559,343.018371 L481.162887,343.834672 L482.76316,353.612014 Z" id="Path" fill="#000000" opacity="0.1"></path>
                <path d="M404.806647,284.873343 C406.022634,285.880625 407.455982,286.607547 409,287 C408.552932,286.905409 408.137398,286.702843 407.791541,286.410898 C406.939577,285.821797 406.129909,285.179676 405.308157,284.555228 C404.643505,284.048601 403.81571,283.206186 403,283 C403.534037,283.683772 404.139504,284.311591 404.806647,284.873343 Z" id="Path" fill="#000000" opacity="0.1"></path>
                <path d="M404.669928,287.958015 C405.098534,288.391337 405.44569,288.884097 405.697839,289.417052 C406.124563,290.923881 406.0989,292.504906 405.623451,294 L403.486478,289.386781 C403.114536,288.599749 402.742595,287.812717 402.296265,287.06201 C402.100151,286.741143 400.869362,285.403188 401.011376,285.1247 C401.39008,284.337668 404.270936,287.516067 404.669928,287.958015 Z" id="Path" fill="#000000" opacity="0.1"></path>
                <path d="M458.564367,313.728367 C459.85162,313.560757 461.05538,312.955181 462,312 C460.058121,312.263431 458.217816,313.085852 456.305812,313.516337 C454.5306,313.95981 452.669673,313.775021 451,312.989474 C453.198805,314.146003 456.222162,314.184554 458.564367,313.728367 Z" id="Path" fill="#000000" opacity="0.1"></path>
                <path d="M453,299.984998 C452.634528,300.038587 452.262408,299.947363 451.964868,299.731239 C450.434128,298.864745 448.924299,297.961115 447.435383,297.020351 C445.986198,296.098153 444.235885,295.163578 443,294 C446.04266,296.710888 448.878294,299.000908 453,299.984998 Z" id="Path" fill="#000000" opacity="0.1"></path>
                <path d="M457.908891,315.993589 C458.662048,316.017457 459.416497,315.974622 460.154298,315.866104 C460.900693,315.757467 461.560342,315.454696 462,315.018949 C461.733251,314.975893 461.453033,315.006848 461.218222,315.105309 C458.940587,315.775879 456.439511,315.985344 454,315.709833 C455.169728,316.059387 456.668626,315.989476 457.908891,315.993589 Z" id="Path" fill="#000000" opacity="0.1"></path>
                <path d="M443,350.802973 C441.445743,351.384484 439.848735,351.77273 438.232555,351.961981 C436.974823,352.034023 435.714638,352.003657 434.460108,351.871079 L428.355825,351.39384 L425.303684,351.151433 C424.943531,351.151433 423.472399,351.151433 424.198809,350.249982 C424.565066,349.81062 426.603896,350.090903 427.128864,350.068177 C428.142175,350.027776 429.159556,350.00505 430.181006,350 C432.201523,350 434.228145,350 436.248663,350.151504 C438.513352,350.287858 440.741415,350.499964 443,350.802973 Z" id="Path" fill="#000000" opacity="0.1"></path>
                <path d="M436,354.395796 C434.961152,354.366005 433.622872,354.795849 432.55347,354.889478 C431.357222,354.987998 430.151688,355.020728 428.948058,354.987363 C426.566332,354.947548 424.213726,354.613228 422,354 C426.662593,354.165979 431.337407,354.263864 436,354.395796 Z" id="Path" fill="#000000" opacity="0.1"></path>
                <path d="M423.052421,357.186039 C423.488389,357.272927 423.917736,357.38948 424.337383,357.534862 C426.824786,358.232507 429.471336,357.616254 432,357 C431.369308,357.936008 430.231704,358.337154 429.0941,358.592958 C427.243819,359.055323 425.315056,359.124681 423.435552,358.796437 C422.84612,358.680163 421.366645,358.47087 421.077823,357.866243 C420.594489,356.976745 422.498355,357.098833 423.052421,357.186039 Z" id="Path" fill="#000000" opacity="0.1"></path>
                <path d="M437.896593,362.356799 C438.680477,362.516513 439.454138,362.722449 440.213486,362.973519 C443.156064,363.701249 446.21015,362.702162 449.165118,362.029938 C452.717361,361.226916 456.360033,360.891024 460,361.030852 C459.349535,361.030852 458.314987,361.598234 457.676912,361.789417 C456.8406,362.042272 455.991899,362.276626 455.143198,362.486311 C453.476769,362.893346 451.785561,363.226374 450.081963,363.466895 C446.642799,363.961908 443.162477,364.112729 439.693114,363.9171 C438.107219,363.83076 435.356683,363.991107 434,363.195538 C435.172762,362.501749 436.54068,362.207305 437.896593,362.356799 Z" id="Path" fill="#000000" opacity="0.1"></path>
                <path d="M438.877535,269.498515 C438.877535,269.498515 439.025003,276.421762 437.900559,279.582107 C437.544178,280.565872 436.991173,282.379689 436.389012,284.414853 C435.73155,286.671364 435.012643,289.198411 434.459638,291.178238 C433.906633,293.158066 433.537963,294.486149 433.537963,294.486149 C433.537963,294.486149 431.000284,315.16981 430.342822,325.025907 C430.342822,325.198066 430.342822,325.376373 430.305955,325.542383 C430.269088,326.095751 430.207643,326.673713 430.115475,327.270121 C428.653084,337.058584 420.216682,352.15323 417.384067,353.358342 C416.500752,353.763957 415.694181,354.319358 415,355 C415,350.837444 415.208913,347.683247 415.731196,347.0438 C417.384067,345.014784 424.4441,324.712332 424.4441,324.712332 L426.053959,324.798411 C426.017092,324.515579 425.992514,324.183558 425.980225,323.894577 C425.851191,319.977962 427.676108,313.964698 427.676108,313.964698 C427.676108,313.964698 428.726818,301.932021 428.726818,301.409396 C428.726818,300.88677 427.823576,292.457133 427.823576,292.457133 L429.63006,285.693748 L433.089414,283.271226 C433.519529,278.051123 434.545661,271.711986 436.997318,269.984249 C438.225005,269.022668 439.204723,267.780879 439.854511,266.362763 C440.339927,266.430397 439.455119,266 439.455119,266 L438.877535,269.498515 Z" id="Path" fill="#000000" opacity="0.1"></path>
                <path d="M440,265.240561 C438.730567,264.807041 437.333368,264.96483 436.192936,265.670503 C434.458538,266.898909 431.075848,266.794495 430.171747,266.573382 C429.267646,266.352268 419.869917,265.142288 419.101124,265.443248 C418.33233,265.744207 416.843947,264.39296 415.866041,266.198718 C414.888136,268.004475 414.439161,268.974916 413.461256,269.423284 C412.483351,269.871653 410.748953,271.302746 411.001118,271.603706 C411.253282,271.904665 408.540979,273.704281 408.540979,273.704281 L414.027088,291.516174 C414.027088,291.516174 410.490639,314.045147 408.762392,315.998313 C407.034144,317.951479 391.689031,343.262793 397.18129,347.771045 C401.529409,351.185443 406.130786,354.265307 410.945764,356.984093 C411.560799,357.285052 413.725721,353.231311 416.73324,351.953768 C419.74076,350.676226 429.070835,333.773354 429.648967,324.161074 C430.2271,314.548794 432.884049,293.143812 432.884049,293.143812 C432.884049,293.143812 436.119132,281.424815 437.244645,278.267811 C438.370158,275.110806 438.22255,268.194878 438.22255,268.194878 L440,265.240561 Z" id="Path" fill="#4C4981"></path>
                <path d="M470,362.2297 L468.720462,364.924093 C468.720462,364.924093 468.542065,365.726287 468.314455,367 C468.086345,366.971403 467.872076,366.875421 467.699292,366.724437 C465.816895,365.22415 454.78088,353.919946 454.233385,343.883332 C453.845833,336.479875 454.030381,330.099062 454.153414,327.257702 C454.190324,326.363654 454.227233,325.824775 454.227233,325.708426 C454.227233,325.708426 462.802599,315.371755 461.82449,311.70983 C460.846382,308.047905 458.588736,288.440071 458.588736,288.440071 L458.256548,285.868151 L457.684447,281.52038 L456.318786,271 L457.73366,271.330676 C457.973946,271.659229 458.262146,271.950245 458.588736,272.194106 L460.052822,281.446897 L465.134065,287.019391 L465.964534,320.94425 L463.626916,327.006634 C463.626916,327.006634 461.726064,327.092365 458.760981,327.184219 L458.471855,327.184219 L470,362.2297 Z" id="Path" fill="#000000" opacity="0.1"></path>
                <path d="M475.054448,306.673243 C475.054448,306.673243 472.935676,305.846623 472.78699,306.673243 C472.638304,307.499863 472.254199,309.287811 472.254199,309.287811 C472.254199,309.287811 472.632109,313.635219 471.015151,315.355814 C469.398194,317.076408 469.156579,324.338417 469.156579,324.338417 C469.156579,324.338417 466.604141,331.526949 467.812212,333.77413 C468.252074,334.588504 468.933551,338.672619 469.615027,343.571107 C470.048694,346.632663 470.476165,349.99425 470.854075,353.068052 C471.541747,358.652329 472.055952,363.275277 472.055952,363.275277 C472.055952,363.275277 470.686804,368.216628 468.79106,366.716466 C466.895317,365.216304 455.781057,353.913041 455.235876,343.877263 C454.864161,336.829563 455.012847,330.706452 455.136752,327.687758 C455.186314,326.408028 455.235876,325.685501 455.235876,325.685501 C455.235876,325.685501 463.87204,315.34969 462.886997,311.681947 C461.901954,308.014204 459.628301,288.414127 459.628301,288.414127 L459.231805,285.383187 L458.804334,282.125692 L458.70521,281.409288 L457.336062,271 C457.577676,271.055108 466.077545,272.953272 467.198884,274.061555 C468.320222,275.169838 475.252695,276.755724 475.252695,276.755724 C477.382108,277.326807 479.029084,278.996828 479.552192,281.115379 C479.620339,281.323565 479.669901,281.543997 479.719463,281.770552 C480.630163,286.11796 480.338987,286.638425 480.958511,287.391567 C481.578035,288.14471 475.054448,306.673243 475.054448,306.673243 Z" id="Path" fill="#4C4981"></path>
                <path d="M471,353 C467.735459,352.355255 462.890879,350.865893 463.001874,347.577692 C463.09981,344.502257 466.847503,343.393295 469.687654,343 C470.14469,346.210832 470.595197,349.763378 471,353 Z" id="Path" fill="#000000" opacity="0.1"></path>
                <path d="M480.980991,351.510109 C480.855357,351.770537 480.352822,351.994626 479.636709,352.19449 C477.956464,352.580028 476.249773,352.849219 474.529695,353 C474.529695,353 463.850821,352.182377 464.001581,347.512839 C464.114652,344.163612 468.93899,343.273311 471.646399,343.073448 C472.245662,343.019498 472.847402,342.99524 473.449244,343.00077 C473.449244,343.00077 481.439555,350.553187 480.980991,351.510109 Z" id="Path" fill="#AE6E79"></path>
                <path d="M480.98086,351.330096 C480.85436,351.585015 480.34836,351.804364 479.627309,352 C476.825331,348.484484 472.916477,343.973004 471,343.575804 L471.581901,343.071894 C472.185296,343.019085 472.791185,342.995341 473.397177,343.000754 C473.397177,343.000754 481.442586,350.393415 480.98086,351.330096 Z" id="Path" fill="#000000" opacity="0.1"></path>
                <path d="M477.499919,287 L480.520327,287.458407 C481.610733,289.428236 482.821303,291.325519 484.144817,293.138938 C484.956414,294.173637 485.422307,295.448388 485.473797,296.775221 C485.473797,296.775221 489.907757,303.515044 491.309226,304.270796 C492.710696,305.026549 494.855186,310.180531 494.855186,310.180531 C494.855186,310.180531 498.328655,312.528319 498.328655,315.179646 C498.390231,317.390569 498.612342,319.593717 498.993145,321.770796 C499.071676,322.148673 498.479676,326.850442 496.999676,329.204425 C495.519675,331.558407 494.039675,336.749558 494.118206,337.678761 C494.196737,338.607965 489.980246,343.439823 488.802287,344.951327 C487.819075,346.364789 486.954171,347.860974 486.216818,349.423894 L482.302368,357 C482.302368,357 474.026449,344.499115 471,343.817699 C471,343.817699 474.394939,340.484956 476.092409,339.877876 C477.789878,339.270796 479.420899,334.302655 479.493388,333.138053 C479.565878,331.973451 481.045878,328.213274 482.592327,327.562832 C484.138777,326.912389 484.960328,326.2 484.295838,325.134513 C483.631348,324.069027 484.295838,322.037168 484.295838,322.037168 C484.295838,322.037168 479.934368,316.127434 479.342368,312.745133 C478.750368,309.362832 474.763429,307.064602 474.763429,307.064602 L472.473959,301.30354 L477.499919,287 Z" id="Path" fill="#4C4981"></path>
                <path d="M488.848006,314.425949 C490.57264,312.910538 492.743428,312.05452 495,312 C493.553939,312.25946 492.033081,312.590271 490.973467,313.641083 C490.557255,314.096046 490.183662,314.591259 489.857756,315.120003 C489.49624,315.658382 486.554253,319.550278 486.117942,318.934061 C485.388678,318.032439 488.255869,314.951354 488.848006,314.425949 Z" id="Path" fill="#000000" opacity="0.1"></path>
                <path d="M482,311 C482.962007,310.918898 483.804198,310.336454 484.202379,309.476876 C484.578599,308.62712 484.810914,307.723239 484.890228,306.800617 C485.116017,305.256507 485.434193,303.726651 485.84312,302.218911 C486.091737,301.615052 486.042884,300.933086 485.710599,300.368962 C485.541268,299.887243 485.312396,299.427523 485.02906,299 C484.461111,299.61665 484.297037,301.053443 484.063547,301.879753 C483.773262,302.903392 483.508219,303.933196 483.255798,304.963001 C483.123276,305.456321 482.075727,311 482,311 Z" id="Path" fill="#000000" opacity="0.1"></path>
                <path d="M479,280.532852 C478.700073,280.929332 478.354849,281.288603 477.971508,281.603191 C476.754357,282.581259 475.141632,283.405543 474.989488,284.949538 C475.031898,285.451166 474.9697,285.956208 474.806916,286.432018 C474.417427,287.108669 473.461964,287.047155 472.701245,286.917977 C472.059276,286.859488 471.444065,286.630276 470.918119,286.253628 C470.120885,285.564675 470.047856,284.3344 469.439281,283.467057 C468.689772,282.559672 467.564795,282.057071 466.396404,282.107604 C465.258368,282.070695 464.126418,282.329053 462.988382,282.378264 C462.256914,282.415566 461.523642,282.366016 460.803596,282.230631 C460.5659,282.193863 460.330264,282.144585 460.097649,282.082998 C459.589031,281.956422 459.092203,281.785597 458.612725,281.572434 C458.364588,281.47267 458.122733,281.357629 457.88852,281.227957 C457.126741,280.832545 456.420635,280.336045 455.788935,279.751628 C454.675242,278.718198 453.750207,277.291079 453.841494,275.759388 C453.896266,274.818228 454.316183,273.950884 454.450069,273.022027 C454.906501,270.364634 453.159889,267.854875 451.26722,265.954101 C450.512586,265.197482 449.709267,264.465469 448.954633,263.696547 C447.779559,262.600988 446.851739,261.262439 446.234302,259.771972 C445.726581,258.18549 445.560579,256.507563 445.747441,254.850874 C445.918434,253.171262 445.965221,251.481095 445.887414,249.794446 C445.327524,243.815313 440.276349,239.23254 435.225173,236.741235 L435,236.624359 C439.088909,231.881198 445.50258,229.921652 451.506197,231.581279 C457.509814,233.240907 462.044215,238.226915 463.175912,244.413249 C464.307609,250.599582 461.836947,256.894845 456.817427,260.61471 C456.762656,260.805402 456.71397,260.996095 456.671369,261.180636 C455.502905,265.90489 456.275795,268.771429 457.146058,270.352332 C457.383402,270.407694 465.733057,272.314619 466.834578,273.428018 C467.9361,274.541416 474.746058,276.134621 474.746058,276.134621 C476.854375,276.701821 478.486701,278.389514 479,280.532852 Z" id="Path" fill="#000000" opacity="0.1"></path>
                <path d="M434.444859,232.526116 C434.783067,232.140943 435.293455,231.945299 435.637812,231.572354 C436.701631,230.422948 435.637812,228.545992 436.025214,227.029754 C436.443363,225.348442 438.521807,224.614778 440.255894,224.79208 C441.98998,224.969382 443.61338,225.764185 445.347467,225.959828 C448.040835,226.259407 450.648114,225.097774 453.273841,224.419135 C455.899568,223.740496 459.072577,223.703813 460.880455,225.703046 C462.688332,227.702279 462.565347,231.1077 464.81597,232.556686 C465.855192,233.223097 467.164981,233.296463 468.290293,233.779458 C469.52178,234.407806 470.542994,235.378537 471.229631,236.573493 C473.011015,239.355187 473.795398,242.653475 473.455657,245.933817 C473.26503,247.706837 472.748494,249.430946 472.539419,251.203966 C472.327206,253.045228 472.452208,254.909483 472.908374,256.706442 C473.381866,258.540601 474.408789,260.521492 476.247413,261.108423 C476.672375,261.201341 477.085076,261.342904 477.477262,261.53028 C478.541081,262.190577 478.399648,263.743498 478.129081,264.954043 L477.034516,269.973524 C478.086037,270.768326 479.721735,270.425949 480.724062,271.263549 C481.125637,271.628295 481.422705,272.092431 481.584956,272.608598 C482.597184,275.482478 481.718721,278.679297 479.377378,280.642213 C478.147529,281.614318 476.51798,282.433575 476.364249,283.962041 C476.411104,284.46068 476.348153,284.963482 476.179771,285.435482 C475.792369,286.108006 474.820789,286.046868 474.052133,285.918477 C473.405599,285.859291 472.786221,285.631525 472.256554,285.25818 C471.444854,284.573427 471.377213,283.350655 470.762288,282.4886 C470.003796,281.588286 468.867887,281.089103 467.687667,281.137436 C466.531609,281.100753 465.393999,281.357535 464.237941,281.41256 C461.57159,281.521203 458.968678,280.586122 456.987984,278.808055 C455.856523,277.774812 454.927987,276.36251 455.014077,274.834044 C455.06942,273.904737 455.493718,273.036569 455.629001,272.113375 C456.084045,269.478301 454.325362,266.977731 452.412947,265.088548 C450.500533,263.199364 448.256059,261.456913 447.321374,258.944116 C446.153018,255.83216 447.284478,252.359486 446.970867,249.058 C446.405137,243.109212 441.307414,238.560499 436.197393,236.07827 C435.059783,235.497453 433.122772,234.024013 434.444859,232.526116 Z" id="Path" fill="#444053"></path>
                <path d="M474.296109,284.884852 C473.492649,284.184481 473.425694,282.951083 472.817012,282.077169 C472.06628,281.163707 470.942509,280.655641 469.773601,280.701218 C468.629279,280.66403 467.49713,280.924345 466.358895,280.980127 C463.709957,281.098529 461.122196,280.147428 459.158186,278.333591 C458.038211,277.29233 457.125188,275.8544 457.210403,274.311104 C457.265184,273.362813 457.685175,272.4827 457.819085,271.553004 C458.275597,268.875478 456.528679,266.340505 454.635678,264.425331 C452.742677,262.510156 450.527074,260.743732 449.59579,258.196364 C448.445381,255.047792 449.59579,251.527341 449.254928,248.174235 C448.688854,242.143604 443.64288,237.532309 438.590818,235.015931 C437.409975,234.427123 435.492626,232.93341 436.801293,231.414906 C437.129981,231.024433 437.635187,230.826098 437.976049,230.448022 C439.029069,229.289 437.976049,227.380023 438.365606,225.849123 C438.440507,225.544279 438.57055,225.256321 438.749076,225 C437.47693,225.241721 436.314347,225.973082 436.003919,227.212678 C435.632623,228.749776 436.67347,230.652555 435.62045,231.817775 C435.279588,232.195851 434.774382,232.394186 434.439606,232.778461 C433.13094,234.296965 435.048289,235.796876 436.229132,236.379485 C441.28728,238.895864 446.333254,243.513357 446.893242,249.53779 C447.20367,252.890896 446.083695,256.411347 447.240191,259.566117 C448.165387,262.107287 450.387077,263.904701 452.280078,265.795083 C454.17308,267.685466 455.932171,270.239033 455.463486,272.916559 C455.206964,273.822797 455.00371,274.743796 454.854803,275.674659 C454.769588,277.217955 455.688698,278.655885 456.808673,279.697145 C458.769772,281.511791 461.356026,282.463142 464.003295,282.343682 C465.147617,282.2879 466.273679,282.033783 467.418002,282.064773 C468.586731,282.020142 469.710111,282.528032 470.461412,283.440723 C471.070094,284.314638 471.137049,285.554234 471.940509,286.248407 C472.465424,286.624684 473.078467,286.853429 473.717861,286.911591 C474.478714,287.054144 475.440431,287.103728 475.823901,286.428148 C475.960514,286.152363 476.019502,285.843457 475.994332,285.53564 C475.381916,285.474499 474.796156,285.250025 474.296109,284.884852 Z" id="Path" fill="#000000" opacity="0.1"></path>
                <path d="M384.771929,248 L342.258923,248 L342.258923,206.023115 L384.80266,206.023115 L384.771929,248 Z M384.157313,184.708268 L342.87354,184.708268 C342.87354,119.476584 404.753104,123.288745 404.753104,82.020097 C404.753104,59.2887764 386.185547,41.0778539 363.500061,41.0778539 C340.814575,41.0778539 322.253164,60.7114085 322.253164,82.666748 L281.000122,82.666748 C280.962514,60.7306648 289.642369,39.6821828 305.122269,24.1710068 C320.602169,8.65983078 341.608209,-0.0375619619 363.500061,0.000121948135 C409.06771,0.000121948135 446,36.4281256 446,82.020097 C446,133.622843 384.126582,139.498129 384.126582,184.708268 L384.157313,184.708268 Z" id="Shape" fill="#4A90E2" fill-rule="nonzero"></path>
                <path d="M173.014015,235 L161.930068,235 L161.930068,224.096369 L173.014015,224.096369 L173.014015,235 Z M172.846265,218.601236 L162.097818,218.601236 C162.097818,201.707415 178.220488,202.691341 178.220488,191.991921 C178.20898,189.164662 177.069886,186.45785 175.053976,184.467384 C173.038066,182.476917 170.310606,181.365977 167.472042,181.379135 C161.57319,181.514836 156.837033,186.270379 156.748447,192.146626 L146,192.146626 C146.148394,180.457197 155.680449,171.045772 167.417501,171.000166 C179.154554,170.954561 188.760042,180.291625 189,191.979544 C188.968935,205.346084 172.846265,206.868384 172.846265,218.576483 L172.846265,218.601236 Z" id="Shape" fill="#4A90E2" fill-rule="nonzero" opacity="0.1"></path>
                <path d="M256.063709,311 L244.979766,311 L244.979766,300.123103 L256.063709,300.123103 L256.063709,311 Z M255.902172,294.601082 L245.153729,294.601082 C245.153729,277.694533 261.276393,278.685031 261.276393,267.981471 C261.264889,265.153682 260.125596,262.446455 258.109506,260.456201 C256.093416,258.465947 253.365939,257.355959 250.52795,257.37077 C244.602493,257.477132 239.83133,262.2503 239.748443,268.154808 L229,268.154808 C229.148394,256.460857 238.680445,247.04579 250.417493,247.000166 C262.154541,246.954543 271.760026,256.29522 271.999984,267.987661 C272.018623,281.359373 255.902172,282.888453 255.902172,294.601082 Z" id="Shape" fill="#4A90E2" fill-rule="nonzero" opacity="0.1"></path>
                <path d="M306.49247,177 L298.501473,177 L298.501473,169.239734 L306.49247,169.239734 L306.49247,177 Z M306.375046,165.271069 L298.625077,165.271069 C298.625077,153.194117 310.250031,153.896265 310.250031,146.252006 C310.24022,144.231093 309.41819,142.296803 307.964784,140.874672 C306.511378,139.452541 304.545654,138.659064 302.500062,138.668803 C298.236904,138.753967 294.809184,142.161937 294.750093,146.374119 L287.000124,146.374119 C286.978044,140.903332 289.911913,135.836479 294.696571,133.082195 C299.481228,130.327911 305.389771,130.304636 310.196509,133.021139 C315.003246,135.737641 317.97792,140.781219 318,146.252006 C317.98764,155.80733 306.375046,156.900239 306.375046,165.271069 Z" id="Shape" fill="#4A90E2" fill-rule="nonzero" opacity="0.1"></path>
                <path d="M441.715654,188 L437.33225,188 L437.33225,183.563194 L441.715654,183.563194 L441.715654,188 Z M441.649693,181.31398 L437.374225,181.31398 C437.374225,174.424606 443.74845,174.825151 443.74845,170.462292 C443.748523,169.309671 443.299708,168.204962 442.502115,167.39458 C441.704522,166.584198 440.624503,166.135557 439.502964,166.14873 C437.165875,166.19823 435.286502,168.140458 435.251482,170.542401 L431,170.542401 C431.103196,165.807108 434.858821,162.018445 439.467841,162.000067 C444.076861,161.981689 447.860982,165.740289 447.999932,170.474616 C448.023918,175.891217 441.649693,176.538251 441.649693,181.31398 Z" id="Shape" fill="#4A90E2" fill-rule="nonzero" opacity="0.1"></path>
                <path d="M510.691668,390 L506.308264,390 L506.308264,385.563194 L510.691668,385.563194 L510.691668,390 Z M510.625707,383.31398 L506.374225,383.31398 C506.374225,376.418444 512.754447,376.825151 512.754447,372.462292 C512.737942,370.065357 510.835435,368.13507 508.502964,368.14873 C506.16455,368.195047 504.283397,370.139114 504.251482,372.542401 L500,372.542401 C500.103196,367.807108 503.858821,364.018445 508.467841,364.000067 C513.076861,363.981689 516.860982,367.740289 516.999932,372.474616 C517.023918,377.915866 510.649693,378.538251 510.649693,383.31398 L510.625707,383.31398 Z" id="Shape" fill="#4A90E2" fill-rule="nonzero" opacity="0.1"></path>
            </g>
        </g>
    </g>
</svg>