<?xml version="1.0" encoding="UTF-8"?>
<svg width="70px" height="76px" viewBox="0 0 70 76" version="1.1" xmlns="http://www.w3.org/2000/svg" xmlns:xlink="http://www.w3.org/1999/xlink">
    <!-- Generator: Sketch 52.2 (67145) - http://www.bohemiancoding.com/sketch -->
    <title>handgrip</title>
    <desc>Created with Sketch.</desc>
    <g id="Page-1" stroke="none" stroke-width="1" fill="none" fill-rule="evenodd">
        <g id="Доп-услуги" transform="translate(-1225.000000, -251.000000)" fill="#4A90E2" fill-rule="nonzero">
            <g id="Group-5" transform="translate(1124.000000, 230.000000)">
                <g id="handgrip" transform="translate(101.000000, 21.000000)">
                    <path d="M47.456443,5.92216582 L37.9809777,5.92216582 L37.9809777,2.96108291 C37.9809777,1.32572198 36.6552557,-3.0041093e-16 35.0198948,0 L35.0198948,0 C33.3845339,3.0041093e-16 32.0588119,1.32572198 32.0588119,2.96108291 L32.0588119,5.92216582 L22.5833466,5.92216582 C10.1745585,5.92216582 0.0791164636,16.0176079 0.0791164636,28.4263959 L0.0791164636,35.3109137 C0.0791164636,39.554053 3.07027284,43.1105911 7.05431739,43.9859614 L3.27754865,51.0393534 C1.50460025,54.1720866 1.59482078,57.5074688 3.54497151,60.9501904 C4.27830217,62.3502273 7.92228482,69.0617069 12.3565065,72.8861306 C14.5375291,74.7678061 17.3255737,75.8037225 20.2066148,75.8037225 L43.9966027,75.8037225 C53.2518374,75.8037225 60.7813161,68.3269882 60.7813161,59.1365271 L60.7813161,44.1941624 L61.0774244,44.1941624 C65.9757033,44.1941624 69.9606731,40.2096552 69.9606731,35.3109137 L69.9606731,28.4263959 C69.9606731,16.0176079 59.8652311,5.92216582 47.456443,5.92216582 Z M27.6171875,32.2758037 L27.6171875,31.0913706 C27.6171875,29.7033629 28.7461004,28.5744501 30.134108,28.5744501 C31.5221156,28.5744501 32.6510285,29.7033629 32.6510285,31.0913706 L32.6510285,36.7303828 C31.6252908,36.3371139 30.5310781,36.1252115 29.4243734,36.1252115 L27.6171875,36.1252115 L27.6171875,32.2758037 Z M21.6950217,35.3793887 L21.6950217,36.1252115 L16.6611808,36.1252115 L16.6611808,32.2758037 C16.6611808,30.8877961 17.7900936,29.7588832 19.1781012,29.7588832 C20.5661088,29.7588832 21.6950217,30.8877961 21.6950217,32.2758037 L21.6950217,35.3793887 Z M43.9966027,69.8815567 L20.2066148,69.8815567 C18.7445801,69.8815567 17.330663,69.3559645 16.2248837,68.4019405 C13.1939377,65.7873969 10.1176502,60.7443026 8.77776015,58.1764884 C8.74259729,58.1089388 8.72085181,58.0719253 8.71576254,58.0631345 C7.62108714,56.1458333 7.79921475,55.0631874 8.44186237,53.9384385 L14.1780351,43.2267211 C14.7364769,42.4859877 15.6109216,42.0473773 16.5432001,42.0473773 L29.4239107,42.0473773 C30.2534766,42.0473773 31.0668491,42.3916032 31.6549016,42.9907599 C32.215194,43.5621562 32.5159291,44.3001137 32.5015863,45.0676819 C32.4710502,46.6675919 31.1431895,47.9695431 29.540966,47.9695431 L18.7492069,47.9695431 L15.5100598,54.1526544 L20.7562659,56.8999842 L22.3325798,53.891709 L29.540966,53.891709 C31.8839229,53.891709 34.0945564,52.9876534 35.7657176,51.3465657 C36.5522552,50.5739081 37.1759333,49.6767925 37.6224091,48.7014859 C38.6805336,49.1812738 39.8538627,49.4500846 41.0901148,49.4500846 C43.2012744,49.4500846 45.1329182,48.6686363 46.6143851,47.382416 C48.116672,48.6700243 50.0649719,49.4500846 52.1941757,49.4500846 C53.1241407,49.4500846 54.0194057,49.2997171 54.8591503,49.0244289 L54.8591503,59.1365271 C54.8591503,65.0610062 49.9858556,69.8815567 43.9966027,69.8815567 Z M51.9919893,32.1277496 C53.3776835,32.1277496 54.8591503,32.7976946 54.8591503,34.6765942 L54.8591503,40.8629442 C54.8591503,42.3323816 53.6636131,43.5279188 52.1941757,43.5279188 C50.7242755,43.5279188 49.5292011,42.3323816 49.5292011,40.8629442 L49.5292011,34.8769301 C49.5292011,33.5796055 50.5822362,32.1277496 51.9919893,32.1277496 Z M43.6070352,41.0109983 C43.6070352,42.3990059 42.4781224,43.5279188 41.0901148,43.5279188 C39.7021072,43.5279188 38.5731943,42.3990059 38.5731943,41.0109983 L38.5731943,32.7824265 C38.5731943,31.3601813 39.7021072,30.2030457 41.0901148,30.2030457 C42.4781224,30.2030457 43.6070352,31.3601813 43.6070352,32.7824265 L43.6070352,41.0109983 Z M64.0385073,35.3109137 C64.0385073,36.9436733 62.7097214,38.2719966 61.0774244,38.2719966 L60.7813161,38.2719966 L60.7813161,34.6765942 C60.7813161,32.2721024 59.8596791,30.0883037 58.1866672,28.5272578 C56.5825931,27.0300603 54.382601,26.2055838 51.9919893,26.2055838 C50.4290926,26.2055838 48.9494766,26.675193 47.6813002,27.4820881 C46.1332091,25.5328627 43.7550894,24.2808799 41.0901148,24.2808799 C39.4208043,24.2808799 37.8634597,24.7713092 36.5522552,25.6175312 C35.0027761,23.8038679 32.7005341,22.6522843 30.134108,22.6522843 C27.7037067,22.6522843 25.5120426,23.6858872 23.9704288,25.335303 C22.607868,24.3914578 20.9570643,23.8367174 19.1781012,23.8367174 C14.5245743,23.8367174 10.7390149,27.6222769 10.7390149,32.2758037 L10.7390149,38.2719966 L8.96236519,38.2719966 C7.32960548,38.2719966 6.00128228,36.9436733 6.00128228,35.3109137 L6.00128228,28.4263959 C6.00128228,19.2831272 13.4396151,11.8443316 22.5833466,11.8443316 L32.0588119,11.8443316 L32.0588119,14.8054146 L37.9809777,14.8054146 L37.9809777,11.8443316 L47.456443,11.8443316 C56.5997118,11.8443316 64.0385073,19.2831272 64.0385073,28.4263959 L64.0385073,35.3109137 Z" id="Shape"></path>
                </g>
            </g>
        </g>
    </g>
</svg>