<?xml version="1.0" encoding="UTF-8"?>
<svg width="15px" height="16px" viewBox="0 0 15 16" version="1.1" xmlns="http://www.w3.org/2000/svg" xmlns:xlink="http://www.w3.org/1999/xlink">
    <!-- Generator: Sketch 52.2 (67145) - http://www.bohemiancoding.com/sketch -->
    <title>thumbs-up</title>
    <desc>Created with Sketch.</desc>
    <g id="Page-1" stroke="none" stroke-width="1" fill="none" fill-rule="evenodd">
        <g id="Мой-кабинет" transform="translate(-286.000000, -1736.000000)" fill="#9B9B9B" fill-rule="nonzero">
            <g id="к" transform="translate(255.000000, 1100.000000)">
                <g id="Group-14" transform="translate(31.000000, 403.000000)">
                    <g id="thumbs-up" transform="translate(0.000000, 233.000000)">
                        <path d="M14.5216085,8.94237201 C14.840673,8.46789406 15,7.9455945 15,7.37510287 C15,6.71479418 14.7528687,6.14127161 14.2581955,5.65362588 C13.763283,5.1664853 13.1772824,4.92296553 12.5002622,4.92296553 L10.7814253,4.92296553 C11.093854,4.28841989 11.2503421,3.67296921 11.2503421,3.0769166 C11.2503421,2.32689187 11.1360973,1.73080558 10.9084286,1.28848935 C10.6805205,0.846038405 10.3484238,0.520817766 9.91217289,0.312389628 C9.47581932,0.104062522 8.98442987,0 8.43755986,0 C8.10536061,0 7.81249715,0.118577391 7.55859322,0.355833205 C7.27869346,0.625014997 7.07684958,0.971250203 6.9531984,1.39433676 C6.82947881,1.81728861 6.7301474,2.22279567 6.655341,2.61062221 C6.5805346,2.99841507 6.46485319,3.27244637 6.30867303,3.43268245 C5.98957431,3.77241796 5.6412987,4.18277454 5.26367517,4.66348277 C4.60611768,5.50312251 4.1600841,5.99996211 3.92581385,6.15386688 L1.2500228,6.15386688 C0.904962466,6.15386688 0.610320342,6.27422916 0.366164841,6.51441489 C0.122111955,6.75483636 0,7.04489801 0,7.3846672 L0,13.5382647 C0,13.8780338 0.121975135,14.1679945 0.366164841,14.4084159 C0.610457162,14.6488374 0.904962466,14.7691323 1.2500228,14.7691323 L4.06239453,14.7691323 C4.2056452,14.7691323 4.65479144,14.8973077 5.41003849,15.1537259 C6.21088085,15.4294073 6.91564128,15.6392836 7.52431978,15.7835567 C8.13306669,15.9278298 8.74995439,16 9.3750171,16 L10.2829896,16 L10.6347541,16 C11.5526803,16 12.2915774,15.7418307 12.8515479,15.2257614 C13.4113132,14.7096921 13.6881345,14.0062092 13.681704,13.1152118 C14.0723254,12.6216052 14.2676019,12.0511136 14.2676019,11.4037706 C14.2676019,11.2628315 14.2579903,11.1250245 14.2383566,10.990282 C14.485659,10.5609652 14.609618,10.0994193 14.609618,9.60581268 C14.6095154,9.37502289 14.5802701,9.15376374 14.5216085,8.94237201 Z M2.31451753,13.3557006 C2.19083214,13.47741 2.0443662,13.5385004 1.87508551,13.5385004 C1.70577062,13.5385004 1.55927048,13.4774436 1.43555088,13.3557006 C1.3118997,13.2340249 1.2500228,13.0897518 1.2500228,12.9229487 C1.2500228,12.7563139 1.31176288,12.6121419 1.43555088,12.4902978 C1.5594073,12.3684874 1.70577062,12.307599 1.87508551,12.307599 C2.0443662,12.307599 2.19083214,12.3684874 2.31451753,12.4902978 C2.43823712,12.6121082 2.50011402,12.7562803 2.50011402,12.9229487 C2.50011402,13.0897518 2.43823712,13.2340249 2.31451753,13.3557006 Z M13.5404714,8.16399108 C13.4004702,8.45880122 13.226264,8.6094393 13.0179554,8.61577061 C13.1155765,8.72478368 13.1970187,8.87717297 13.2621451,9.07250068 C13.327203,9.26806413 13.3595268,9.4458797 13.3595268,9.60621681 C13.3595268,10.0482973 13.1872361,10.4297925 12.8421415,10.7501973 C12.9594648,10.9552241 13.0179896,11.1764832 13.0179896,11.413537 C13.0179896,11.6507254 12.9611066,11.8862974 12.8471012,12.1202192 C12.7333011,12.3539389 12.5785576,12.5222575 12.3833152,12.6247708 C12.4158442,12.8170339 12.431989,12.996567 12.431989,13.1632018 C12.431989,14.2336313 11.8069263,14.7688629 10.5567667,14.7688629 L9.37546177,14.7688629 C8.52238833,14.7688629 7.40925406,14.5350422 6.03540905,14.0669966 C6.00281165,14.0541992 5.90854259,14.020421 5.7521914,13.9660323 C5.59584021,13.9116437 5.48032983,13.8715341 5.40542081,13.8459732 C5.3305118,13.8201427 5.21667746,13.7832999 5.06357575,13.7353436 C4.91050824,13.6871515 4.78695967,13.6518578 4.69248538,13.6295298 C4.59814791,13.6071682 4.4906415,13.586322 4.37030821,13.5670587 C4.24990651,13.547829 4.14732562,13.5382647 4.06270238,13.5382647 L3.75020523,13.5382647 L3.75020523,7.38490294 L4.06270238,7.38490294 C4.16685669,7.38490294 4.28240128,7.35597423 4.40937035,7.29841991 C4.53630522,7.2406972 4.66659218,7.1541805 4.800026,7.03876876 C4.93352823,6.92335703 5.05875284,6.80959547 5.17600768,6.69734939 C5.29322832,6.58520435 5.42341266,6.44419795 5.56669753,6.27439755 C5.70991399,6.10446244 5.8222091,5.96830555 5.90365127,5.86572483 C5.98499083,5.76317778 6.08750331,5.63170202 6.2112229,5.47146595 C6.33487408,5.31126355 6.4098173,5.21508149 6.43584733,5.18298712 C6.79387137,4.74717059 7.04452583,4.45552611 7.18774229,4.30802001 C7.45467834,4.03247323 7.64834721,3.68152322 7.76878312,3.25523733 C7.88935585,2.82888409 7.98861885,2.42664371 8.06646949,2.0485162 C8.14452537,1.67035502 8.26838178,1.39783919 8.4378677,1.23117077 C9.06272518,1.23117077 9.47951347,1.38174149 9.68778789,1.68305132 C9.89602811,1.9842938 10.0002166,2.44907272 10.0002166,3.07725337 C10.0002166,3.45541456 9.84383124,3.96979998 9.53126568,4.62037596 C9.21883694,5.2710193 9.06272518,5.78223907 9.06272518,6.15400159 L12.5001596,6.15400159 C12.8260309,6.15400159 13.1156107,6.27732746 13.369412,6.52424863 C13.6234186,6.77100141 13.7505587,7.05779638 13.7505587,7.3848019 C13.7504561,7.60912568 13.6804384,7.86877682 13.5404714,8.16399108 Z" id="Shape"></path>
                    </g>
                </g>
            </g>
        </g>
    </g>
</svg>