<?xml version="1.0" encoding="UTF-8"?>
<svg width="20px" height="20px" viewBox="0 0 20 20" version="1.1" xmlns="http://www.w3.org/2000/svg" xmlns:xlink="http://www.w3.org/1999/xlink">
    <!-- Generator: Sketch 52.2 (67145) - http://www.bohemiancoding.com/sketch -->
    <title>link-symbol</title>
    <desc>Created with Sketch.</desc>
    <g id="Page-1" stroke="none" stroke-width="1" fill="none" fill-rule="evenodd">
        <g id="Редактор-профиля-(Рефералка)" transform="translate(-835.000000, -311.000000)" fill="#4A90E2" fill-rule="nonzero">
            <g id="Group-17" transform="translate(284.000000, 270.000000)">
                <g id="link-symbol" transform="translate(551.000000, 41.000000)">
                    <path d="M18.9683262,12.2044635 L16.4194421,9.65583691 C15.7334335,8.96978541 14.9003004,8.62656652 13.9199571,8.62656652 C12.9232618,8.62656652 12.0739056,8.98600858 11.3712446,9.7048927 L10.2929185,8.62656652 C11.0118455,7.92407725 11.3712446,7.07051502 11.3712446,6.0655794 C11.3712446,5.08527897 11.0322747,4.25626609 10.3541631,3.57811159 L7.82991416,1.04175966 C7.15188841,0.347424893 6.31866953,0.000128755365 5.33025751,0.000128755365 C4.34995708,0.000128755365 3.52081545,0.339270386 2.8427897,1.01729614 L1.04150215,2.80626609 C0.347124464,3.48446352 0,4.31347639 0,5.29369099 C0,6.27399142 0.343175966,7.10733906 1.02927039,7.79347639 L3.57798283,10.342103 C4.26424893,11.0282833 5.09746781,11.3713734 6.07776824,11.3713734 C7.07429185,11.3713734 7.92390558,11.0119742 8.62639485,10.2930043 L9.70472103,11.3713734 C8.98583691,12.0739914 8.62639485,12.9275107 8.62639485,13.9324034 C8.62639485,14.9127897 8.96536481,15.741588 9.64343348,16.4198712 L12.167897,18.9560944 C12.8460515,19.6503863 13.67897,19.9977253 14.667382,19.9977253 C15.6478112,19.9977253 16.4765665,19.6587983 17.1548498,18.9806438 L18.9562661,17.1917167 C19.6505579,16.5134335 19.9979399,15.6845064 19.9979399,14.7042489 C19.9977253,13.7240773 19.6546352,12.8909442 18.9683262,12.2044635 Z M8.62656652,6.96042918 C8.60206009,6.93592275 8.52639485,6.8583691 8.39995708,6.72763948 C8.27343348,6.59690987 8.1855794,6.50909871 8.13660944,6.46412017 C8.08755365,6.41918455 8.00991416,6.35793991 7.90373391,6.28017167 C7.79738197,6.20253219 7.69334764,6.1495279 7.59128755,6.12090129 C7.48914163,6.0923176 7.37678112,6.07806867 7.25420601,6.07806867 C6.92755365,6.07806867 6.64974249,6.19248927 6.42098712,6.42111588 C6.19223176,6.64974249 6.07798283,6.92751073 6.07798283,7.25433476 C6.07798283,7.37678112 6.09223176,7.48914163 6.12081545,7.59128755 C6.14939914,7.69351931 6.20248927,7.79763948 6.28008584,7.90377682 C6.35772532,8.00995708 6.41901288,8.08759657 6.46390558,8.13665236 C6.50871245,8.18562232 6.59652361,8.27347639 6.72725322,8.40012876 C6.85798283,8.5267382 6.93553648,8.60223176 6.96004292,8.62678112 C6.71493562,8.87991416 6.42085837,9.00652361 6.07785408,9.00652361 C5.74291845,9.00652361 5.4651073,8.89630901 5.24463519,8.67583691 L2.69570815,6.12708155 C2.46708155,5.89832618 2.35270386,5.62055794 2.35270386,5.29373391 C2.35270386,4.97523605 2.46695279,4.7016309 2.69570815,4.47287554 L4.49703863,2.68373391 C4.73407725,2.46313305 5.01167382,2.35304721 5.33038627,2.35304721 C5.65703863,2.35304721 5.93480687,2.46733906 6.16360515,2.69609442 L8.68776824,5.23244635 C8.91652361,5.46120172 9.03077253,5.73892704 9.03077253,6.06566524 C9.03081545,6.40862661 8.8960515,6.70686695 8.62656652,6.96042918 Z M17.3024464,15.5249785 L15.50103,17.3140773 C15.2721888,17.526309 14.9945923,17.6326609 14.6676395,17.6326609 C14.3324893,17.6326609 14.0551931,17.5225322 13.8345923,17.3018884 L11.3104292,14.7653648 C11.0816309,14.5365236 10.9675107,14.258927 10.9675107,13.9323176 C10.9675107,13.5892275 11.1021888,13.291073 11.3718455,13.0378541 C11.3965236,13.0621888 11.4720172,13.1400429 11.5986266,13.2704721 C11.7252361,13.4012017 11.8130472,13.4890558 11.8621459,13.5339914 C11.9112017,13.5790987 11.9887124,13.6403433 12.0947639,13.7180258 C12.2011159,13.7957511 12.3050644,13.8488841 12.4072961,13.877382 C12.5095279,13.9060086 12.6217597,13.9202575 12.7442489,13.9202575 C13.0712017,13.9202575 13.3487983,13.8058798 13.5776395,13.5771674 C13.8061373,13.3484979 13.9207296,13.0707296 13.9207296,12.7441202 C13.9207296,12.6216309 13.9061803,12.5092704 13.8778112,12.4071674 C13.8490558,12.3049356 13.7961803,12.2007725 13.7181545,12.0946352 C13.6404292,11.9885837 13.5795279,11.9107725 13.5344206,11.8616738 C13.489485,11.8129185 13.4016309,11.7250644 13.2709442,11.5981545 C13.1402146,11.471588 13.0626609,11.3960515 13.0379828,11.3717167 C13.2832618,11.1102575 13.5772961,10.9795279 13.9201288,10.9795279 C14.2470386,10.9795279 14.5246352,11.0938197 14.753176,11.322618 L17.3020172,13.8712017 C17.5308584,14.1000429 17.6451502,14.3779399 17.6451502,14.7045494 C17.6451502,15.0228326 17.5308584,15.2967811 17.3024464,15.5249785 Z" id="Shape"></path>
                </g>
            </g>
        </g>
    </g>
</svg>