<?xml version="1.0" encoding="UTF-8"?>
<svg width="70px" height="80px" viewBox="0 0 70 80" version="1.1" xmlns="http://www.w3.org/2000/svg" xmlns:xlink="http://www.w3.org/1999/xlink">
    <!-- Generator: Sketch 52.2 (67145) - http://www.bohemiancoding.com/sketch -->
    <title>megaphone (2)</title>
    <desc>Created with Sketch.</desc>
    <g id="Page-1" stroke="none" stroke-width="1" fill="none" fill-rule="evenodd">
        <g id="Доп-услуги" transform="translate(-938.000000, -246.000000)" fill="#4A90E2">
            <g id="Group-5" transform="translate(844.000000, 230.000000)">
                <g id="megaphone-(2)" transform="translate(94.000000, 16.553097)">
                    <path d="M64.5760841,31.2698673 L38.3011504,4.99493363 C35.5849336,2.27856195 31.1647124,2.27840708 28.4481858,4.99493363 C26.0062389,7.43672566 25.7959292,11.1608186 27.5992035,13.8200442 L27.5626549,14.0029425 C25.6683186,23.4753982 21.0565265,32.0928319 14.2254867,38.9237168 L2.17387168,50.9753319 C-0.549004425,53.6983628 -0.549469027,58.1052655 2.17387168,60.8282965 L8.7424115,67.3968363 C11.4651327,70.1197124 15.8723451,70.1198673 18.5953761,67.3968363 L20.2375885,65.7546239 L31.7327655,77.2498009 C34.4556416,79.9728319 38.8625442,79.9729867 41.5855752,77.2498009 C44.3021018,74.5334292 44.3021018,70.1133628 41.5855752,67.3969912 L36.6590929,62.4705088 L38.3013053,60.8282965 C41.0241814,58.1055752 41.0244912,53.6986726 38.3013053,50.9754867 L37.1853319,49.8593584 C42.6752212,46.015708 48.9100221,43.3397566 55.5682301,42.0080531 L55.7534513,41.9710398 C58.4718363,43.8063717 62.1872566,43.5113496 64.5760841,41.1225221 L64.5762389,41.1225221 C67.2923009,38.4063053 67.2923009,33.9863938 64.5760841,31.2698673 Z M15.3111062,64.1125664 C14.4035841,65.0199336 12.9342035,65.0200885 12.0266814,64.1124115 L5.45814159,57.5438717 C4.5504646,56.6360398 4.5504646,55.1672788 5.45814159,54.2596018 L16.9531637,42.7644248 L26.8061283,52.6173894 C25.6814823,53.7420354 16.4634735,62.9600442 15.3111062,64.1125664 Z M38.3011504,70.6811062 C39.2065044,71.5864602 39.2065044,73.0598673 38.3011504,73.9653761 C37.3957965,74.8707301 35.9222345,74.8707301 35.0168805,73.9653761 L23.5217035,62.4701991 L26.8061283,59.1859292 L38.3011504,70.6811062 Z M30.0903982,55.9016593 C30.7885398,55.2035177 31.8335841,54.1341593 33.4829204,52.7254867 L35.0168805,54.2596018 C35.9245575,55.1672788 35.9245575,56.6360398 35.0168805,57.5438717 L33.3746681,59.1860841 L30.0903982,55.9016593 Z M30.1890487,49.4319248 L20.1384735,39.3813496 C25.5246018,33.1620354 29.3817257,25.8205531 31.4453319,17.8448894 L51.7255088,38.1250664 C43.7498451,40.1885177 36.4085177,44.0456416 30.1890487,49.4319248 Z M61.2913496,37.8380973 C60.3836726,38.7456195 58.9147566,38.7456195 58.0070796,37.8380973 L31.7324558,11.5634735 C30.8247788,10.6556416 30.8247788,9.18688053 31.7324558,8.27920354 C32.6401327,7.37152655 34.1092035,7.37152655 35.0168805,8.27920354 L61.2913496,34.5536726 C62.1967035,35.4591814 62.1967035,36.9324336 61.2913496,37.8380973 Z" id="Shape" fill-rule="nonzero"></path>
                    <path d="M18.5952212,50.975177 C17.6884735,50.0682743 16.217854,50.0682743 15.3109513,50.975177 L12.0266814,54.2594469 C11.1197788,55.1663496 11.1197788,56.6368142 12.0266814,57.5437168 C12.9334292,58.4506195 14.4042035,58.4506195 15.3109513,57.5437168 L18.5952212,54.2594469 C19.5021239,53.3525442 19.5021239,51.8820796 18.5952212,50.975177 Z" id="Path"></path>
                    <path d="M48.9674779,0 C47.6848673,0 46.6450885,1.03977876 46.6450885,2.32238938 L46.6450885,6.96716814 C46.6450885,8.24977876 47.6848673,9.28955752 48.9674779,9.28955752 C50.2500885,9.28955752 51.2898673,8.24977876 51.2898673,6.96716814 L51.2898673,2.32238938 C51.2898673,1.03977876 50.2500885,0 48.9674779,0 Z" id="Path"></path>
                    <path d="M67.5464381,18.5788053 L62.9016593,18.5788053 C61.6190487,18.5788053 60.5792699,19.6185841 60.5792699,20.9011947 C60.5792699,22.1838053 61.6190487,23.2235841 62.9016593,23.2235841 L67.5464381,23.2235841 C68.8290487,23.2235841 69.8688274,22.1838053 69.8688274,20.9011947 C69.8688274,19.6185841 68.8288938,18.5788053 67.5464381,18.5788053 Z" id="Path"></path>
                    <path d="M64.5438717,5.32480088 C63.6371239,4.41789823 62.1665044,4.41789823 61.2596018,5.32480088 L56.614823,9.96957965 C55.7079204,10.8764823 55.7079204,12.3469469 56.614823,13.2538496 C57.5215708,14.1607522 58.9921903,14.1609071 59.8990929,13.2538496 L64.5438717,8.6090708 C65.4507743,7.70216814 65.4507743,6.23185841 64.5438717,5.32480088 Z" id="Path"></path>
                </g>
            </g>
        </g>
    </g>
</svg>