<?xml version="1.0" encoding="UTF-8"?>
<svg width="12px" height="11px" viewBox="0 0 12 11" version="1.1" xmlns="http://www.w3.org/2000/svg" xmlns:xlink="http://www.w3.org/1999/xlink">
    <!-- Generator: Sketch 52.2 (67145) - http://www.bohemiancoding.com/sketch -->
    <title>Path</title>
    <desc>Created with Sketch.</desc>
    <g id="Page-1" stroke="none" stroke-width="1" fill="none" fill-rule="evenodd">
        <g id="Мой-кабинет" transform="translate(-1065.000000, -264.000000)" fill="#4A90E2">
            <g id="Group-14" transform="translate(255.000000, 128.000000)">
                <g id="к">
                    <g id="Group-5" transform="translate(599.000000, 121.000000)">
                        <g id="Group-15" transform="translate(0.000000, 10.000000)">
                            <g id="Group-19" transform="translate(109.000000, 0.000000)">
                                <g id="checkmark-for-verification-(1)" transform="translate(102.000000, 5.000000)">
                                    <path d="M11.9164563,1.50957842 L10.3219715,0.0632848092 C10.2730466,0.0186234047 10.2080182,-0.00408793451 10.1438504,0.000606588125 C10.0788221,0.00504735278 10.0180962,0.0358789474 9.97507177,0.0865036644 L4.19185272,6.88036607 L2.13553149,4.07113835 C2.09631781,4.01759542 2.03792753,3.98219618 1.97339091,3.97306089 C1.90897721,3.96316433 1.84321132,3.98118115 1.79133616,4.0219093 L0.0976493027,5.34246583 C-0.0106492984,5.42696724 -0.0321615063,5.58607349 0.0497078107,5.69785388 L3.85724569,10.899385 C3.90174523,10.96016 3.97058429,10.9972087 4.04434043,11 C4.04729068,11 4.05036385,11 4.0533141,11 C4.12387414,11 4.19123808,10.9687878 4.23807323,10.9137223 L11.9387061,1.86763093 C12.0284427,1.76244824 12.0184857,1.60194632 11.9164563,1.50957842 Z" id="Path"></path>
                                </g>
                            </g>
                        </g>
                    </g>
                </g>
            </g>
        </g>
    </g>
</svg>