<?xml version="1.0" encoding="UTF-8"?>
<svg width="25px" height="24px" viewBox="0 0 25 24" version="1.1" xmlns="http://www.w3.org/2000/svg" xmlns:xlink="http://www.w3.org/1999/xlink">
    <!-- Generator: Sketch 52.2 (67145) - http://www.bohemiancoding.com/sketch -->
    <title>passage-of-time (1)</title>
    <desc>Created with Sketch.</desc>
    <g id="Page-1" stroke="none" stroke-width="1" fill="none" fill-rule="evenodd">
        <g id="Мои-заказы(завершено)" transform="translate(-1356.000000, -1111.000000)" fill="#808080">
            <g id="passage-of-time-(1)" transform="translate(1356.000000, 1111.000000)">
                <path d="M24.4307292,9.95833333 C24.3458333,9.77760417 24.1645833,9.66197917 23.9640625,9.66197917 L22.4395833,9.66197917 C21.4703125,4.40208333 16.8515625,0.403645833 11.315625,0.403645833 C5.0765625,0.403645833 0,5.48020833 0,11.7192708 C0,17.9583333 5.07604167,23.034375 11.315625,23.034375 C15.3421875,23.034375 19.0973958,20.8671875 21.115625,17.3796875 C21.4,16.8875 21.2322917,16.2588542 20.7395833,15.9739583 C20.2479167,15.6890625 19.61875,15.8567708 19.3348958,16.3489583 C17.6828125,19.2036458 14.6098958,20.9776042 11.315625,20.9776042 C6.2109375,20.9776042 2.05729167,16.8244792 2.05729167,11.7203125 C2.05729167,6.61510417 6.2109375,2.46197917 11.315625,2.46197917 C15.7125,2.46197917 19.3963542,5.54583333 20.3348958,9.6625 L18.8223958,9.6625 C18.621875,9.6625 18.4411458,9.778125 18.3557292,9.95885417 C18.2708333,10.1395833 18.2984375,10.3526042 18.4265625,10.50625 L20.9984375,13.5921875 C21.0963542,13.709375 21.240625,13.7770833 21.39375,13.7770833 C21.5463542,13.7770833 21.6911458,13.7088542 21.7885417,13.5921875 L24.3604167,10.50625 C24.4885417,10.3520833 24.515625,10.1390625 24.4307292,9.95833333 Z" id="Path"></path>
                <path d="M11.315625,2.97552083 C10.7473958,2.97552083 10.2869792,3.4359375 10.2869792,4.00416667 L10.2869792,10.2458333 C9.821875,10.571875 9.515625,11.109375 9.515625,11.7197917 C9.515625,12.7125 10.3234375,13.5203125 11.3161458,13.5203125 C11.5880208,13.5203125 11.8442708,13.4552083 12.0755208,13.3463542 L15.6536458,15.4114583 C15.8161458,15.5057292 15.9921875,15.55 16.1671875,15.55 C16.5223958,15.55 16.8682292,15.365625 17.0588542,15.0354167 C17.3427083,14.5442708 17.1744792,13.9145833 16.6817708,13.6307292 L13.1,11.5625 C13.0520833,11.01875 12.7692708,10.54375 12.3453125,10.246875 L12.3453125,4.00416667 C12.3442708,3.43645833 11.8833333,2.97552083 11.315625,2.97552083 Z M11.315625,12.490625 C10.8901042,12.490625 10.5442708,12.1442708 10.5442708,11.7197917 C10.5442708,11.2947917 10.890625,10.9484375 11.315625,10.9484375 C11.740625,10.9484375 12.0869792,11.2947917 12.0869792,11.7197917 C12.0869792,12.1442708 11.740625,12.490625 11.315625,12.490625 Z" id="Shape" fill-rule="nonzero"></path>
            </g>
        </g>
    </g>
</svg>