<?xml version="1.0" encoding="UTF-8"?>
<svg width="25px" height="32px" viewBox="0 0 25 32" version="1.1" xmlns="http://www.w3.org/2000/svg" xmlns:xlink="http://www.w3.org/1999/xlink">
    <!-- Generator: Sketch 52.2 (67145) - http://www.bohemiancoding.com/sketch -->
    <title>shopping-bag</title>
    <desc>Created with Sketch.</desc>
    <g id="финансы" stroke="none" stroke-width="1" fill="none" fill-rule="evenodd">
        <g id="Artboard" transform="translate(-393.000000, -6765.000000)" fill="#FFFFFF">
            <g id="Group-13" transform="translate(380.000000, 6661.000000)">
                <g id="Group-11" transform="translate(0.000000, 97.000000)">
                    <g id="Group-2">
                        <g id="shopping-bag" transform="translate(13.000000, 7.000000)">
                            <path d="M24.9838054,25.9986453 L23.5758621,8.25751232 C23.4881158,7.11453202 22.5214901,6.21915025 21.3751847,6.21915025 L18.5942118,6.21915025 L18.5942118,6.09415025 C18.5942118,2.73380542 15.8604064,0 12.5000616,0 C9.13971675,0 6.40591133,2.73380542 6.40591133,6.09415025 L6.40591133,6.21915025 L3.625,6.21915025 C2.478633,6.21915025 1.51194581,7.11447044 1.42450739,8.25511084 L0.0161330049,26.0010468 C-0.0928571429,27.4219212 0.400061576,28.8365148 1.36841133,29.8819581 C2.33676108,30.9274015 3.70948276,31.5270936 5.13454433,31.5270936 L19.8655172,31.5270936 C21.2905172,31.5270936 22.6633005,30.9274631 23.6317118,29.8819581 C24.6000616,28.8364532 25.0929187,27.4219212 24.9838054,25.9986453 Z M8.25258621,6.09415025 C8.25258621,3.7520936 10.1580665,1.84667488 12.5000616,1.84667488 C14.8420567,1.84667488 16.7475369,3.75215517 16.7475369,6.09415025 L16.7475369,6.21915025 L8.25258621,6.21915025 L8.25258621,6.09415025 Z M22.2768473,28.6271552 C21.6476601,29.3063424 20.7913793,29.6804187 19.8655172,29.6804187 L5.13460591,29.6804187 C4.20874384,29.6804187 3.35246305,29.3063424 2.72327586,28.6271552 C2.09415025,27.9479064 1.78663793,27.0653941 1.85732759,26.1447044 L3.26557882,8.3987069 C3.27986453,8.21200739 3.43774631,8.06582512 3.625,8.06582512 L6.40591133,8.06582512 L6.40591133,10.3401478 C6.40591133,10.8500616 6.81933498,11.2634852 7.32924877,11.2634852 C7.83916256,11.2634852 8.25258621,10.8500616 8.25258621,10.3401478 L8.25258621,8.06582512 L16.7475369,8.06582512 L16.7475369,10.3401478 C16.7475369,10.8500616 17.1609606,11.2634852 17.6708744,11.2634852 C18.1807882,11.2634852 18.5942118,10.8500616 18.5942118,10.3401478 L18.5942118,8.06582512 L21.3751847,8.06582512 C21.5623768,8.06582512 21.7202586,8.21206897 21.7347906,8.40116995 L23.142734,26.1422414 C23.2135468,27.0653941 22.9059729,27.9478448 22.2768473,28.6271552 Z" id="Shape" fill-rule="nonzero"></path>
                            <path d="M16.6598522,15.6579433 C16.2993842,15.2973522 15.7147167,15.2973522 15.3541872,15.6579433 L11.2312808,19.7808498 L9.64593596,18.1955049 C9.2854064,17.8349138 8.70073892,17.8349138 8.34014778,18.1955049 C7.97955665,18.5560961 7.97955665,19.140702 8.34014778,19.5012931 L10.5783867,21.739532 C10.7586823,21.9198276 10.9950123,22.0100369 11.2312192,22.0100369 C11.4674261,22.0100369 11.7038177,21.9198892 11.8840517,21.739532 L16.6597906,16.9637931 C17.0204433,16.6031404 17.0204433,16.0185345 16.6598522,15.6579433 Z" id="Path"></path>
                        </g>
                    </g>
                </g>
            </g>
        </g>
    </g>
</svg>