<svg width="18" height="20" viewBox="0 0 23 30" fill="none" xmlns="http://www.w3.org/2000/svg">
<path d="M11.409 14.672C14.7445 14.672 17.4487 11.3876 17.4487 7.33603C17.4487 3.2844 16.5609 0 11.409 0C6.25714 0 5.36914 3.2844 5.36914 7.33603C5.36914 11.3876 8.07334 14.672 11.409 14.672Z" fill="white"/>
<path d="M0.00118923 25.8731C0.000159327 25.626 -0.000870578 25.8035 0.00118923 25.8731V25.8731Z" fill="white"/>
<path d="M22.8163 26.0662C22.8195 25.9986 22.8174 25.597 22.8163 26.0662V26.0662Z" fill="#fff"/>
<path d="M22.8034 25.5769C22.6916 18.519 21.7698 16.5079 14.7161 15.2349C14.7161 15.2349 13.7232 16.5001 11.4089 16.5001C9.09461 16.5001 8.10153 15.2349 8.10153 15.2349C1.12481 16.494 0.146984 18.4753 0.0184129 25.3476C0.00787003 25.9088 0.00298435 25.9383 0.00109863 25.8731C0.0015272 25.9952 0.0020413 26.221 0.0020413 26.6146C0.0020413 26.6146 1.68135 30 11.4089 30C21.1363 30 22.8158 26.6146 22.8158 26.6146C22.8158 26.3617 22.8159 26.1858 22.8162 26.0662C22.8143 26.1064 22.8105 26.0284 22.8034 25.5769Z" fill="white"/>
</svg>
