<?xml version="1.0" encoding="UTF-8"?>
<svg width="83px" height="23px" viewBox="0 0 83 23" version="1.1" xmlns="http://www.w3.org/2000/svg" xmlns:xlink="http://www.w3.org/1999/xlink">
    <!-- Generator: Sketch 52.2 (67145) - http://www.bohemiancoding.com/sketch -->
    <title>logo-hced43d3faf9a09dac8d0264c4d01013ee</title>
    <desc>Created with Sketch.</desc>
    <defs>
        <linearGradient x1="0%" y1="0%" x2="100%" y2="100%" id="linearGradient-1">
            <stop stop-color="#4854A2" offset="0%"></stop>
            <stop stop-color="#772088" offset="100%"></stop>
        </linearGradient>
    </defs>
    <g id="финансы" stroke="none" stroke-width="1" fill="none" fill-rule="evenodd">
        <g id="Artboard" transform="translate(-521.000000, -4061.000000)">
            <g id="Group-7" transform="translate(503.000000, 4013.000000)">
                <g id="logo-hced43d3faf9a09dac8d0264c4d01013ee" transform="translate(18.000000, 48.000000)">
                    <g id="Layer-1">
                        <g id="logo">
                            <g id="logo-classic">
                                <g id="prom">
                                    <g id="Group-10" transform="translate(23.139917, 4.970182)" fill="#70278B">
                                        <path d="M9.26685352,9.09702399 C9.88328437,8.4791475 10.1791723,7.73769571 10.1791723,6.87228205 C10.1791723,6.00725496 9.88328437,5.26580317 9.26685352,4.67263953 C8.65042266,4.05476304 7.91070563,3.75818122 7.02266174,3.75818122 C6.11109777,3.75818122 5.34634556,4.05476304 4.70563432,4.67263953 C4.08920346,5.26580317 3.76790021,6.00725496 3.76790021,6.87228205 C3.76790021,7.73769571 4.08920346,8.4791475 4.70563432,9.09702399 C5.34634556,9.69056868 6.11109777,9.98676945 7.02266174,9.98676945 C7.91070563,9.98676945 8.65042266,9.69056868 9.26685352,9.09702399 Z M0.315876393,17.8708922 L0.315876393,0.644455921 L3.98981752,0.644455921 L3.98981752,2.27565317 C4.35967603,1.18780729 5.81445506,0.422018175 7.68878832,0.422018175 C9.43945526,0.422018175 10.9188948,1.03990019 12.0777859,2.2999905 C13.2613321,3.53574348 13.8531079,5.0680838 13.8531079,6.87228205 C13.8531079,8.67724792 13.2613321,10.2092072 12.0777859,11.4696785 C10.9188948,12.7054315 9.43945526,13.323308 7.68878832,13.323308 C5.81445506,13.323308 4.35967603,12.5575189 3.98981752,11.4696785 L3.98981752,17.8708922 L0.315876393,17.8708922 Z" id="Fill-1" fill-rule="nonzero"></path>
                                        <path d="M15.7512257,13.1009862 L15.7512257,0.643809797 L19.4255415,0.643809797 L19.4255415,2.34991322 C19.9926623,1.08867977 21.323775,0.371940828 23.0255065,0.371940828 C23.2720788,0.371940828 23.5926273,0.397040248 23.9871408,0.446471472 L23.9871408,3.90658534 C23.6169021,3.83244127 23.1981082,3.78301005 22.7542791,3.78301005 C20.6584087,3.78301005 19.4255415,4.96933733 19.4255415,7.02069169 L19.4255415,13.1009862 L15.7512257,13.1009862 Z" id="Fill-3"></path>
                                        <path d="M29.2883084,9.19580912 C29.9047393,9.81368561 30.6694915,10.1349858 31.5814356,10.1349858 C32.4937544,10.1349858 33.258132,9.81368561 33.8745628,9.19580912 C34.4909937,8.55359531 34.8122969,7.78704962 34.8122969,6.87259131 C34.8122969,5.95775195 34.4909937,5.19196283 33.8745628,4.57408082 C33.258132,3.93111043 32.4937544,3.61057233 31.5814356,3.61057233 C30.6694915,3.61057233 29.9047393,3.93111043 29.2883084,4.57408082 C28.6718721,5.19196283 28.3513291,5.95775195 28.3513291,6.87259131 C28.3513291,7.78704962 28.6718721,8.57793263 29.2883084,9.19580912 M36.4639581,2.20105073 C37.820106,3.46152209 38.4858524,5.01895631 38.4858524,6.87259131 C38.4858524,8.72622078 37.820106,10.283274 36.4639581,11.5684582 C35.1074245,12.8293106 33.4800438,13.4715244 31.5814356,13.4715244 C29.6585471,13.4715244 28.0311663,12.8293106 26.6742526,11.5684582 C25.3435201,10.283274 24.6770134,8.72622078 24.6770134,6.87259131 C24.6770134,5.01895631 25.3435201,3.46152209 26.6742526,2.20105073 C28.0311663,0.916247577 29.6585471,0.273271665 31.5814356,0.273271665 C33.4800438,0.273271665 35.1074245,0.916247577 36.4639581,2.20105073" id="Fill-5" fill-rule="nonzero"></path>
                                        <path d="M40.408515,13.1009862 L40.408515,0.643809797 L44.0828308,0.643809797 L44.0828308,2.20124402 C44.5509403,1.11415471 45.8084626,0.371940828 47.3129373,0.371940828 C48.9896336,0.371940828 50.1234896,1.03925407 50.6906049,2.34991322 C51.3813865,1.03925407 52.7618202,0.371940828 54.8334103,0.371940828 C57.6693779,0.371940828 59.2474431,2.30010094 59.2474431,5.53778259 L59.2474431,13.1009862 L55.5735075,13.1009862 L55.5735075,5.98265256 C55.5735075,4.52446183 54.907761,3.63471637 53.7242094,3.63471637 C52.5160027,3.63471637 51.6526193,4.64841818 51.6526193,6.10622786 L51.6526193,13.1009862 L47.9786837,13.1009862 L47.9786837,5.98265256 C47.9786837,4.52446183 47.3129373,3.63471637 46.1293857,3.63471637 C44.9454594,3.63471637 44.0828308,4.64841818 44.0828308,6.10622786 L44.0828308,13.1009862 L40.408515,13.1009862 Z" id="Fill-7"></path>
                                    </g>
                                    <path d="M3.55271368e-15,18.2510449 L3.55271368e-15,-0.000115970919 L18.208459,-0.000115970919 L18.208459,18.2510449 L3.55271368e-15,18.2510449 Z M4.17277162,14.0684874 L14.0356874,14.0684874 L14.0356874,4.1824415 L4.17277162,4.1824415 L4.17277162,14.0684874 Z" id="Combined-Shape" fill="url(#linearGradient-1)" fill-rule="nonzero"></path>
                                </g>
                            </g>
                        </g>
                    </g>
                </g>
            </g>
        </g>
    </g>
</svg>