<?xml version="1.0" encoding="UTF-8"?>
<svg width="94px" height="93px" viewBox="0 0 94 93" version="1.1" xmlns="http://www.w3.org/2000/svg" xmlns:xlink="http://www.w3.org/1999/xlink">
    <!-- Generator: sketchtool 52.2 (67145) - http://www.bohemiancoding.com/sketch -->
    <title>DC058D5B-118D-450D-9B3D-1D94B89814CB</title>
    <desc>Created with sketchtool.</desc>
    <g id="финансы" stroke="none" stroke-width="1" fill="none" fill-rule="evenodd">
        <g id="Artboard" transform="translate(-380.000000, -2636.000000)">
            <g id="rozetka" transform="translate(380.000000, 2636.000000)">
                <g>
                    <path d="M93.9993625,46.6990523 C93.8655335,72.3698601 72.7089739,93.1321245 46.7991693,92.9993669 C20.8223112,92.9331043 -0.133263126,71.9718198 0.000638139293,46.3010121 C0.134539594,20.630181 21.2909674,-0.132033586 47.2008879,0.000632254174 C73.1778385,0.133298155 94.1331915,21.0281748 93.9993625,46.6990523 Z" id="Path" fill="#221F1F"></path>
                    <path d="M24.555228,35.7352049 C26.1702648,36.0686362 27.9202954,34.1353421 28.5259052,31.4022333 C29.1315149,28.668891 28.3238801,26.1357943 26.7088432,25.802363 C25.6319192,25.5357581 24.4879638,26.4023992 23.6130649,27.8022499 C24.3532029,28.202274 24.6897562,29.0689151 24.3532029,29.8689633 C24.0166496,30.5355923 23.2765116,30.9356164 22.6034516,30.8021972 C22.2669448,33.2021082 23.0744865,35.4020072 24.555228,35.7352049 Z M16.8156193,30.0021489 C18.0943124,23.2024399 22.0650594,18.2694555 25.6319192,18.9360845 C29.2662759,19.6027135 31.0833378,25.6691774 29.8046215,32.4688864 C28.5931693,39.2683618 24.6224921,44.2016032 21.0555392,43.5349742 C17.4213221,42.8683452 15.536903,36.801858 16.8156193,30.0021489 Z M79.3377724,35.7352049 C39.0246923,62.4008314 11.2296725,48.8680061 11.2296725,48.8680061 C10.8258783,58.134219 26.8433714,86.6663132 46.0913805,87.0663373 C65.2046286,87.3995349 79.3377724,35.7352049 79.3377724,35.7352049 Z M20.7863431,44.6016273 C25.0263095,45.4014419 29.6025964,40.0684101 31.0160737,32.6686648 C32.4293183,25.2691533 30.1411748,18.60277 25.9684725,17.8027919 C21.7285527,17.0028371 17.1521028,22.3359157 15.7388117,29.7355441 C14.2581866,37.2018821 16.5463999,43.8681719 20.7863431,44.6016273 Z M35.2560401,40.8016319 C36.6692847,39.2683618 38.2845543,37.7350918 40.1016163,36.3352411 C48.4467881,30.0021489 57.5323306,28.4022861 60.4935807,32.8020841 C61.6377688,34.5353662 61.7050329,36.8686844 60.830134,39.4683739 C63.7913841,34.601959 64.7335471,30.1355682 62.9164851,27.6690643 C59.8207069,23.5358712 50.3313469,26.4023992 41.5821249,34.0021565 C39.0919564,36.135229 37.005838,38.5351401 35.2560401,40.8016319 Z M44.543375,20.6026803 C51.2062458,16.1362194 62.7144601,13.6696688 68.8389853,23.002568 C65.0701004,1.53689055 49.1198947,13.8696575 44.543375,20.6026803 Z M92.9998346,46.7346999 C92.8650737,71.8670563 72.20382,92.1327642 46.7642544,91.999345 C21.3920459,91.8659257 1,71.4002058 1,46.2680829 C1,30.0021489 9.21065525,18.2694555 17.0175047,12.003073 C26.5740822,4.33676965 33.1024249,10.2031514 35.3905683,14.6696123 C35.1212792,12.8030278 34.3136443,7.33662342 32.2275259,3.40346571 C36.9383411,1.80354448 41.9859423,0.936917456 47.2353359,1.00358035 C72.6076374,1.20357138 93.0670987,21.6026238 92.9998346,46.7346999 Z M63.9931764,69.7337501 C59.013072,78.5999389 52.8212827,85.8662649 45.8893554,85.7330793 C41.5821249,85.6662529 37.4769195,83.9997972 33.7080346,81.4664669 C34.9194868,79.3331607 42.4570238,68.467085 63.9931764,69.7337501 Z" id="Shape" fill="#00A046" fill-rule="nonzero"></path>
                </g>
            </g>
        </g>
    </g>
</svg>