<?xml version="1.0" encoding="UTF-8"?>
<svg width="22px" height="22px" viewBox="0 0 22 22" version="1.1" xmlns="http://www.w3.org/2000/svg" xmlns:xlink="http://www.w3.org/1999/xlink">
    <!-- Generator: Sketch 52.2 (67145) - http://www.bohemiancoding.com/sketch -->
    <title>Shape</title>
    <desc>Created with Sketch.</desc>
    <g id="Page-1" stroke="none" stroke-width="1" fill="none" fill-rule="evenodd">
        <g id="База-знаний" transform="translate(-1349.000000, -242.000000)" fill="#FFFFFF" fill-rule="nonzero">
            <g id="к" transform="translate(255.000000, 128.000000)">
                <g id="Group-5" transform="translate(31.000000, 103.000000)">
                    <path d="M1084.46158,29.8616127 L1079.6822,25.0823133 C1079.6568,25.056913 1079.627,25.0391591 1079.60046,25.0155166 C1080.54088,23.588969 1081.08976,21.8813481 1081.08976,20.0449679 C1081.08976,15.0495462 1077.04021,11 1072.04488,11 C1067.04955,11 1063,15.0495462 1063,20.04488 C1063,25.0401259 1067.04946,29.08976 1072.04479,29.08976 C1073.88126,29.08976 1075.58879,28.540885 1077.01534,27.6004586 C1077.03898,27.6269136 1077.05665,27.6567084 1077.08205,27.6821087 L1081.86152,32.4615839 C1082.5795,33.179472 1083.74352,33.179472 1084.46158,32.4615839 C1085.17947,31.743608 1085.17947,30.5795887 1084.46158,29.8616127 Z M1072.00004,26 C1068.68626,26 1066,23.3137405 1066,20.0000446 C1066,16.6862595 1068.68635,14 1072.00004,14 C1075.31365,14 1078,16.6863487 1078,20.0000446 C1078,23.3137405 1075.31365,26 1072.00004,26 Z" id="Shape"></path>
                </g>
            </g>
        </g>
    </g>
</svg>