<?xml version="1.0" encoding="UTF-8"?>
<svg width="511px" height="416px" viewBox="0 0 511 416" version="1.1" xmlns="http://www.w3.org/2000/svg" xmlns:xlink="http://www.w3.org/1999/xlink">
    <!-- Generator: Sketch 52.2 (67145) - http://www.bohemiancoding.com/sketch -->
    <title>undraw_bookmarks_r6up</title>
    <desc>Created with Sketch.</desc>
    <g id="финансы" stroke="none" stroke-width="1" fill="none" fill-rule="evenodd">
        <g id="Artboard" transform="translate(-979.000000, -6646.000000)">
            <g id="undraw_bookmarks_r6up" transform="translate(980.000000, 6646.000000)">
                <ellipse id="Oval" fill="#4A90E2" cx="408.5" cy="395" rx="92.5" ry="21"></ellipse>
                <ellipse id="Oval" stroke="#3F3D56" cx="416.5" cy="389" rx="92.5" ry="21"></ellipse>
                <circle id="Oval" fill="#4A90E2" cx="267.5" cy="186.5" r="18.5"></circle>
                <circle id="Oval" fill="#4A90E2" cx="341.5" cy="186.5" r="18.5"></circle>
                <circle id="Oval" fill="#4A90E2" cx="415.5" cy="186.5" r="18.5"></circle>
                <circle id="Oval" fill="#F86B75" cx="8" cy="13" r="2"></circle>
                <circle id="Oval" fill="#FAD375" cx="13" cy="13" r="2"></circle>
                <circle id="Oval" fill="#8BCC55" cx="19" cy="13" r="2"></circle>
                <rect id="Rectangle" fill="#4A90E2" x="41" y="42" width="126" height="39"></rect>
                <rect id="Rectangle" stroke="#3F3D56" x="0" y="7" width="223" height="132"></rect>
                <path d="M0,16.5 L223,16.5" id="Path" stroke="#3F3D56"></path>
                <circle id="Oval" stroke="#3F3D56" cx="8" cy="12" r="2"></circle>
                <circle id="Oval" stroke="#3F3D56" cx="14" cy="12" r="2"></circle>
                <circle id="Oval" stroke="#3F3D56" cx="19" cy="12" r="2"></circle>
                <rect id="Rectangle" stroke="#3F3D56" x="49" y="34" width="126" height="39"></rect>
                <rect id="Rectangle" fill="#F2F2F2" x="25" y="98" width="169" height="5"></rect>
                <rect id="Rectangle" fill="#F2F2F2" x="25" y="110" width="169" height="5"></rect>
                <rect id="Rectangle" fill="#F2F2F2" x="25" y="122" width="169" height="5"></rect>
                <rect id="Rectangle" stroke="#3F3D56" x="27" y="95" width="169" height="5"></rect>
                <rect id="Rectangle" stroke="#3F3D56" x="27" y="108" width="169" height="5"></rect>
                <rect id="Rectangle" stroke="#3F3D56" x="27" y="120" width="169" height="5"></rect>
                <circle id="Oval" fill="#F86B75" cx="59" cy="242" r="2"></circle>
                <circle id="Oval" fill="#FAD375" cx="65" cy="242" r="2"></circle>
                <circle id="Oval" fill="#8BCC55" cx="70" cy="242" r="2"></circle>
                <rect id="Rectangle" fill="#4A90E2" x="92" y="271" width="126" height="39"></rect>
                <polyline id="Path" stroke="#3F3D56" points="275 262.888889 275 368 52 368 52 236 233.340659 236"></polyline>
                <path d="M52,245.5 L233,245.5" id="Path" stroke="#3F3D56"></path>
                <circle id="Oval" stroke="#3F3D56" cx="60" cy="241" r="2"></circle>
                <circle id="Oval" stroke="#3F3D56" cx="65" cy="241" r="2"></circle>
                <circle id="Oval" stroke="#3F3D56" cx="71" cy="241" r="2"></circle>
                <rect id="Rectangle" stroke="#3F3D56" x="100" y="263" width="126" height="39"></rect>
                <circle id="Oval" fill="#F86B75" cx="240" cy="136" r="2"></circle>
                <circle id="Oval" fill="#FAD375" cx="246" cy="136" r="2"></circle>
                <circle id="Oval" fill="#8BCC55" cx="251" cy="136" r="2"></circle>
                <rect id="Rectangle" stroke="#3F3D56" x="233" y="130" width="223" height="132"></rect>
                <path d="M233,140.5 L456,140.5" id="Path" stroke="#3F3D56"></path>
                <circle id="Oval" stroke="#3F3D56" cx="241" cy="135" r="2"></circle>
                <circle id="Oval" stroke="#3F3D56" cx="246" cy="135" r="2"></circle>
                <circle id="Oval" stroke="#3F3D56" cx="252" cy="135" r="2"></circle>
                <circle id="Oval" stroke="#3F3D56" cx="270.5" cy="183.5" r="18.5"></circle>
                <circle id="Oval" stroke="#3F3D56" cx="344.5" cy="183.5" r="18.5"></circle>
                <circle id="Oval" stroke="#3F3D56" cx="418.5" cy="183.5" r="18.5"></circle>
                <rect id="Rectangle" fill="#F2F2F2" x="242" y="218" width="50" height="5"></rect>
                <rect id="Rectangle" fill="#F2F2F2" x="317" y="218" width="50" height="5"></rect>
                <rect id="Rectangle" fill="#F2F2F2" x="392" y="218" width="50" height="5"></rect>
                <rect id="Rectangle" stroke="#3F3D56" x="245" y="216" width="50" height="5"></rect>
                <rect id="Rectangle" stroke="#3F3D56" x="319" y="216" width="50" height="5"></rect>
                <rect id="Rectangle" stroke="#3F3D56" x="394" y="216" width="50" height="5"></rect>
                <rect id="Rectangle" fill="#F2F2F2" x="60" y="325" width="39" height="33"></rect>
                <rect id="Rectangle" fill="#F2F2F2" x="131" y="325" width="39" height="33"></rect>
                <rect id="Rectangle" fill="#F2F2F2" x="202" y="326" width="39" height="33"></rect>
                <rect id="Rectangle" stroke="#3F3D56" x="65" y="319" width="39" height="33"></rect>
                <rect id="Rectangle" stroke="#3F3D56" x="137" y="319" width="39" height="33"></rect>
                <rect id="Rectangle" stroke="#3F3D56" x="208" y="320" width="39" height="33"></rect>
                <polygon id="Path" fill="#79758C" points="367.87876 126 351 136 369 129.210266"></polygon>
                <ellipse id="Oval" fill="#3F3D56" transform="translate(372.304226, 126.000605) rotate(-17.994250) translate(-372.304226, -126.000605) " cx="372.304226" cy="126.000605" rx="4.78979831" ry="9.65636322"></ellipse>
                <ellipse id="Oval" fill="#3F3D56" transform="translate(387.234397, 118.637032) rotate(-17.994250) translate(-387.234397, -118.637032) " cx="387.234397" cy="118.637032" rx="3.6136219" ry="6.81820006"></ellipse>
                <polygon id="Path" fill="#3F3D56" points="373 120.068148 384.545906 116 387 122.633746 375.825062 130"></polygon>
                <path d="M372.419692,145 L375.51123,138.297905 C375.51123,138.297905 382.930923,118.8009 376.129538,122.456588 C369.328154,126.112276 366.854923,135.860779 366.854923,135.860779 L365,141.953593 L372.419692,145 Z" id="Path" fill="#A0616A"></path>
                <path d="M456,246.46144 C456,246.46144 445.296296,266.382049 442.148148,266.985703 C439,267.589358 439,248.876059 439,248.876059 C439,248.876059 445.296296,243.443166 447.814815,244.046821 C450.333333,244.650476 456,246.46144 456,246.46144 Z" id="Path" fill="#A0616A"></path>
                <path d="M440.33983,374 C440.33983,374 445.807492,377.004408 443.37742,383.614105 C440.947348,390.223802 439.732312,388.421158 438.517276,393.829092 C437.30224,399.237026 426.366916,398.636144 425.759398,396.232618 C425.15188,393.829092 423.936843,384.214987 426.974434,380.609697 C430.012024,377.004408 440.33983,374 440.33983,374 Z" id="Path" fill="#55536E"></path>
                <path d="M386.66017,374 C386.66017,374 381.192508,377.004408 383.62258,383.614105 C386.052652,390.223802 387.267688,388.421158 388.482724,393.829092 C389.69776,399.237026 400.633084,398.636144 401.240602,396.232618 C401.84812,393.829092 403.063157,384.214987 400.025566,380.609697 C396.987976,377.004408 386.66017,374 386.66017,374 Z" id="Path" fill="#55536E"></path>
                <path d="M438.059858,251.184648 C438.059858,251.184648 442.947551,254.244623 444.169474,273.216466 C445.391397,292.188308 443.558513,313.608131 442.947551,318.50409 C442.336589,323.40005 443.558513,330.743989 444.780436,334.415958 C446.002359,338.087928 441.725628,366.239695 441.725628,366.239695 C443.551127,370.114774 443.551127,374.604514 441.725628,378.479593 C438.67082,385.211537 429.506396,391.943482 427.06255,385.211537 C426.934524,382.86284 426.309768,380.568194 425.229665,378.479593 C423.39678,374.807624 426.451588,360.119745 426.451588,360.119745 C426.451588,360.119745 424.007742,336.863938 424.618703,330.743989 C425.229665,324.62404 417.287164,288.516339 416.065241,282.396389 C414.843318,276.27644 415.45428,271.380481 414.843318,273.216466 C414.232356,275.05245 403.235048,325.848029 403.235048,325.848029 C403.235048,325.848029 404.456971,358.283761 403.846009,362.567725 C403.235048,366.85169 406.289856,375.419619 404.456971,378.479593 C402.624086,381.539568 398.958317,392.555477 392.237739,385.823532 C385.517162,379.091588 386.739085,376.643608 386.128123,373.583634 C385.517162,370.523659 386.128123,366.85169 386.128123,361.95573 C386.128123,357.059771 381.240431,329.519999 383.684277,325.236034 C386.128123,320.95207 384.9062,315.444116 384.295239,305.652197 C383.684277,295.860278 383.073315,248.736668 389.182931,240.168739 C395.292547,231.60081 438.059858,251.184648 438.059858,251.184648 Z" id="Path" fill="#3F3D56"></path>
                <circle id="Oval" fill="#A0616A" cx="422.5" cy="122.5" r="14.5"></circle>
                <path d="M432.282166,128.49004 C432.282166,128.49004 431.659546,150.283618 434.772644,153.915881 C437.885742,157.548144 408,150.888995 408,150.888995 C408,150.888995 414.848816,136.965321 410.490479,127.884663 C406.132141,118.804006 432.282166,128.49004 432.282166,128.49004 Z" id="Path" fill="#A0616A"></path>
                <path d="M438.16129,151.554134 C438.16129,151.554134 436.935484,146.644628 429.580645,145.417252 C422.225806,144.189876 413.528195,142.962499 410.828614,145.417252 C408.129032,147.872005 406.903226,150.940446 405.064516,150.940446 L396.483871,150.940446 L383,174.874284 C383,174.874284 389.741935,182.85223 387.903226,197.580746 C386.064516,212.309262 383,239.311541 383,239.311541 C387.913642,245.861291 392.221734,252.84523 395.870968,260.176938 C402,272.450702 444.290323,271.223325 441.83871,249.74424 C441.83871,249.74424 438.774194,244.221046 440,239.311541 C441.225806,234.402036 444.903226,201.262875 444.903226,201.262875 L459,163.827897 C459,163.827897 439.387097,154.008886 438.16129,151.554134 Z" id="Path" fill="#55536E"></path>
                <path d="M454.585182,163 L458.853407,163 C458.853407,163 461.292393,177.088889 460.682647,185.664734 C460.0729,194.240579 460.0729,214.455071 460.0729,214.455071 C460.0729,214.455071 462.511886,219.355554 461.902139,223.643477 C461.292393,227.9314 460.0729,239.570047 460.0729,239.570047 C460.0729,239.570047 459.463154,256.109177 447.877971,247.533332 C447.877971,247.533332 444.219493,245.695651 446.048732,237.732366 C447.877971,229.769081 444.829239,221.193236 444.829239,221.193236 C444.829239,221.193236 446.658479,215.680192 446.048732,212.00483 C445.438986,208.329468 443,196.690821 443,196.690821 L454.585182,163 Z" id="Path" fill="#55536E"></path>
                <path d="M399,152.075188 L395.923666,150.24812 C395.923666,150.24812 391.616798,148.421053 385.46413,150.24812 C379.311462,152.075188 376.235127,151.466165 373.77406,150.857143 C371.312993,150.24812 373.158793,144.157895 373.158793,144.157895 C373.158793,144.157895 368.236659,135.631579 363.314524,140.503759 C358.39239,145.37594 358.39239,155.120301 358.39239,155.120301 C358.39239,155.120301 355.316055,161.210526 366.390858,164.864662 C377.465661,168.518797 382.387796,174 382.387796,174 L394.693132,174 L399,152.075188 Z" id="Path" fill="#55536E"></path>
                <path d="M421.525993,140 C421.487786,138.878996 420.804103,137.884747 419.778931,137.459326 C419.108057,137.228031 418.409694,137.088407 417.702334,137.04415 C415.633119,136.774014 413.504531,136.005796 412.29921,134.405491 C410.694266,132.274615 411.132955,129.293777 409.846658,126.98057 C409.248396,126.069818 408.593425,125.198579 407.885727,124.372147 C405.641005,121.330836 405.245386,117.448071 405.040996,113.75422 C404.940499,113.005391 405.025463,112.243016 405.288244,111.535682 C405.673575,110.899373 406.139748,110.317027 406.674816,109.80357 C407.581418,108.73706 408.070525,107.371172 408.049623,105.96426 C407.98396,103.103387 412.027346,101.180933 414.890975,100.192968 C417.754604,99.2050025 420.860176,99.0476468 423.911101,99.0058456 C425.665035,98.9818168 427.475219,99.0028251 429.087285,99.651343 C430.014403,100.059199 430.886482,100.584849 431.682501,101.215623 C435.06111,103.719325 438.234264,106.797411 439.36829,110.693187 C439.813257,112.471506 440.02034,114.302263 439.983987,116.136382 C440.03787,116.706239 439.955304,117.28085 439.743284,117.811547 C439.337834,118.636873 438.382033,119.083908 437.764118,119.783861 C436.610016,121.091176 436.815445,122.982736 436.669219,124.674401 C436.289719,128.212231 434.27244,131.357073 431.234376,133.147063 C430.612264,133.455392 430.039321,133.85639 429.534645,134.336689 C429.154247,134.846533 428.839283,135.403177 428.597298,135.993289 C427.381805,138.353508 424.319401,139.91649 421.525993,140 Z" id="Path" fill="#3F3D56"></path>
                <polygon id="Path" fill="#79758C" points="118.439282 7 110 12 119 8.60523106"></polygon>
                <ellipse id="Oval" fill="#3F3D56" transform="translate(120.085066, 7.231921) rotate(-17.994250) translate(-120.085066, -7.231921) " cx="120.085066" cy="7.23192073" rx="2.27362891" ry="4.58370079"></ellipse>
                <ellipse id="Oval" fill="#3F3D56" transform="translate(127.172145, 3.736563) rotate(-17.994250) translate(-127.172145, -3.736563) " cx="127.172145" cy="3.73656264" rx="1.71531833" ry="3.23647113"></ellipse>
                <polygon id="Path" fill="#3F3D56" points="120 4.03361574 125.772893 2 127 5.31666211 121.412676 9"></polygon>
                <polygon id="Path" fill="#79758C" points="173.439282 235 165 240 174 236.605231"></polygon>
                <ellipse id="Oval" fill="#3F3D56" transform="translate(175.145146, 235.001333) rotate(-17.994250) translate(-175.145146, -235.001333) " cx="175.145146" cy="235.001333" rx="2.27362891" ry="4.58370079"></ellipse>
                <ellipse id="Oval" fill="#3F3D56" transform="translate(182.232224, 231.505975) rotate(-17.994250) translate(-182.232224, -231.505975) " cx="182.232224" cy="231.505975" rx="1.71531833" ry="3.23647113"></ellipse>
                <polygon id="Path" fill="#3F3D56" points="175 232.033616 180.772893 230 182 233.316662 176.412676 237"></polygon>
            </g>
        </g>
    </g>
</svg>