<?xml version="1.0" encoding="UTF-8"?>
<svg width="54px" height="47px" viewBox="0 0 54 47" version="1.1" xmlns="http://www.w3.org/2000/svg" xmlns:xlink="http://www.w3.org/1999/xlink">
    <!-- Generator: Sketch 52.2 (67145) - http://www.bohemiancoding.com/sketch -->
    <title>speech-bubble</title>
    <desc>Created with Sketch.</desc>
    <g id="финансы" stroke="none" stroke-width="1" fill="none" fill-rule="evenodd">
        <g id="Artboard" transform="translate(-1032.000000, -3926.000000)" fill="#4A90E2">
            <g id="Group-3" transform="translate(1002.000000, 3908.000000)">
                <g id="speech-bubble" transform="translate(30.000000, 18.000000)">
                    <path d="M6.51437724,47 C5.48882618,47 4.4941652,46.8365217 3.55579285,46.5143333 L1.41888491,45.7807246 L3.06086492,44.2378986 C5.23415453,42.1957826 5.78262528,39.8403333 5.81832049,38.0761304 C2.06208527,33.9435362 0,28.7878406 0,23.5 C-0.000686446495,10.5423043 12.111662,0 26.9993136,0 C41.8869651,0 54,10.5423043 54,23.5 C54,36.4570145 41.8869651,46.9986377 26.9993136,46.9986377 C22.5669285,46.9986377 18.1942644,46.0456957 14.2973076,44.2351739 C12.8289986,45.2671304 9.86286324,47 6.51437724,47 Z M13.9753642,41.0364493 L14.7634048,41.4322029 C18.4681565,43.291087 22.6994127,44.2746812 26.9986271,44.2746812 C40.3726642,44.2746812 51.2535276,34.955058 51.2535276,23.5006812 C51.2535276,12.044942 40.3726642,2.72531884 26.9986271,2.72531884 C13.62459,2.72531884 2.74441309,12.044942 2.74441309,23.5 C2.74441309,28.2606232 4.67607353,32.9149855 8.18450156,36.6048261 L8.54145374,36.9801449 L8.55792846,37.4957826 C8.61833575,39.3478551 8.28334986,41.8592899 6.62420868,44.274 C9.80382885,44.2235942 12.726718,42.0275362 13.2854855,41.5841014 L13.9753642,41.0364493 Z" id="Shape" fill-rule="nonzero"></path>
                    <path d="M13.9973435,30 C12.9475799,30 12.0953178,29.9195155 11.4369794,29.7578466 C10.7800721,29.5975774 10.3256755,29.4324092 10.0759362,29.2644415 C10.0129647,29.2028533 9.98935042,29.0621803 10.0043777,28.8396231 C10.019405,28.6191655 10.0551843,28.38821 10.1102843,28.1516555 C10.1646688,27.9151009 10.2355118,27.7023419 10.321382,27.5210767 C10.4072522,27.337712 10.4888289,27.2523284 10.5682589,27.2684253 C10.9754269,27.4062988 11.4176586,27.5406729 11.894954,27.670148 C12.3722493,27.7996231 12.9790656,27.8647106 13.7146873,27.8647106 C14.4667674,27.8647106 15.1036383,27.759031 15.6295934,27.5434724 C16.1534018,27.3286137 16.4167372,26.9457873 16.4167372,26.3949933 C16.4167372,25.9183849 16.2435656,25.5327591 15.8993691,25.2346164 C15.5551726,24.9364738 14.9361913,24.618035 14.0438565,24.2827995 C13.5579741,24.0973351 13.1007151,23.895074 12.6699328,23.6725168 C12.2384349,23.4513594 11.8598903,23.1903096 11.5307211,22.891467 C11.2015519,22.5933244 10.9439412,22.2370929 10.7557422,21.8241723 C10.5675433,21.4112517 10.4730861,20.920646 10.4730861,20.353755 C10.4730861,19.8946433 10.5639654,19.4579273 10.7435773,19.0443069 C10.9231892,18.6306864 11.2015519,18.2744549 11.5772341,17.9763122 C11.9529164,17.6781696 12.4345053,17.4402153 13.0220007,17.2645491 C13.6094962,17.088183 14.3100542,17 15.1243902,17 C15.6560701,17 16.0990174,17.0118977 16.4510853,17.0342934 C16.8031533,17.057389 17.0922497,17.088183 17.3205214,17.1266756 C17.5466463,17.1651682 17.7312673,17.2071602 17.8722376,17.2533513 C18.0132079,17.2995424 18.1463068,17.3373351 18.2715342,17.3681292 C18.3810188,17.4136205 18.4361188,17.5479946 18.4361188,17.769852 C18.4361188,17.9917093 18.4039175,18.2289637 18.3416616,18.4823149 C18.2794056,18.7342665 18.1928198,18.9568237 18.0840509,19.1478869 C17.9738507,19.3396501 17.8643662,19.4201346 17.7548816,19.3893405 C17.4886839,19.3130552 17.124451,19.2290713 16.6628985,19.137389 C16.2006305,19.0450067 15.7512429,18.9995155 15.3125892,18.9995155 C14.4195388,18.9995155 13.8055666,19.1226918 13.4692415,19.3669448 C13.1322009,19.6118977 12.9640383,19.9408345 12.9640383,20.3544549 C12.9640383,20.7988694 13.1522373,21.1551009 13.5279195,21.4224495 C13.9036018,21.6897981 14.4910973,21.9620458 15.2889748,22.2377927 C16.5569919,22.7276985 17.4929774,23.2903903 18.0955002,23.9258681 C18.698023,24.5613459 19,25.3612921 19,26.3264065 C19,27.046568 18.8590297,27.644253 18.5778047,28.1194616 C18.2951485,28.5939704 17.9194663,28.9697981 17.4500423,29.2434455 C16.9806184,29.5205922 16.4439295,29.7151548 15.8414067,29.8299327 C15.2381683,29.942611 14.6234806,30 13.9973435,30 Z" id="Path"></path>
                    <path d="M30.4276921,28.997995 C30.1137777,28.997995 29.9079209,28.9472013 29.8114897,28.8442774 C29.7130067,28.7426901 29.665817,28.5455305 29.665817,28.251462 L29.665817,20.574269 C29.0673962,21.5246449 28.6057573,22.2591479 28.2836359,22.7784461 C27.9608306,23.2984127 27.7276175,23.6786967 27.5771574,23.9199666 C27.4273812,24.1598997 27.3371052,24.3035923 27.3063293,24.3470343 C27.2769212,24.3911445 27.263243,24.4212197 27.263243,24.4359231 C27.1291967,24.6551378 27.0348172,24.7974937 26.9828401,24.8636591 C26.9294952,24.9311612 26.8207535,24.9619048 26.6566153,24.9619048 L26.2975628,24.9619048 C26.1033325,24.9619048 25.9754414,24.9291562 25.9159413,24.8636591 C25.8564412,24.7974937 25.7661651,24.6551378 25.646481,24.4359231 L23.3567521,20.619716 L23.3567521,28.3851295 C23.3567521,28.5756057 23.3232405,28.7259816 23.2555334,28.835589 C23.1885103,28.9451963 23.0127456,29 22.7282392,29 L21.7864959,29 C21.5765357,29 21.3939319,28.9672515 21.2359488,28.901086 C21.0793335,28.835589 21,28.6203843 21,28.253467 L21,17.7238095 C21,17.4310777 21.0560806,17.2372598 21.1682417,17.1423559 C21.2804029,17.047452 21.4411216,17 21.6510818,17 L22.7733773,17 C22.9375155,17 23.0763492,17.0213868 23.1885103,17.0654971 C23.3006715,17.1096074 23.4162522,17.2192147 23.5366202,17.3943191 L26.5212012,22.0446115 L29.5064661,17.4384294 C29.5967421,17.2773601 29.7041159,17.164411 29.8333748,17.0982456 C29.9612659,17.0320802 30.0830017,17 30.2033698,17 L31.4385103,17 C31.7230167,17 31.886471,17.0581454 31.9329769,17.1751044 C31.9781149,17.2927318 32,17.4825397 32,17.7458647 L32,28.3610693 C32,28.580284 31.9705919,28.7420217 31.9104079,28.8449457 C31.8502238,28.9478697 31.6778786,28.997995 31.3947401,28.997995 L30.4276921,28.997995 Z" id="Path"></path>
                    <path d="M36.9976613,30 C35.9470986,30 35.0954844,29.9195155 34.4370937,29.7578466 C33.7801342,29.5975774 33.3249857,29.4324092 33.0759423,29.2644415 C33.0129658,29.2028533 32.9893496,29.0621803 33.0043781,28.8396231 C33.0194065,28.6191655 33.0537574,28.38821 33.1095775,28.1516555 C33.1639663,27.9151009 33.2340992,27.7023419 33.3206919,27.5210767 C33.4058533,27.3370121 33.4874365,27.2523284 33.5675884,27.2684253 C33.9747888,27.4062988 34.4177713,27.5406729 34.894389,27.670148 C35.3710067,27.800323 35.9778712,27.8647106 36.714267,27.8647106 C37.4664069,27.8647106 38.1026128,27.759031 38.6293254,27.5434724 C39.1524598,27.3286137 39.4172474,26.9457873 39.4172474,26.3949933 C39.4172474,25.9183849 39.244062,25.5327591 38.8991225,25.2346164 C38.554183,24.9364738 37.9358682,24.618035 37.0427468,24.2827995 C36.5568257,24.0973351 36.100246,23.895074 35.6687138,23.6725168 C35.2371816,23.4513594 34.8586069,23.1903096 34.5286959,22.891467 C34.2002161,22.5933244 33.9425849,22.2370929 33.754371,21.8241723 C33.5654415,21.4105518 33.4716924,20.920646 33.4716924,20.353755 C33.4716924,19.8946433 33.5625789,19.4579273 33.7414895,19.0443069 C33.9218313,18.6306864 34.2002161,18.2744549 34.5759282,17.9763122 C34.9516404,17.6781696 35.4325519,17.4402153 36.0200941,17.2645491 C36.608352,17.088183 37.3096813,17 38.1226508,17 C38.6550885,17 39.098071,17.0118977 39.4494513,17.0342934 C39.8015473,17.057389 40.0906667,17.088183 40.3196722,17.1266756 C40.5450995,17.1651682 40.7297352,17.2071602 40.8714323,17.2533513 C41.0116982,17.2988425 41.1455233,17.3373351 41.2714763,17.3681292 C41.3802539,17.4136205 41.4353583,17.5479946 41.4353583,17.769852 C41.4353583,17.9917093 41.4031544,18.2289637 41.3401779,18.4823149 C41.2786327,18.7342665 41.19204,18.9568237 41.083978,19.1478869 C40.9737691,19.3396501 40.8635603,19.4201346 40.754067,19.3893405 C40.4885638,19.3130552 40.1228706,19.2290713 39.6627127,19.137389 C39.2004079,19.0450067 38.750269,18.9995155 38.312296,18.9995155 C37.4191745,18.9995155 36.8044379,19.1226918 36.4688018,19.3669448 C36.1317343,19.6118977 35.9628427,19.9408345 35.9628427,20.3544549 C35.9628427,20.7988694 36.1517723,21.1551009 36.5274844,21.4224495 C36.9024809,21.6897981 37.4907388,21.9620458 38.2886798,22.2377927 C39.556082,22.7276985 40.4928576,23.2903903 41.0954283,23.9258681 C41.697999,24.5613459 42,25.3612921 42,26.3264065 C42,27.046568 41.8590185,27.644253 41.5777711,28.1194616 C41.2950925,28.5939704 40.9193803,28.9697981 40.4499191,29.2434455 C39.9804578,29.5205922 39.4437262,29.7151548 38.8411555,29.8299327 C38.2364379,29.942611 37.6238482,30 36.9976613,30 Z" id="Path"></path>
                </g>
            </g>
        </g>
    </g>
</svg>