<?xml version="1.0" encoding="UTF-8"?>
<svg width="27px" height="34px" viewBox="0 0 27 34" version="1.1" xmlns="http://www.w3.org/2000/svg" xmlns:xlink="http://www.w3.org/1999/xlink">
    <!-- Generator: Sketch 52.2 (67145) - http://www.bohemiancoding.com/sketch -->
    <title>one-finger-tap-gesture-of-outlined-hand-symbol</title>
    <desc>Created with Sketch.</desc>
    <g id="финансы" stroke="none" stroke-width="1" fill="none" fill-rule="evenodd">
        <g id="Artboard" transform="translate(-392.000000, -6863.000000)" fill="#FFFFFF">
            <g id="Group-13" transform="translate(380.000000, 6661.000000)">
                <g id="Group-12" transform="translate(0.000000, 194.000000)">
                    <g id="Group-3">
                        <g id="one-finger-tap-gesture-of-outlined-hand-symbol" transform="translate(13.000000, 8.000000)">
                            <path d="M5.54548533,12.9514673 L5.54548533,11.6563205 C4.2503386,10.5770316 3.38690745,8.95812641 3.38690745,7.123307 C3.38690745,3.88544018 6.08510158,1.18718962 9.32302483,1.18718962 C12.5608916,1.18718962 15.2591422,3.88538375 15.2591422,7.123307 C15.2591422,8.5263544 14.719526,9.92945824 13.8560384,10.9008465 C14.287754,10.9008465 14.6116253,11.0088036 15.043228,11.1167043 C15.9067156,9.92951467 16.3384312,8.52641084 16.3384312,7.01540632 C16.3384312,3.12990971 13.208465,0 9.32302483,0 C5.43758465,0 2.30761851,3.12990971 2.30761851,7.01534989 C2.30761851,9.49774266 3.60276524,11.6563205 5.54548533,12.9514673 Z" id="Path"></path>
                            <path d="M14.1798533,7.01534989 C14.1798533,4.31715576 12.0212754,2.15857788 9.32302483,2.15857788 C6.62477427,2.15857788 4.46625282,4.31715576 4.46625282,7.01534989 C4.46625282,8.20259594 4.8979684,9.28188488 5.54554176,10.0373589 L5.54554176,7.01534989 C5.54554176,4.96472912 7.27240406,3.23781038 9.32308126,3.23781038 C11.3737585,3.23781038 13.1006208,4.96467269 13.1006208,7.01534989 L13.1006208,10.0373589 C13.7480813,9.28188488 14.1798533,8.20259594 14.1798533,7.01534989 Z" id="Path"></path>
                            <path d="M22.2744921,15.1100451 C21.6269187,15.1100451 21.0873025,15.3259029 20.6555305,15.6496614 C20.6555305,14.1386569 19.4683409,12.9514673 17.9573363,12.9514673 C17.309763,12.9514673 16.6621332,13.1673251 16.1224605,13.5990406 C15.6908578,12.5197517 14.7194695,11.8721783 13.6401806,11.8721783 C12.9926072,11.8721783 12.4529345,12.0880361 12.021219,12.4117946 L12.021219,7.01534989 C12.021219,5.50434537 10.8339729,4.31715576 9.32302483,4.31715576 C7.81207675,4.31715576 6.6248307,5.50440181 6.6248307,7.01534989 L6.6248307,16.6210497 C4.46625282,14.6783296 2.09181716,13.1673251 0.580812641,14.6783296 C-1.57776524,16.8369074 2.95524831,21.0461061 6.40897291,27.4139391 C8.89136569,31.8389955 12.3450903,33.4579571 15.7988149,33.4579571 C20.8714447,33.4579571 24.9727427,29.3566591 24.9727427,24.2840293 L24.9727427,17.8082957 C24.9727427,16.2972348 23.7854966,15.1100451 22.2744921,15.1100451 Z M23.8934537,20.1827314 L23.8934537,24.2840293 C23.8934537,28.4932844 20.2238713,32.3787246 15.7987585,32.3787246 C11.6974605,32.3787246 9.32302483,30.112246 7.38030474,26.9822799 C3.17104966,19.8589729 0.149040632,16.6211061 1.33628668,15.43386 C2.52353273,14.2466704 5.43758465,16.8369074 7.70406321,19.2113995 L7.70406321,7.01534989 C7.70406321,6.15191874 8.45959368,5.39638826 9.32302483,5.39638826 C10.186456,5.39638826 10.9419865,6.15191874 10.9419865,7.01534989 L10.9419865,18.3478555 L12.0212754,18.3478555 L12.0212754,14.570316 C12.0212754,13.7068849 12.7767494,12.9513544 13.640237,12.9513544 C14.5036117,12.9513544 15.2591986,13.7068849 15.2591986,14.570316 L15.2591986,17.268623 L16.3384876,17.268623 L16.3384876,15.6496614 C16.3384876,14.7862302 17.0939616,14.0306998 17.9574492,14.0306998 C18.8208239,14.0306998 19.5764108,14.7862302 19.5764108,15.6496614 L19.5764108,18.3478555 L20.6556998,18.3478555 L20.6556998,17.8082393 C20.6556998,16.9448081 21.4111738,16.1892777 22.2746614,16.1892777 C23.1380361,16.1892777 23.893623,16.9448081 23.893623,17.8082393 L23.893623,20.1827314 L23.8934537,20.1827314 Z" id="Shape" stroke="#FFFFFF" stroke-width="0.5" fill-rule="nonzero"></path>
                        </g>
                    </g>
                </g>
            </g>
        </g>
    </g>
</svg>