<?xml version="1.0" encoding="UTF-8"?>
<svg width="740px" height="467px" viewBox="0 0 740 467" version="1.1" xmlns="http://www.w3.org/2000/svg" xmlns:xlink="http://www.w3.org/1999/xlink">
    <!-- Generator: sketchtool 52.2 (67145) - http://www.bohemiancoding.com/sketch -->
    <title>5E19449E-B8E5-46B1-8570-592942920B70</title>
    <desc>Created with sketchtool.</desc>
    <g id="финансы" stroke="none" stroke-width="1" fill="none" fill-rule="evenodd">
        <g id="Artboard" transform="translate(-1050.000000, -1598.000000)">
            <g id="il2" transform="translate(971.000000, 1496.000000)">
                <rect id="Rectangle" fill="#F2F2F2" x="177" y="121" width="561" height="394" rx="30.99485"></rect>
                <rect id="Rectangle" fill="#FFFFFF" x="272" y="204" width="389" height="32" rx="12.88976"></rect>
                <rect id="Rectangle" stroke="#3F3D56" x="194" y="103" width="561" height="394" rx="30.99485"></rect>
                <path d="M194,134.5 L755,134.5" id="Path" stroke="#3F3D56"></path>
                <circle id="Oval" fill="#4A90E2" cx="212" cy="122" r="8"></circle>
                <circle id="Oval" fill="#4A90E2" cx="235" cy="122" r="8"></circle>
                <circle id="Oval" fill="#4A90E2" cx="256" cy="122" r="8"></circle>
                <circle id="Oval" stroke="#3F3D56" cx="215" cy="119" r="8"></circle>
                <circle id="Oval" stroke="#3F3D56" cx="236" cy="119" r="8"></circle>
                <circle id="Oval" stroke="#3F3D56" cx="259" cy="119" r="8"></circle>
                <rect id="Rectangle" stroke="#3F3D56" x="280" y="198" width="389" height="32" rx="12.88976"></rect>
                <circle id="Oval" stroke="#3F3D56" cx="645.5" cy="209.5" r="5.5"></circle>
                <path d="M649,214 L658,223" id="Path" stroke="#3F3D56"></path>
                <rect id="Rectangle" fill="#4A90E2" x="291" y="212" width="69" height="12" rx="6"></rect>
                <rect id="Rectangle" stroke="#3F3D56" x="292" y="208" width="69" height="12" rx="6"></rect>
                <rect id="Rectangle" fill="#4A90E2" x="265" y="281" width="69" height="12" rx="6"></rect>
                <rect id="Rectangle" fill="#FFFFFF" x="265" y="317" width="69" height="12" rx="6"></rect>
                <rect id="Rectangle" fill="#FFFFFF" x="265" y="354" width="69" height="12" rx="6"></rect>
                <rect id="Rectangle" fill="#FFFFFF" x="265" y="391" width="69" height="12" rx="6"></rect>
                <rect id="Rectangle" fill="#FFFFFF" x="265" y="428" width="69" height="12" rx="6"></rect>
                <rect id="Rectangle" stroke="#3F3D56" x="268" y="277" width="69" height="12" rx="6"></rect>
                <rect id="Rectangle" stroke="#3F3D56" x="268" y="314" width="69" height="12" rx="6"></rect>
                <rect id="Rectangle" stroke="#3F3D56" x="268" y="350" width="69" height="12" rx="6"></rect>
                <rect id="Rectangle" stroke="#3F3D56" x="268" y="387" width="69" height="12" rx="6"></rect>
                <rect id="Rectangle" stroke="#3F3D56" x="268" y="424" width="69" height="12" rx="6"></rect>
                <rect id="Rectangle" fill="#57B894" x="641" y="281" width="36" height="12" rx="4.01181"></rect>
                <rect id="Rectangle" fill="#FFFFFF" x="641" y="317" width="36" height="12" rx="4.01181"></rect>
                <rect id="Rectangle" fill="#FFFFFF" x="641" y="354" width="36" height="12" rx="4.01181"></rect>
                <rect id="Rectangle" fill="#FFFFFF" x="641" y="391" width="36" height="12" rx="4.01181"></rect>
                <rect id="Rectangle" fill="#FFFFFF" x="641" y="428" width="36" height="12" rx="4.01181"></rect>
                <rect id="Rectangle" stroke="#3F3D56" x="645" y="277" width="36" height="12" rx="4.01181"></rect>
                <rect id="Rectangle" stroke="#3F3D56" x="645" y="314" width="36" height="12" rx="4.01181"></rect>
                <rect id="Rectangle" stroke="#3F3D56" x="645" y="350" width="36" height="12" rx="4.01181"></rect>
                <rect id="Rectangle" stroke="#3F3D56" x="645" y="387" width="36" height="12" rx="4.01181"></rect>
                <rect id="Rectangle" stroke="#3F3D56" x="645" y="424" width="36" height="12" rx="4.01181"></rect>
                <rect id="Rectangle" fill="#2F2E41" x="194" y="341" width="36" height="46"></rect>
                <path d="M165.651943,541 C165.651943,541 175.425217,541 178.37992,544.222117 C181.334623,547.444234 180.198204,555.039254 183.380198,556.189987 C186.562193,557.340721 193.835331,566.546795 187.471335,567.697551 C183.0302,568.500589 174.161528,568.855337 169.207712,568.996376 C167.037216,569.056814 164.912189,568.359757 163.188953,567.022088 C162.011906,566.10496 160.785444,565.254765 159.515238,564.475434 C156.105953,562.404072 159.515238,548.59499 159.515238,548.59499 L165.651943,541 Z" id="Path" fill="#575A89"></path>
                <path d="M165.651943,541 C165.651943,541 175.425217,541 178.37992,544.222117 C181.334623,547.444234 180.198204,555.039254 183.380198,556.189987 C186.562193,557.340721 193.835331,566.546795 187.471335,567.697551 C183.0302,568.500589 174.161528,568.855337 169.207712,568.996376 C167.037216,569.056814 164.912189,568.359757 163.188953,567.022088 C162.011906,566.10496 160.785444,565.254765 159.515238,564.475434 C156.105953,562.404072 159.515238,548.59499 159.515238,548.59499 L165.651943,541 Z" id="Path" fill="#000000" opacity="0.1"></path>
                <path d="M203.400981,451.31684 C203.400981,453.849022 201.344049,466.049517 201.344049,466.049517 L180.089087,548 C180.089087,548 164.54782,544.08664 163.176542,544.316836 C162.888566,544.36517 162.973127,543.023122 163.283953,540.856949 C163.935337,536.322064 165.585446,528.182237 166.92699,521.635421 C168.008046,516.359299 168.890215,512.116738 168.890215,511.628719 C168.890215,511.062439 169.390722,501.557558 169.980401,490.537964 C170.826018,474.681924 171.861361,455.690585 171.861361,455.690585 L168.433144,405.507427 L169.347337,385.710394 L174.832485,362 L211.171615,371.898517 L212.888009,383.571847 L213,384.329208 C213,384.329208 209.567937,437.724015 207.739537,439.335404 C205.911137,440.946793 203.400981,448.784666 203.400981,451.31684 Z" id="Path" fill="#3F3D56"></path>
                <path d="M159.381568,529.011274 C159.381568,529.011274 145.812428,528.782964 144.455517,530.381153 C143.529295,531.472081 138.388032,542.350138 135.217721,549.145529 C132.535763,554.802686 134.409542,561.590287 139.603208,565.031576 C142.05734,566.592209 144.96752,567.25565 147.847798,566.911115 C160.06002,565.769555 159.381568,558.006941 159.381568,558.006941 L163,546.134699 L162.09539,530.609456 L159.381568,529.011274 Z" id="Path" fill="#575A89"></path>
                <path d="M163,540.746659 C163.71521,536.087881 165.527005,527.725674 167,521 C166.422857,528.979066 164.284851,541.397028 163.634886,540.990253 C163.430425,540.893363 163.21813,540.81191 163,540.746659 Z" id="Path" fill="#000000" opacity="0.1"></path>
                <path d="M181.030217,439.62456 C181.261566,441.01071 178.716706,445.169168 177.097256,450.251729 C175.477806,455.33429 171.08214,487.215804 171.08214,487.215804 C171.08214,487.215804 170.876231,488.68281 170.56623,491 C171.422216,475.086965 172.470256,456.027361 172.470256,456.027361 L169,405.663817 L169.925403,385.795622 L175.477814,362 L212.262558,371.934098 L214,383.649389 L178.485372,370.085892 C178.485372,370.085892 177.791318,382.561266 177.791318,385.10255 C177.791318,387.643835 180.798861,438.238402 181.030217,439.62456 Z" id="Path" fill="#000000" opacity="0.1"></path>
                <path d="M142.373133,337 C142.373133,337 131.379763,351.696149 134.586161,367.770051 C137.792559,383.843953 141.915071,424.258331 144.892442,428.162018 C147.869813,432.065705 144.892442,439.413753 144.892442,439.413753 C144.892442,439.413753 139.624788,508.761185 140.082864,511.057456 C140.54094,513.353726 141.45704,524.146211 142.602182,525.98323 C143.747323,527.82025 143.060235,533.790559 143.060235,533.790559 C143.060235,533.790559 161.840576,539.531236 162.527656,539.990495 C163.214737,540.449753 165.734054,524.146211 165.734054,517.257398 C165.734054,510.368586 169.169486,485.798463 169.169486,485.798463 C169.169486,485.798463 173.521026,454.109902 175.124228,449.058102 C176.727431,444.006302 179.246741,439.873012 179.017707,438.495251 C178.788672,437.11749 175.811309,386.829123 175.811309,384.303219 C175.811309,381.777316 176.498397,369.377445 176.498397,369.377445 L213.732649,383.65307 C213.732649,383.65307 222.015291,344.928918 217.80815,341.079276 C213.601009,337.229633 142.373133,337 142.373133,337 Z" id="Path" fill="#3F3D56"></path>
                <ellipse id="Oval" fill="#2F2E41" cx="173.5" cy="192.5" rx="28.5" ry="11.5"></ellipse>
                <path d="M157.626374,159.275384 C154.175091,162.20376 151.661214,166.060116 150.391155,170.374408 C149.913076,172.034077 149.689459,173.970175 150.821434,175.325532 C151.248999,175.71681 151.621829,176.162607 151.930077,176.651146 C152.115497,177.372221 152.125159,178.126418 151.958269,178.851892 C151.99403,180.243561 152.369512,181.606145 153.052815,182.823888 L156.809192,191 C157.224954,190.286763 157.230146,189.411076 157.658974,188.704618 C158.491096,187.333772 160.481927,187.134239 162.169246,187.095188 L167.432205,186.973384 C168.850692,187.043108 170.267212,186.801773 171.579988,186.266721 C173.110236,185.499543 174.030075,184.005885 175.259596,182.860526 C176.849556,181.405768 178.891701,180.525528 181.053233,180.363256 C180.300611,181.483871 179.382832,182.487341 178.330211,183.340518 C181.286603,183.041511 184.023679,181.66441 186.006102,179.478559 L186.014369,181.892418 C186.889542,182.216528 187.639518,180.930732 188.574409,181.034561 C189.683851,181.157776 189.477352,182.679824 189.422427,183.721572 C189.450824,185.704352 191.040701,187.321142 193.047333,187.407838 C194.198286,182.549814 195.356394,177.600284 194.896849,172.643383 C194.437303,167.686482 192.098954,162.629949 187.619052,159.934739 C185.795951,158.892749 183.806421,158.164894 181.735788,157.78239 C177.492177,156.907918 173.099999,156.968534 168.754805,157.033334 C166.26686,156.969503 163.78046,157.209504 161.352152,157.747881 C158.95896,158.383791 156.668314,159.694583 155.454659,161.722414" id="Path" fill="#3F3D56"></path>
                <path d="M160.969253,190.884971 C160.969253,190.884971 159.816705,200.46873 158.20314,200.46873 C156.589576,200.46873 165.118429,216.129996 165.118429,216.129996 L188.169415,218 L202,209.117494 L195.315219,197.663732 C195.315219,197.663732 184.481232,195.793728 185.864311,189.482472 C187.24739,183.171215 160.969253,190.884971 160.969253,190.884971 Z" id="Path" fill="#FBBEBE"></path>
                <path d="M160.969253,190.884971 C160.969253,190.884971 159.816705,200.46873 158.20314,200.46873 C156.589576,200.46873 165.118429,216.129996 165.118429,216.129996 L188.169415,218 L202,209.117494 L195.315219,197.663732 C195.315219,197.663732 184.481232,195.793728 185.864311,189.482472 C187.24739,183.171215 160.969253,190.884971 160.969253,190.884971 Z" id="Path" fill="#000000" opacity="0.1"></path>
                <circle id="Oval" fill="#FBBEBE" cx="174" cy="179" r="20"></circle>
                <path d="M175.932493,210.738792 C175.932493,210.738792 189.627495,211.429675 193.964242,196 C193.964242,196 207.430988,198.763519 208.572237,205.211747 C209.713486,211.659975 226.375724,336.939721 220.897735,342.466766 C215.419746,347.993811 159.726744,342.466766 147.401247,342.466766 C135.075749,342.466766 128,345 128,345 L144.662245,266.469857 L146.488246,212.811435 L149.683745,198.533227 C149.683745,198.533227 159.095342,195.680296 160.209916,198.258225 C161.32449,200.836154 164.519996,213.272019 175.932493,210.738792 Z" id="Path" fill="#575A89"></path>
                <path d="M159.875155,196.024632 C159.875155,196.024632 154.215439,193.71921 150.117606,196.024632 C146.019773,198.330055 134.181586,197.40788 132.587981,199.943835 C130.994376,202.47979 117.107272,216.773383 117.562599,218.617741 C118.017925,220.462098 128.717811,259.423615 130.766728,260.80687 C132.815644,262.190125 128.034837,343.340793 121.888087,353.023541 C115.741338,362.706289 114.603052,391.524008 117.562599,395.673758 C120.522145,399.823508 118.01791,393.137795 124.164659,390.60184 C130.311409,388.065885 136.230502,372.850132 136.230502,372.850132 C136.230502,372.850132 140.10068,328.586128 142.604907,318.903372 C145.109135,309.220617 166.508938,274.869915 164.915333,252.96845 C163.321728,231.066984 151.938859,209.165525 154.443095,206.168483 C156.94733,203.17144 161.892357,199.482755 159.875155,196.024632 Z" id="Path" fill="#2F2E41"></path>
                <path d="M189.812247,195.841283 C189.812247,195.841283 199.177078,191.336716 204.95781,196.418825 C210.738543,201.500933 233.63038,209.58602 233.399137,214.668099 C233.167893,219.750177 216.981778,258.096762 216.981778,258.096762 C216.981778,258.096762 217.675464,289.744249 220.912696,298.753389 C224.149928,307.762529 244.960715,382.376638 237.330092,387.689718 C229.69947,393.002798 220.450276,395.774843 214.207056,396.92986 C207.963836,398.084877 214.669521,384.686671 215.363207,377.987573 C216.056893,371.288474 224.612423,347.264101 213.050905,332.941881 C201.489387,318.619661 180.678653,275.190997 182.066026,251.397634 C183.453398,227.60427 185.996944,220.212158 185.996944,220.212158 C185.996944,220.212158 193.511937,197.458311 189.812247,195.841283 Z" id="Path" fill="#2F2E41"></path>
                <path d="M122.900548,216 L118.8583,216 C118.8583,216 115.326015,232.123716 111.423965,234.460484 C107.521915,236.797252 105.456124,240.068728 105.456124,241.938146 C105.456124,243.807563 102.701734,246.378007 100.176883,248.948457 C97.6520309,251.518908 92.3727819,257.360828 93.0613812,260.86598 C93.7499805,264.371132 92.6023125,284 98.5701534,284 C104.537994,284 116.932737,282.13059 118.768997,279.326464 C120.605257,276.522338 133,256.42612 133,256.42612 L122.900548,216 Z" id="Path" fill="#2F2E41"></path>
                <g id="Group"></g>
                <path d="M157.117958,149.275363 C153.861956,152.261061 151.520228,156.109925 150.365079,160.374394 C149.91887,162.034065 149.710162,163.970164 150.766675,165.325522 C151.168265,165.720048 151.516167,166.165752 151.801408,166.651137 C151.974486,167.373534 151.98348,168.125546 151.827729,168.851877 C151.859364,170.236698 152.208891,171.595705 152.849301,172.823883 L156.355264,181 C156.743312,180.286762 156.748152,179.411075 157.148395,178.704616 C157.925046,177.333763 159.78315,177.134236 161.357969,177.095185 L166.270065,176.973381 C167.597887,177.042381 168.923481,176.800406 170.141337,176.266718 C171.569572,175.49954 172.428088,174.00588 173.575649,172.860521 C175.029602,171.419659 176.943588,170.535732 178.983049,170.363249 C178.287516,171.475753 177.431054,172.479064 176.441551,173.340513 C179.237065,173.0219 181.802599,171.63891 183.605734,169.478552 L183.613448,171.892413 C184.430274,172.216522 185.130223,170.930762 186.002784,171.034554 C187.038262,171.15777 186.845522,172.679818 186.794269,173.721568 C186.772469,175.650913 188.25378,177.264897 190.177519,177.407835 C191.25174,172.549802 192.332644,167.600276 191.903719,162.643371 C191.474794,157.686467 189.292375,152.629952 185.111104,149.934741 C183.422552,148.897857 181.563346,148.169096 179.620055,147.782391 C175.659358,146.907917 171.559972,146.968534 167.504484,147.033334 C165.180146,146.969734 162.857453,147.209946 160.595297,147.747881 C158.312057,148.303041 156.336517,149.729527 155.090963,151.722417" id="Path" fill="#3F3D56"></path>
                <rect id="Rectangle" fill="#4A90E2" x="127" y="206" width="69" height="12" rx="6"></rect>
                <rect id="Rectangle" stroke="#F2F2F2" x="130" y="203" width="69" height="12" rx="6"></rect>
                <path d="M113,240.558251 C113,240.558251 122.265958,229.834883 120.90996,226.412564 C119.553962,222.990246 123.847968,197.664882 131.757906,200.174567 C139.667844,202.684252 136.277879,228.009632 136.277879,228.009632 L124.073943,249 L117.745978,246.71844 L113,240.558251 Z" id="Path" fill="#FBBEBE"></path>
                <path d="M115.786501,233 L98.0374305,254.917095 C98.0374305,254.917095 89.5086503,278 101.03405,278 C112.55945,278 121.549197,262.844558 121.549197,262.844558 L131,239.761661 C131,239.761661 124.315281,249.321244 119.244117,244.19171 C116.276443,241.303989 114.972429,237.083121 115.786501,233 Z" id="Path" fill="#2F2E41"></path>
                <rect id="Rectangle" fill="#57B894" x="174" y="349" width="36" height="12" rx="4.01181"></rect>
                <rect id="Rectangle" stroke="#F2F2F2" x="178" y="346" width="36" height="12" rx="4.01181"></rect>
                <path d="M205.85845,336 C205.85845,336 188.979089,359.498923 199.39365,364.300548 C209.808212,369.102173 223,347.609195 223,347.609195 L205.85845,336 Z" id="Path" fill="#FBBEBE"></path>
                <path d="M224.218636,211 L233.476387,214.454104 C233.476387,214.454104 239.031035,241.856688 240.882587,248.304352 C242.734138,254.752016 245.280016,309.557183 239.031035,320.610304 C232.782053,331.663425 220.746975,354 220.746975,354 C220.746975,354 209.637679,337.65056 202,338.801928 C202,338.801928 212.646411,329.590976 214.266521,324.755232 C215.886631,319.919488 220.746944,306.103026 220.978394,298.273715 C221.209844,290.444403 220.227614,259.953583 214.701186,254.589493 C209.174757,249.225403 224.218636,211 224.218636,211 Z" id="Path" fill="#2F2E41"></path>
                <path d="M79,568.5 L267,568.5" id="Path" stroke="#3F3D56"></path>
                <path d="M677,447 C677,491.21875 704.730467,527 739,527" id="Path" fill="#46455B"></path>
                <path d="M739,528 C739,483.228519 769.861334,447 808,447" id="Path" fill="#4A90E2"></path>
                <path d="M699,451 C699,493.007822 716.890629,527 739,527" id="Path" fill="#4A90E2"></path>
                <path d="M739,528 C739,471.068357 774.78125,425 819,425" id="Path" fill="#46455B"></path>
                <path d="M726,528.575636 C726,528.575636 734.868597,528.31483 737.541367,526.497584 C740.214136,524.680338 751.183505,522.510439 751.846555,525.424909 C752.509605,528.339378 765.174401,539.920153 755.161807,539.997265 C745.149213,540.074376 731.896977,538.508117 729.22935,536.956579 C726.561722,535.405042 726,528.575636 726,528.575636 Z" id="Path" fill="#A8A8A8"></path>
                <path d="M755.342531,538.932511 C745.329229,539.013452 732.076081,537.369851 729.408266,535.741699 C727.376581,534.501782 726.566979,530.052656 726.296089,528 C726.108489,528.008077 726,528.011562 726,528.011562 C726,528.011562 726.561754,535.178171 729.229568,536.806316 C731.897382,538.434461 745.150576,540.078069 755.163841,539.997128 C758.054283,539.973777 759.052694,538.943452 758.997875,537.417456 C758.596322,538.339427 757.493936,538.91513 755.342531,538.932511 Z" id="Path" fill="#000000" opacity="0.2"></path>
                <path d="M677,539.5 L808,539.5" id="Path" stroke="#3F3D56"></path>
            </g>
        </g>
    </g>
</svg>